<svg width="276" height="81" viewBox="0 0 276 81" fill="none" xmlns="http://www.w3.org/2000/svg">
<path d="M68.5736 38.8015H65.8823L65.8411 37.1741L65.7191 35.5692L65.5182 33.9879L65.2404 32.4323L64.8876 30.9042L64.4621 29.4053L63.9654 27.9378L63.3999 26.5033L62.7673 25.1042L62.0696 23.7419L61.3089 22.4189L60.487 21.1371L59.6062 19.8983L58.6681 18.7044L57.6747 17.5577L56.6283 16.46L55.5306 15.4136L54.384 14.4203L53.1901 13.4821L51.9512 12.6013L50.6694 11.7795L49.3464 11.0187L47.9841 10.321L46.585 9.68847L45.1506 9.12294L43.6831 8.62627L42.1841 8.20074L40.656 7.84788L39.1005 7.57013L37.5191 7.36922L35.9142 7.24722L34.2868 7.20603V4.51471L36.0499 4.55936L37.7904 4.69174L39.5064 4.90962L41.1953 5.21125L42.8545 5.59421L44.4819 6.05644L46.0757 6.59567L47.633 7.20966L49.1522 7.89651L50.6308 8.65379L52.0666 9.47925L53.4578 10.371L54.8019 11.3269L56.0968 12.3447L57.3407 13.4221L58.5312 14.5571L59.6662 15.7476L60.7437 16.9915L61.7614 18.2864L62.7173 19.6305L63.6091 21.0217L64.4345 22.4575L65.1918 23.9361L65.8787 25.4553L66.4927 27.0126L67.0319 28.6065L67.4941 30.2338L67.8771 31.8931L68.1787 33.5819L68.3966 35.2979L68.529 37.0385L68.5736 38.8015ZM34.2868 73.0885V70.3972L35.9142 70.356L37.5191 70.234L39.1005 70.0331L40.656 69.7553L42.1841 69.4025L43.6831 68.9769L45.1506 68.4803L46.585 67.9147L47.9841 67.2822L49.3464 66.5845L50.6694 65.8237L51.9512 65.0019L53.1901 64.1211L54.384 63.1829L55.5306 62.1896L56.6283 61.1432L57.6747 60.0455L58.6681 58.8988L59.6062 57.705L60.487 56.4661L61.3089 55.1843L62.0696 53.8611L62.7673 52.499L63.3999 51.0999L63.9654 49.6653L64.4621 48.1978L64.8876 46.6991L65.2404 45.1707L65.5182 43.6152L65.7191 42.034L65.8411 40.4289L65.8823 38.8015H68.5736L68.529 40.5646L68.3966 42.3053L68.1787 44.0211L67.8771 45.71L67.4941 47.3692L67.0319 48.9969L66.4927 50.5904L65.8787 52.1479L65.1918 53.6671L64.4345 55.1455L63.6091 56.5815L62.7173 57.9727L61.7614 59.3168L60.7437 60.6117L59.6662 61.8556L58.5312 63.0461L57.3407 64.1811L56.0968 65.2585L54.8019 66.2763L53.4578 67.2322L52.0666 68.124L50.6308 68.9494L49.1522 69.7067L47.633 70.3936L46.0757 71.0075L44.4819 71.5468L42.8545 72.009L41.1953 72.392L39.5064 72.6936L37.7904 72.9115L36.0499 73.0439L34.2868 73.0885ZM0 38.8015H2.69132L2.7325 40.4289L2.85451 42.034L3.05542 43.6152L3.33317 45.1707L3.68603 46.6991L4.11156 48.1978L4.60823 49.6653L5.17376 51.0999L5.80627 52.499L6.50402 53.8611L7.26476 55.1843L8.08659 56.4661L8.96743 57.705L9.90555 58.8988L10.8989 60.0455L11.9453 61.1432L13.043 62.1896L14.1896 63.1829L15.3835 64.1211L16.6224 65.0019L17.9042 65.8237L19.2272 66.5845L20.5895 67.2822L21.9886 67.9147L23.4231 68.4803L24.8906 68.9769L26.3895 69.4025L27.9176 69.7553L29.4732 70.0331L31.0545 70.234L32.6594 70.356L34.2868 70.3972V73.0885L32.5237 73.0439L30.7832 72.9115L29.0672 72.6936L27.3784 72.392L25.7191 72.009L24.0917 71.5468L22.4979 71.0075L20.9406 70.3936L19.4214 69.7067L17.9428 68.9494L16.507 68.124L15.1158 67.2322L13.7717 66.2763L12.4768 65.2585L11.2329 64.1811L10.0424 63.0461L8.90738 61.8556L7.82995 60.6117L6.81223 59.3168L5.85628 57.9727L4.96454 56.5815L4.13908 55.1455L3.3818 53.6671L2.69495 52.1479L2.08096 50.5904L1.54173 48.9969L1.0795 47.3692L0.696538 45.71L0.394904 44.0211L0.177033 42.3053L0.0446448 40.5646L0 38.8015ZM34.2868 4.51471V7.20603L32.6594 7.24722L31.0545 7.36922L29.4732 7.57013L27.9176 7.84788L26.3895 8.20074L24.8906 8.62627L23.4231 9.12294L21.9886 9.68847L20.5895 10.321L19.2272 11.0187L17.9042 11.7795L16.6224 12.6013L15.3835 13.4821L14.1896 14.4203L13.043 15.4136L11.9453 16.46L10.8989 17.5577L9.90555 18.7044L8.96743 19.8983L8.08659 21.1371L7.26476 22.4189L6.50402 23.7419L5.80627 25.1042L5.17376 26.5033L4.60823 27.9378L4.11156 29.4053L3.68603 30.9042L3.33317 32.4323L3.05542 33.9879L2.85451 35.5692L2.7325 37.1741L2.69132 38.8015H0L0.0446448 37.0385L0.177033 35.2979L0.394904 33.5819L0.696538 31.8931L1.0795 30.2338L1.54173 28.6065L2.08096 27.0126L2.69495 25.4553L3.3818 23.9361L4.13908 22.4575L4.96454 21.0217L5.85628 19.6305L6.81223 18.2864L7.82995 16.9915L8.90738 15.7476L10.0424 14.5571L11.2329 13.4221L12.4768 12.3447L13.7717 11.3269L15.1158 10.371L16.507 9.47925L17.9428 8.65379L19.4214 7.89651L20.9406 7.20966L22.4979 6.59567L24.0917 6.05644L25.7191 5.59421L27.3784 5.21125L29.0672 4.90962L30.7832 4.69174L32.5237 4.55936L34.2868 4.51471Z" fill="#DF9DC0"/>
<path d="M41.3843 73.0202C42.6557 76.7026 46.7327 74.5107 44.8916 72.0996C39.8062 65.6113 43.4009 49.9169 47.7848 37.3351C52.2913 36.5301 64.1053 45.0538 64.2697 49.174C64.3346 50.8042 67.868 50.1417 66.5054 47.1137C64.4876 42.6295 58.9945 35.567 48.4862 35.3623C50.4152 29.9264 52.4318 25.2356 53.8785 22.2106C57.1664 15.1087 59.8843 10.4179 59.7968 10.7248C62.8216 5.81491 57.8678 4.41197 55.9827 8.26984C53.747 12.9168 51.5989 17.7829 49.5823 22.912C48.2232 26.3753 46.7766 30.584 45.4175 35.2748C40.9022 35.4063 36.4305 36.2392 33.2742 36.9843C29.5478 37.8612 25.8215 39.2202 22.3144 40.3161C28.1011 22.649 35.5538 5.77095 35.7291 5.06957C38.7541 0.159536 33.8002 -1.24323 31.9152 2.61464C26.7859 13.0921 22.4459 27.6028 19.1579 41.2807C14.8179 42.4642 11.0478 42.9465 8.06674 41.3683C5.3486 39.0011 1.70999 43.6919 6.75154 45.0946C13.4149 47.199 14.6864 54.3009 14.6864 61.3151C13.1519 69.3814 12.7575 75.4751 14.1603 78.2371C16.2646 82.7963 20.6046 80.2536 17.6674 77.3164C15.607 73.8093 15.344 68.5925 16.5276 61.9289C17.5798 55.9667 19.4209 49.3909 21.5252 42.6835C25.0763 41.4123 28.8464 39.8778 32.5288 38.9571C36.5182 37.9489 40.8144 36.9843 44.8916 37.1159C41.2528 50.0922 38.7101 65.436 41.3843 73.0202ZM16.0454 54.8708C15.5632 51.1882 14.3356 47.7688 11.4861 44.9631C14.0725 44.8316 16.2646 44.5248 18.588 43.6919C17.6674 47.5496 16.7907 51.3197 16.0454 54.8708Z" fill="#DF9DC0" stroke="#DF9DC0" stroke-width="0.457725" stroke-miterlimit="22.9256"/>
<path d="M84.7007 54.2639C83.7688 54.2639 83.0474 54.0084 82.5364 53.4974C82.0555 52.9564 81.815 52.2199 81.815 51.2881V24.7313C81.815 23.7694 82.0555 23.033 82.5364 22.522C83.0474 22.011 83.7688 21.7555 84.7007 21.7555C85.6325 21.7555 86.3389 22.011 86.8198 22.522C87.3308 23.033 87.5863 23.7694 87.5863 24.7313V35.3721H103.953V24.7313C103.953 23.7694 104.194 23.033 104.675 22.522C105.186 22.011 105.907 21.7555 106.839 21.7555C107.771 21.7555 108.477 22.011 108.958 22.522C109.469 23.033 109.724 23.7694 109.724 24.7313V51.2881C109.724 52.2199 109.469 52.9564 108.958 53.4974C108.477 54.0084 107.771 54.2639 106.839 54.2639C105.907 54.2639 105.186 54.0084 104.675 53.4974C104.194 52.9564 103.953 52.2199 103.953 51.2881V40.1965H87.5863V51.2881C87.5863 52.2199 87.3458 52.9564 86.8649 53.4974C86.3839 54.0084 85.6625 54.2639 84.7007 54.2639ZM123.406 54.3541C121.813 54.3541 120.385 54.0535 119.122 53.4523C117.89 52.8211 116.913 51.9794 116.192 50.9274C115.5 49.8753 115.155 48.688 115.155 47.3654C115.155 45.7423 115.576 44.4648 116.417 43.533C117.259 42.5711 118.626 41.8798 120.52 41.4589C122.414 41.0381 124.954 40.8277 128.14 40.8277H130.394V44.074H128.185C126.322 44.074 124.834 44.1642 123.721 44.3446C122.609 44.5249 121.813 44.8405 121.332 45.2914C120.881 45.7122 120.655 46.3134 120.655 47.0949C120.655 48.0869 121.001 48.8984 121.692 49.5297C122.384 50.1609 123.346 50.4765 124.578 50.4765C125.57 50.4765 126.442 50.2511 127.193 49.8002C127.975 49.3193 128.591 48.673 129.042 47.8614C129.493 47.0498 129.718 46.118 129.718 45.066V39.8809C129.718 38.3779 129.387 37.2958 128.726 36.6345C128.065 35.9732 126.953 35.6426 125.39 35.6426C124.518 35.6426 123.571 35.7478 122.549 35.9582C121.557 36.1686 120.505 36.5293 119.393 37.0403C118.822 37.3108 118.311 37.386 117.86 37.2658C117.439 37.1455 117.109 36.9051 116.868 36.5443C116.628 36.1536 116.507 35.7328 116.507 35.2819C116.507 34.831 116.628 34.3952 116.868 33.9743C117.109 33.5235 117.514 33.1928 118.085 32.9824C119.468 32.4113 120.791 32.0055 122.053 31.765C123.346 31.5246 124.518 31.4043 125.57 31.4043C127.734 31.4043 129.508 31.735 130.89 32.3963C132.303 33.0576 133.355 34.0645 134.047 35.4172C134.738 36.7397 135.084 38.4531 135.084 40.5572V51.3783C135.084 52.3101 134.858 53.0315 134.407 53.5425C133.956 54.0234 133.31 54.2639 132.468 54.2639C131.627 54.2639 130.966 54.0234 130.485 53.5425C130.034 53.0315 129.808 52.3101 129.808 51.3783V49.2141H130.169C129.959 50.2661 129.538 51.1829 128.907 51.9644C128.305 52.7159 127.539 53.302 126.607 53.7228C125.675 54.1437 124.608 54.3541 123.406 54.3541ZM127.915 28.654C127.614 29.0748 127.253 29.3153 126.832 29.3754C126.412 29.4355 126.006 29.3603 125.615 29.1499C125.224 28.9395 124.939 28.6389 124.758 28.2482C124.608 27.8574 124.653 27.4216 124.894 26.9406L128.32 20.2225C128.591 19.6514 128.952 19.2907 129.403 19.1404C129.853 18.9601 130.319 18.93 130.8 19.0502C131.281 19.1705 131.687 19.3959 132.018 19.7266C132.378 20.0572 132.589 20.463 132.649 20.9439C132.739 21.3948 132.619 21.8607 132.288 22.3417L127.915 28.654ZM153.519 54.3541C151.655 54.3541 150.017 53.8882 148.604 52.9564C147.222 52.0245 146.305 50.7771 145.854 49.2141L146.35 48.0869V51.3783C146.35 52.3101 146.109 53.0315 145.629 53.5425C145.148 54.0234 144.471 54.2639 143.6 54.2639C142.698 54.2639 142.006 54.0234 141.526 53.5425C141.045 53.0315 140.804 52.3101 140.804 51.3783V24.5961C140.804 23.6642 141.045 22.9579 141.526 22.4769C142.006 21.996 142.698 21.7555 143.6 21.7555C144.501 21.7555 145.193 21.996 145.674 22.4769C146.185 22.9579 146.44 23.6642 146.44 24.5961V36.3189H145.899C146.38 34.846 147.312 33.6587 148.695 32.757C150.077 31.8552 151.685 31.4043 153.519 31.4043C155.473 31.4043 157.171 31.8702 158.614 32.8021C160.057 33.7339 161.184 35.0564 161.995 36.7698C162.807 38.4531 163.213 40.482 163.213 42.8567C163.213 45.2012 162.807 47.2452 161.995 48.9886C161.184 50.702 160.042 52.0245 158.569 52.9564C157.126 53.8882 155.443 54.3541 153.519 54.3541ZM151.941 50.0707C153.053 50.0707 154.03 49.8002 154.872 49.2591C155.713 48.7181 156.359 47.9215 156.81 46.8695C157.291 45.7874 157.532 44.4498 157.532 42.8567C157.532 40.452 157.021 38.6635 155.999 37.4912C154.977 36.2889 153.624 35.6877 151.941 35.6877C150.829 35.6877 149.852 35.9582 149.01 36.4993C148.168 37.0103 147.507 37.8068 147.026 38.8889C146.575 39.941 146.35 41.2636 146.35 42.8567C146.35 45.2313 146.861 47.0348 147.883 48.2672C148.905 49.4696 150.258 50.0707 151.941 50.0707ZM170.635 54.2188C169.733 54.2188 169.042 53.9483 168.561 53.4072C168.08 52.8662 167.839 52.1147 167.839 51.1528V34.6056C167.839 33.6136 168.08 32.8622 168.561 32.3512C169.042 31.8101 169.733 31.5396 170.635 31.5396C171.536 31.5396 172.228 31.8101 172.709 32.3512C173.22 32.8622 173.475 33.6136 173.475 34.6056V51.1528C173.475 52.1147 173.235 52.8662 172.754 53.4072C172.273 53.9483 171.567 54.2188 170.635 54.2188ZM170.635 27.3464C169.583 27.3464 168.756 27.0909 168.155 26.5799C167.584 26.0389 167.298 25.3024 167.298 24.3706C167.298 23.4087 167.584 22.6723 168.155 22.1613C168.756 21.6503 169.583 21.3948 170.635 21.3948C171.717 21.3948 172.543 21.6503 173.115 22.1613C173.686 22.6723 173.971 23.4087 173.971 24.3706C173.971 25.3024 173.686 26.0389 173.115 26.5799C172.543 27.0909 171.717 27.3464 170.635 27.3464ZM189.431 54.3541C187.477 54.3541 185.839 54.0234 184.516 53.3621C183.224 52.7009 182.262 51.739 181.631 50.4765C181 49.184 180.684 47.5909 180.684 45.6972V36.0935H178.339C177.618 36.0935 177.062 35.9131 176.671 35.5524C176.28 35.1617 176.085 34.6356 176.085 33.9743C176.085 33.283 176.28 32.757 176.671 32.3963C177.062 32.0356 177.618 31.8552 178.339 31.8552H180.684V27.7522C180.684 26.8204 180.924 26.114 181.405 25.6331C181.916 25.1521 182.623 24.9117 183.525 24.9117C184.426 24.9117 185.118 25.1521 185.599 25.6331C186.08 26.114 186.32 26.8204 186.32 27.7522V31.8552H191.099C191.821 31.8552 192.377 32.0356 192.768 32.3963C193.158 32.757 193.354 33.283 193.354 33.9743C193.354 34.6356 193.158 35.1617 192.768 35.5524C192.377 35.9131 191.821 36.0935 191.099 36.0935H186.32V45.3816C186.32 46.8244 186.636 47.9065 187.267 48.6279C187.898 49.3493 188.92 49.71 190.333 49.71C190.844 49.71 191.295 49.6649 191.685 49.5748C192.076 49.4846 192.422 49.4245 192.722 49.3944C193.083 49.3643 193.384 49.4846 193.624 49.7551C193.865 49.9956 193.985 50.5066 193.985 51.2881C193.985 51.8893 193.88 52.4303 193.669 52.9113C193.489 53.3621 193.143 53.6778 192.632 53.8581C192.242 53.9783 191.731 54.0835 191.099 54.1737C190.468 54.294 189.912 54.3541 189.431 54.3541ZM206.47 54.3541C204.186 54.3541 202.202 53.8882 200.518 52.9564C198.835 52.0245 197.528 50.702 196.596 48.9886C195.664 47.2452 195.198 45.2012 195.198 42.8567C195.198 41.0832 195.454 39.5051 195.965 38.1224C196.506 36.7097 197.272 35.5073 198.264 34.5154C199.256 33.4934 200.443 32.7269 201.826 32.2159C203.209 31.6749 204.757 31.4043 206.47 31.4043C208.755 31.4043 210.738 31.8702 212.422 32.8021C214.105 33.7339 215.413 35.0564 216.344 36.7698C217.276 38.4831 217.742 40.5121 217.742 42.8567C217.742 44.6301 217.472 46.2232 216.93 47.636C216.419 49.0487 215.668 50.2661 214.676 51.2881C213.684 52.28 212.497 53.0465 211.114 53.5876C209.731 54.0986 208.183 54.3541 206.47 54.3541ZM206.47 50.0707C207.582 50.0707 208.559 49.8002 209.401 49.2591C210.242 48.7181 210.889 47.9215 211.34 46.8695C211.821 45.7874 212.061 44.4498 212.061 42.8567C212.061 40.452 211.55 38.6635 210.528 37.4912C209.506 36.2889 208.153 35.6877 206.47 35.6877C205.358 35.6877 204.381 35.9582 203.539 36.4993C202.698 37.0103 202.036 37.8068 201.556 38.8889C201.105 39.941 200.879 41.2636 200.879 42.8567C200.879 45.2313 201.39 47.0348 202.412 48.2672C203.434 49.4696 204.787 50.0707 206.47 50.0707ZM225.911 54.2639C224.979 54.2639 224.242 54.0084 223.701 53.4974C223.19 52.9564 222.935 52.1899 222.935 51.1979V25.1822C222.935 24.1903 223.19 23.4388 223.701 22.9278C224.242 22.3867 225.009 22.1162 226.001 22.1162H241.737C242.518 22.1162 243.104 22.3116 243.495 22.7024C243.886 23.0931 244.081 23.6492 244.081 24.3706C244.081 25.1221 243.886 25.7082 243.495 26.129C243.104 26.5198 242.518 26.7152 241.737 26.7152H228.706V35.6877H240.79C241.541 35.6877 242.112 35.8831 242.503 36.2738C242.924 36.6646 243.134 37.2207 243.134 37.9421C243.134 38.6935 242.924 39.2797 242.503 39.7005C242.112 40.0913 241.541 40.2866 240.79 40.2866H228.706V51.1979C228.706 53.2419 227.774 54.2639 225.911 54.2639ZM252.313 54.2188C251.411 54.2188 250.719 53.9483 250.238 53.4072C249.758 52.8662 249.517 52.1147 249.517 51.1528V34.6056C249.517 33.6136 249.758 32.8622 250.238 32.3512C250.719 31.8101 251.411 31.5396 252.313 31.5396C253.214 31.5396 253.906 31.8101 254.387 32.3512C254.898 32.8622 255.153 33.6136 255.153 34.6056V51.1528C255.153 52.1147 254.913 52.8662 254.432 53.4072C253.951 53.9483 253.244 54.2188 252.313 54.2188ZM252.313 27.3464C251.26 27.3464 250.434 27.0909 249.833 26.5799C249.262 26.0389 248.976 25.3024 248.976 24.3706C248.976 23.4087 249.262 22.6723 249.833 22.1613C250.434 21.6503 251.26 21.3948 252.313 21.3948C253.395 21.3948 254.221 21.6503 254.792 22.1613C255.363 22.6723 255.649 23.4087 255.649 24.3706C255.649 25.3024 255.363 26.0389 254.792 26.5799C254.221 27.0909 253.395 27.3464 252.313 27.3464ZM271.109 54.3541C269.155 54.3541 267.517 54.0234 266.194 53.3621C264.902 52.7009 263.94 51.739 263.309 50.4765C262.677 49.184 262.362 47.5909 262.362 45.6972V36.0935H260.017C259.296 36.0935 258.74 35.9131 258.349 35.5524C257.958 35.1617 257.763 34.6356 257.763 33.9743C257.763 33.283 257.958 32.757 258.349 32.3963C258.74 32.0356 259.296 31.8552 260.017 31.8552H262.362V27.7522C262.362 26.8204 262.602 26.114 263.083 25.6331C263.594 25.1521 264.301 24.9117 265.202 24.9117C266.104 24.9117 266.795 25.1521 267.276 25.6331C267.757 26.114 267.998 26.8204 267.998 27.7522V31.8552H272.777C273.499 31.8552 274.055 32.0356 274.445 32.3963C274.836 32.757 275.032 33.283 275.032 33.9743C275.032 34.6356 274.836 35.1617 274.445 35.5524C274.055 35.9131 273.499 36.0935 272.777 36.0935H267.998V45.3816C267.998 46.8244 268.313 47.9065 268.945 48.6279C269.576 49.3493 270.598 49.71 272.011 49.71C272.522 49.71 272.973 49.6649 273.363 49.5748C273.754 49.4846 274.1 49.4245 274.4 49.3944C274.761 49.3643 275.062 49.4846 275.302 49.7551C275.543 49.9956 275.663 50.5066 275.663 51.2881C275.663 51.8893 275.558 52.4303 275.347 52.9113C275.167 53.3621 274.821 53.6778 274.31 53.8581C273.919 53.9783 273.408 54.0835 272.777 54.1737C272.146 54.294 271.59 54.3541 271.109 54.3541Z" fill="white"/>
<path d="M118.367 69.2056C118.07 69.2056 117.78 69.1804 117.496 69.1299C117.212 69.0795 116.948 69.0069 116.701 68.9123C116.462 68.8177 116.244 68.6978 116.049 68.5528C115.973 68.496 115.919 68.4329 115.888 68.3635C115.862 68.2878 115.856 68.2153 115.869 68.1459C115.888 68.0702 115.919 68.0071 115.963 67.9566C116.014 67.9062 116.074 67.8778 116.143 67.8715C116.213 67.8652 116.288 67.8872 116.37 67.9377C116.654 68.1396 116.957 68.2878 117.279 68.3824C117.6 68.4707 117.963 68.5149 118.367 68.5149C118.935 68.5149 119.354 68.4108 119.625 68.2027C119.903 67.9882 120.042 67.7075 120.042 67.3605C120.042 67.0767 119.941 66.8559 119.739 66.6982C119.543 66.5342 119.212 66.4048 118.745 66.3102L117.761 66.1115C117.168 65.9853 116.724 65.7803 116.427 65.4965C116.137 65.2063 115.992 64.8215 115.992 64.3421C115.992 64.0456 116.052 63.7775 116.172 63.5378C116.291 63.2918 116.459 63.0836 116.673 62.9133C116.888 62.7367 117.143 62.601 117.44 62.5064C117.736 62.4118 118.064 62.3645 118.424 62.3645C118.821 62.3645 119.19 62.4213 119.531 62.5348C119.878 62.642 120.19 62.806 120.467 63.0268C120.537 63.0836 120.584 63.1498 120.609 63.2255C120.635 63.2949 120.638 63.3643 120.619 63.4337C120.6 63.4968 120.565 63.5504 120.515 63.5946C120.471 63.6387 120.411 63.664 120.335 63.6703C120.266 63.6766 120.187 63.6513 120.098 63.5946C119.846 63.4053 119.584 63.2697 119.313 63.1877C119.042 63.0994 118.742 63.0552 118.414 63.0552C118.08 63.0552 117.79 63.1057 117.544 63.2066C117.304 63.3075 117.115 63.4558 116.976 63.6513C116.843 63.8406 116.777 64.0614 116.777 64.3137C116.777 64.6165 116.869 64.8562 117.052 65.0328C117.241 65.2094 117.547 65.3388 117.969 65.4208L118.954 65.6289C119.591 65.7614 120.061 65.9633 120.363 66.2345C120.672 66.4995 120.827 66.8622 120.827 67.3227C120.827 67.6002 120.77 67.8557 120.657 68.0891C120.543 68.3225 120.379 68.5244 120.165 68.6947C119.95 68.8587 119.692 68.9849 119.389 69.0732C119.086 69.1615 118.745 69.2056 118.367 69.2056ZM123.999 69.2056C123.513 69.2056 123.094 69.111 122.741 68.9218C122.394 68.7262 122.122 68.4518 121.927 68.0986C121.738 67.7453 121.643 67.3227 121.643 66.8306C121.643 66.3512 121.738 65.9349 121.927 65.5816C122.116 65.2221 122.375 64.9413 122.703 64.7395C123.037 64.5376 123.422 64.4367 123.857 64.4367C124.166 64.4367 124.444 64.4903 124.69 64.5976C124.936 64.6985 125.144 64.8467 125.314 65.0423C125.491 65.2378 125.623 65.4744 125.712 65.7519C125.806 66.0295 125.854 66.3418 125.854 66.6887C125.854 66.7896 125.825 66.8653 125.769 66.9158C125.712 66.9599 125.63 66.982 125.523 66.982H122.23V66.4805H125.343L125.191 66.6035C125.191 66.2629 125.141 65.9759 125.04 65.7425C124.939 65.5028 124.791 65.3198 124.595 65.1937C124.406 65.0675 124.166 65.0044 123.876 65.0044C123.554 65.0044 123.28 65.0801 123.053 65.2315C122.832 65.3766 122.665 65.5816 122.551 65.8466C122.438 66.1052 122.381 66.408 122.381 66.7549V66.8117C122.381 67.3921 122.52 67.8336 122.797 68.1364C123.081 68.4392 123.482 68.5906 123.999 68.5906C124.214 68.5906 124.425 68.5622 124.633 68.5054C124.848 68.4487 125.056 68.354 125.258 68.2216C125.346 68.1648 125.425 68.1396 125.494 68.1459C125.57 68.1459 125.63 68.168 125.674 68.2121C125.718 68.25 125.746 68.3004 125.759 68.3635C125.778 68.4203 125.772 68.4834 125.74 68.5528C125.715 68.6221 125.661 68.6821 125.579 68.7325C125.371 68.8839 125.125 69.0006 124.841 69.0826C124.557 69.1646 124.277 69.2056 123.999 69.2056ZM128.59 69.2056C128.218 69.2056 127.909 69.1394 127.663 69.0069C127.423 68.8682 127.241 68.6631 127.114 68.3919C126.995 68.1206 126.935 67.7832 126.935 67.3794V64.8436C126.935 64.7111 126.966 64.6133 127.029 64.5502C127.099 64.4872 127.193 64.4556 127.313 64.4556C127.439 64.4556 127.534 64.4872 127.597 64.5502C127.666 64.6133 127.701 64.7111 127.701 64.8436V67.37C127.701 67.7737 127.783 68.0765 127.947 68.2783C128.117 68.4739 128.382 68.5717 128.742 68.5717C129.133 68.5717 129.452 68.4392 129.698 68.1743C129.944 67.9093 130.067 67.5624 130.067 67.1334V64.8436C130.067 64.7111 130.098 64.6133 130.161 64.5502C130.231 64.4872 130.328 64.4556 130.455 64.4556C130.574 64.4556 130.666 64.4872 130.729 64.5502C130.798 64.6133 130.833 64.7111 130.833 64.8436V68.7893C130.833 69.0542 130.71 69.1867 130.464 69.1867C130.344 69.1867 130.25 69.152 130.18 69.0826C130.117 69.0132 130.086 68.9155 130.086 68.7893V67.9282L130.209 68.0607C130.082 68.4329 129.874 68.7168 129.584 68.9123C129.3 69.1079 128.969 69.2056 128.59 69.2056ZM136.552 69.2056C136.192 69.2056 135.889 69.1426 135.643 69.0164C135.404 68.8839 135.224 68.6947 135.104 68.4487C134.984 68.1963 134.924 67.8904 134.924 67.5308V65.118H134.29C134.183 65.118 134.101 65.0927 134.044 65.0423C133.987 64.9855 133.959 64.9098 133.959 64.8152C133.959 64.7206 133.987 64.648 134.044 64.5976C134.101 64.5471 134.183 64.5219 134.29 64.5219H134.924V63.4337C134.924 63.3075 134.959 63.2129 135.028 63.1498C135.098 63.0805 135.192 63.0458 135.312 63.0458C135.432 63.0458 135.523 63.0805 135.587 63.1498C135.656 63.2129 135.691 63.3075 135.691 63.4337V64.5219H136.883C136.99 64.5219 137.072 64.5471 137.129 64.5976C137.186 64.648 137.214 64.7206 137.214 64.8152C137.214 64.9098 137.186 64.9855 137.129 65.0423C137.072 65.0927 136.99 65.118 136.883 65.118H135.691V67.4551C135.691 67.8147 135.766 68.0891 135.918 68.2783C136.069 68.4613 136.315 68.5528 136.656 68.5528C136.776 68.5528 136.877 68.5401 136.959 68.5149C137.047 68.4897 137.119 68.4771 137.176 68.4771C137.233 68.4707 137.28 68.4897 137.318 68.5338C137.356 68.578 137.375 68.6537 137.375 68.7609C137.375 68.8366 137.359 68.906 137.328 68.9691C137.302 69.0322 137.255 69.0763 137.186 69.1016C137.11 69.1268 137.009 69.1489 136.883 69.1678C136.763 69.193 136.653 69.2056 136.552 69.2056ZM138.403 69.1867C138.276 69.1867 138.179 69.152 138.109 69.0826C138.046 69.0132 138.015 68.9155 138.015 68.7893V64.8436C138.015 64.7174 138.046 64.6228 138.109 64.5597C138.172 64.4903 138.264 64.4556 138.384 64.4556C138.504 64.4556 138.595 64.4903 138.658 64.5597C138.727 64.6228 138.762 64.7174 138.762 64.8436V65.61H138.668C138.768 65.2378 138.961 64.9508 139.245 64.749C139.529 64.5471 139.879 64.4399 140.295 64.4272C140.39 64.4209 140.465 64.443 140.522 64.4935C140.579 64.5376 140.61 64.6165 140.617 64.73C140.623 64.8373 140.598 64.9224 140.541 64.9855C140.484 65.0486 140.396 65.0864 140.276 65.0991L140.125 65.118C139.696 65.1558 139.365 65.2946 139.131 65.5343C138.904 65.7677 138.791 66.0894 138.791 66.4995V68.7893C138.791 68.9155 138.756 69.0132 138.686 69.0826C138.623 69.152 138.529 69.1867 138.403 69.1867ZM143.423 69.2056C142.937 69.2056 142.517 69.111 142.164 68.9218C141.817 68.7262 141.546 68.4518 141.35 68.0986C141.161 67.7453 141.067 67.3227 141.067 66.8306C141.067 66.3512 141.161 65.9349 141.35 65.5816C141.54 65.2221 141.798 64.9413 142.126 64.7395C142.461 64.5376 142.845 64.4367 143.281 64.4367C143.59 64.4367 143.867 64.4903 144.113 64.5976C144.359 64.6985 144.568 64.8467 144.738 65.0423C144.915 65.2378 145.047 65.4744 145.135 65.7519C145.23 66.0295 145.277 66.3418 145.277 66.6887C145.277 66.7896 145.249 66.8653 145.192 66.9158C145.135 66.9599 145.053 66.982 144.946 66.982H141.653V66.4805H144.766L144.615 66.6035C144.615 66.2629 144.564 65.9759 144.464 65.7425C144.363 65.5028 144.214 65.3198 144.019 65.1937C143.83 65.0675 143.59 65.0044 143.3 65.0044C142.978 65.0044 142.704 65.0801 142.476 65.2315C142.256 65.3766 142.089 65.5816 141.975 65.8466C141.861 66.1052 141.805 66.408 141.805 66.7549V66.8117C141.805 67.3921 141.943 67.8336 142.221 68.1364C142.505 68.4392 142.905 68.5906 143.423 68.5906C143.637 68.5906 143.848 68.5622 144.057 68.5054C144.271 68.4487 144.479 68.354 144.681 68.2216C144.769 68.1648 144.848 68.1396 144.918 68.1459C144.993 68.1459 145.053 68.168 145.098 68.2121C145.142 68.25 145.17 68.3004 145.183 68.3635C145.202 68.4203 145.195 68.4834 145.164 68.5528C145.139 68.6221 145.085 68.6821 145.003 68.7325C144.795 68.8839 144.549 69.0006 144.265 69.0826C143.981 69.1646 143.7 69.2056 143.423 69.2056ZM146.765 69.1678C146.639 69.1678 146.544 69.1331 146.481 69.0637C146.418 68.988 146.387 68.8839 146.387 68.7515V64.8814C146.387 64.749 146.418 64.648 146.481 64.5786C146.544 64.5092 146.639 64.4745 146.765 64.4745C146.885 64.4745 146.979 64.5092 147.049 64.5786C147.118 64.648 147.153 64.749 147.153 64.8814V68.7515C147.153 68.8839 147.118 68.988 147.049 69.0637C146.986 69.1331 146.891 69.1678 146.765 69.1678ZM146.765 63.4148C146.607 63.4148 146.484 63.3738 146.396 63.2918C146.308 63.2035 146.264 63.0868 146.264 62.9417C146.264 62.7903 146.308 62.6767 146.396 62.601C146.484 62.519 146.607 62.478 146.765 62.478C146.929 62.478 147.052 62.519 147.134 62.601C147.222 62.6767 147.267 62.7903 147.267 62.9417C147.267 63.0868 147.222 63.2035 147.134 63.2918C147.052 63.3738 146.929 63.4148 146.765 63.4148ZM148.964 69.1867C148.838 69.1867 148.743 69.152 148.68 69.0826C148.617 69.0132 148.586 68.9155 148.586 68.7893V64.8436C148.586 64.7174 148.617 64.6228 148.68 64.5597C148.743 64.4903 148.835 64.4556 148.955 64.4556C149.075 64.4556 149.166 64.4903 149.229 64.5597C149.299 64.6228 149.333 64.7174 149.333 64.8436V65.6573L149.229 65.5438C149.362 65.1779 149.576 64.9035 149.873 64.7206C150.175 64.5313 150.522 64.4367 150.913 64.4367C151.279 64.4367 151.582 64.5029 151.822 64.6354C152.068 64.7679 152.251 64.9697 152.371 65.241C152.491 65.5059 152.55 65.8434 152.55 66.2534V68.7893C152.55 68.9155 152.516 69.0132 152.446 69.0826C152.383 69.152 152.292 69.1867 152.172 69.1867C152.046 69.1867 151.948 69.152 151.879 69.0826C151.816 69.0132 151.784 68.9155 151.784 68.7893V66.3008C151.784 65.8718 151.699 65.5595 151.529 65.364C151.365 65.1621 151.1 65.0612 150.734 65.0612C150.311 65.0612 149.974 65.1937 149.721 65.4586C149.475 65.7172 149.352 66.0642 149.352 66.4995V68.7893C149.352 69.0542 149.223 69.1867 148.964 69.1867ZM155.875 69.2056C155.427 69.2056 155.039 69.1079 154.711 68.9123C154.383 68.7168 154.128 68.4424 153.945 68.0891C153.768 67.7295 153.68 67.3069 153.68 66.8212C153.68 66.4553 153.73 66.1273 153.831 65.8371C153.932 65.5406 154.08 65.2883 154.276 65.0801C154.472 64.872 154.702 64.7143 154.967 64.607C155.238 64.4935 155.541 64.4367 155.875 64.4367C156.323 64.4367 156.711 64.5345 157.039 64.73C157.367 64.9256 157.619 65.2031 157.796 65.5627C157.979 65.916 158.07 66.3354 158.07 66.8212C158.07 67.187 158.02 67.5151 157.919 67.8052C157.818 68.0954 157.67 68.3477 157.474 68.5622C157.279 68.7704 157.045 68.9312 156.774 69.0448C156.509 69.152 156.209 69.2056 155.875 69.2056ZM155.875 68.5906C156.159 68.5906 156.408 68.5212 156.623 68.3824C156.837 68.2437 157.001 68.0418 157.115 67.7769C157.235 67.5119 157.294 67.1934 157.294 66.8212C157.294 66.2471 157.165 65.8087 156.907 65.5059C156.654 65.2031 156.31 65.0517 155.875 65.0517C155.585 65.0517 155.333 65.1211 155.118 65.2599C154.91 65.3924 154.746 65.5911 154.626 65.856C154.513 66.1147 154.456 66.4364 154.456 66.8212C154.456 67.3889 154.585 67.8273 154.844 68.1364C155.102 68.4392 155.446 68.5906 155.875 68.5906ZM163.572 69.2056C163.125 69.2056 162.737 69.1079 162.409 68.9123C162.081 68.7168 161.825 68.4424 161.642 68.0891C161.466 67.7295 161.377 67.3069 161.377 66.8212C161.377 66.4553 161.428 66.1273 161.529 65.8371C161.63 65.5406 161.778 65.2883 161.973 65.0801C162.169 64.872 162.399 64.7143 162.664 64.607C162.935 64.4935 163.238 64.4367 163.572 64.4367C164.02 64.4367 164.408 64.5345 164.736 64.73C165.064 64.9256 165.317 65.2031 165.493 65.5627C165.676 65.916 165.768 66.3354 165.768 66.8212C165.768 67.187 165.717 67.5151 165.616 67.8052C165.515 68.0954 165.367 68.3477 165.172 68.5622C164.976 68.7704 164.743 68.9312 164.471 69.0448C164.206 69.152 163.907 69.2056 163.572 69.2056ZM163.572 68.5906C163.856 68.5906 164.106 68.5212 164.32 68.3824C164.534 68.2437 164.698 68.0418 164.812 67.7769C164.932 67.5119 164.992 67.1934 164.992 66.8212C164.992 66.2471 164.863 65.8087 164.604 65.5059C164.352 65.2031 164.008 65.0517 163.572 65.0517C163.282 65.0517 163.03 65.1211 162.815 65.2599C162.607 65.3924 162.443 65.5911 162.323 65.856C162.21 66.1147 162.153 66.4364 162.153 66.8212C162.153 67.3889 162.282 67.8273 162.541 68.1364C162.8 68.4392 163.144 68.5906 163.572 68.5906ZM167.297 69.1867C167.171 69.1867 167.077 69.152 167.014 69.0826C166.95 69.0132 166.919 68.9155 166.919 68.7893V64.8436C166.919 64.7174 166.95 64.6228 167.014 64.5597C167.077 64.4903 167.168 64.4556 167.288 64.4556C167.408 64.4556 167.499 64.4903 167.562 64.5597C167.632 64.6228 167.666 64.7174 167.666 64.8436V65.6573L167.562 65.5438C167.695 65.1779 167.909 64.9035 168.206 64.7206C168.509 64.5313 168.856 64.4367 169.247 64.4367C169.613 64.4367 169.915 64.5029 170.155 64.6354C170.401 64.7679 170.584 64.9697 170.704 65.241C170.824 65.5059 170.884 65.8434 170.884 66.2534V68.7893C170.884 68.9155 170.849 69.0132 170.78 69.0826C170.716 69.152 170.625 69.1867 170.505 69.1867C170.379 69.1867 170.281 69.152 170.212 69.0826C170.149 69.0132 170.117 68.9155 170.117 68.7893V66.3008C170.117 65.8718 170.032 65.5595 169.862 65.364C169.698 65.1621 169.433 65.0612 169.067 65.0612C168.644 65.0612 168.307 65.1937 168.054 65.4586C167.808 65.7172 167.685 66.0642 167.685 66.4995V68.7893C167.685 69.0542 167.556 69.1867 167.297 69.1867ZM174.047 69.2056C173.637 69.2056 173.278 69.1079 172.969 68.9123C172.666 68.7168 172.429 68.4424 172.259 68.0891C172.095 67.7295 172.013 67.3069 172.013 66.8212C172.013 66.3291 172.095 65.9065 172.259 65.5532C172.429 65.1937 172.666 64.9193 172.969 64.73C173.278 64.5345 173.637 64.4367 174.047 64.4367C174.464 64.4367 174.82 64.5408 175.117 64.749C175.413 64.9571 175.612 65.2378 175.713 65.5911H175.609V62.7714C175.609 62.6452 175.64 62.5506 175.703 62.4875C175.773 62.4181 175.871 62.3834 175.997 62.3834C176.117 62.3834 176.208 62.4181 176.271 62.4875C176.34 62.5506 176.375 62.6452 176.375 62.7714V68.7893C176.375 68.9155 176.344 69.0132 176.281 69.0826C176.217 69.152 176.123 69.1867 175.997 69.1867C175.877 69.1867 175.782 69.152 175.713 69.0826C175.65 69.0132 175.618 68.9155 175.618 68.7893V67.8904L175.722 68.0229C175.621 68.3824 175.419 68.6695 175.117 68.8839C174.82 69.0984 174.464 69.2056 174.047 69.2056ZM174.208 68.5906C174.492 68.5906 174.741 68.5212 174.956 68.3824C175.17 68.2437 175.334 68.0418 175.448 67.7769C175.568 67.5119 175.628 67.1934 175.628 66.8212C175.628 66.2471 175.498 65.8087 175.24 65.5059C174.987 65.2031 174.644 65.0517 174.208 65.0517C173.918 65.0517 173.666 65.1211 173.451 65.2599C173.243 65.3924 173.079 65.5911 172.959 65.856C172.846 66.1147 172.789 66.4364 172.789 66.8212C172.789 67.3889 172.918 67.8273 173.177 68.1364C173.436 68.4392 173.779 68.5906 174.208 68.5906ZM179.886 69.2056C179.4 69.2056 178.981 69.111 178.627 68.9218C178.28 68.7262 178.009 68.4518 177.814 68.0986C177.624 67.7453 177.53 67.3227 177.53 66.8306C177.53 66.3512 177.624 65.9349 177.814 65.5816C178.003 65.2221 178.261 64.9413 178.589 64.7395C178.924 64.5376 179.309 64.4367 179.744 64.4367C180.053 64.4367 180.33 64.4903 180.576 64.5976C180.823 64.6985 181.031 64.8467 181.201 65.0423C181.378 65.2378 181.51 65.4744 181.598 65.7519C181.693 66.0295 181.74 66.3418 181.74 66.6887C181.74 66.7896 181.712 66.8653 181.655 66.9158C181.598 66.9599 181.516 66.982 181.409 66.982H178.116V66.4805H181.229L181.078 66.6035C181.078 66.2629 181.028 65.9759 180.927 65.7425C180.826 65.5028 180.677 65.3198 180.482 65.1937C180.293 65.0675 180.053 65.0044 179.763 65.0044C179.441 65.0044 179.167 65.0801 178.94 65.2315C178.719 65.3766 178.552 65.5816 178.438 65.8466C178.324 66.1052 178.268 66.408 178.268 66.7549V66.8117C178.268 67.3921 178.406 67.8336 178.684 68.1364C178.968 68.4392 179.368 68.5906 179.886 68.5906C180.1 68.5906 180.312 68.5622 180.52 68.5054C180.734 68.4487 180.942 68.354 181.144 68.2216C181.233 68.1648 181.311 68.1396 181.381 68.1459C181.456 68.1459 181.516 68.168 181.561 68.2121C181.605 68.25 181.633 68.3004 181.646 68.3635C181.665 68.4203 181.658 68.4834 181.627 68.5528C181.602 68.6221 181.548 68.6821 181.466 68.7325C181.258 68.8839 181.012 69.0006 180.728 69.0826C180.444 69.1646 180.163 69.2056 179.886 69.2056ZM187.002 69.1867C186.895 69.1867 186.8 69.1583 186.718 69.1016C186.636 69.0385 186.566 68.9439 186.51 68.8177L184.873 64.995C184.829 64.9003 184.813 64.812 184.825 64.73C184.838 64.648 184.876 64.5818 184.939 64.5313C185.002 64.4809 185.09 64.4556 185.204 64.4556C185.305 64.4556 185.384 64.4777 185.44 64.5219C185.497 64.566 185.548 64.6449 185.592 64.7584L187.144 68.5528H186.888L188.468 64.7584C188.513 64.6449 188.563 64.566 188.62 64.5219C188.677 64.4777 188.759 64.4556 188.866 64.4556C188.967 64.4556 189.042 64.4809 189.093 64.5313C189.15 64.5818 189.181 64.648 189.188 64.73C189.2 64.8057 189.188 64.8909 189.15 64.9855L187.494 68.8177C187.45 68.9439 187.383 69.0385 187.295 69.1016C187.213 69.1583 187.115 69.1867 187.002 69.1867ZM192.006 69.2056C191.558 69.2056 191.17 69.1079 190.842 68.9123C190.514 68.7168 190.258 68.4424 190.075 68.0891C189.899 67.7295 189.81 67.3069 189.81 66.8212C189.81 66.4553 189.861 66.1273 189.962 65.8371C190.063 65.5406 190.211 65.2883 190.406 65.0801C190.602 64.872 190.832 64.7143 191.097 64.607C191.368 64.4935 191.671 64.4367 192.006 64.4367C192.453 64.4367 192.841 64.5345 193.169 64.73C193.497 64.9256 193.75 65.2031 193.926 65.5627C194.109 65.916 194.201 66.3354 194.201 66.8212C194.201 67.187 194.15 67.5151 194.049 67.8052C193.948 68.0954 193.8 68.3477 193.605 68.5622C193.409 68.7704 193.176 68.9312 192.904 69.0448C192.64 69.152 192.34 69.2056 192.006 69.2056ZM192.006 68.5906C192.289 68.5906 192.539 68.5212 192.753 68.3824C192.968 68.2437 193.132 68.0418 193.245 67.7769C193.365 67.5119 193.425 67.1934 193.425 66.8212C193.425 66.2471 193.296 65.8087 193.037 65.5059C192.785 65.2031 192.441 65.0517 192.006 65.0517C191.715 65.0517 191.463 65.1211 191.249 65.2599C191.04 65.3924 190.876 65.5911 190.757 65.856C190.643 66.1147 190.586 66.4364 190.586 66.8212C190.586 67.3889 190.716 67.8273 190.974 68.1364C191.233 68.4392 191.577 68.5906 192.006 68.5906ZM197.301 69.2056C196.841 69.2056 196.443 69.1047 196.109 68.9029C195.775 68.701 195.516 68.4203 195.333 68.0607C195.156 67.6948 195.068 67.2722 195.068 66.7928C195.068 66.4269 195.119 66.0989 195.22 65.8087C195.32 65.5185 195.469 65.2725 195.664 65.0707C195.86 64.8625 196.093 64.7048 196.364 64.5976C196.642 64.4903 196.954 64.4367 197.301 64.4367C197.528 64.4367 197.765 64.4714 198.011 64.5408C198.257 64.6102 198.481 64.73 198.683 64.9003C198.746 64.9445 198.787 64.9981 198.806 65.0612C198.825 65.1243 198.825 65.1874 198.806 65.2504C198.787 65.3072 198.755 65.3577 198.711 65.4018C198.667 65.4397 198.61 65.4618 198.541 65.4681C198.478 65.4744 198.411 65.4523 198.342 65.4018C198.178 65.2757 198.011 65.1874 197.841 65.1369C197.67 65.0864 197.506 65.0612 197.349 65.0612C197.103 65.0612 196.888 65.1022 196.705 65.1842C196.522 65.2599 196.368 65.3703 196.241 65.5154C196.115 65.6605 196.018 65.8403 195.948 66.0547C195.885 66.2692 195.854 66.5184 195.854 66.8022C195.854 67.3511 195.983 67.7863 196.241 68.108C196.5 68.4234 196.869 68.5811 197.349 68.5811C197.506 68.5811 197.667 68.5559 197.831 68.5054C198.001 68.455 198.172 68.3667 198.342 68.2405C198.411 68.19 198.478 68.168 198.541 68.1743C198.604 68.1806 198.657 68.2058 198.702 68.25C198.746 68.2878 198.774 68.3383 198.787 68.4014C198.806 68.4644 198.806 68.5275 198.787 68.5906C198.768 68.6474 198.727 68.6978 198.664 68.742C198.462 68.906 198.241 69.0259 198.001 69.1016C197.762 69.1709 197.528 69.2056 197.301 69.2056ZM201.712 69.2056C201.226 69.2056 200.807 69.111 200.453 68.9218C200.106 68.7262 199.835 68.4518 199.64 68.0986C199.45 67.7453 199.356 67.3227 199.356 66.8306C199.356 66.3512 199.45 65.9349 199.64 65.5816C199.829 65.2221 200.087 64.9413 200.416 64.7395C200.75 64.5376 201.135 64.4367 201.57 64.4367C201.879 64.4367 202.157 64.4903 202.403 64.5976C202.649 64.6985 202.857 64.8467 203.027 65.0423C203.204 65.2378 203.336 65.4744 203.425 65.7519C203.519 66.0295 203.566 66.3418 203.566 66.6887C203.566 66.7896 203.538 66.8653 203.481 66.9158C203.425 66.9599 203.343 66.982 203.235 66.982H199.942V66.4805H203.055L202.904 66.6035C202.904 66.2629 202.854 65.9759 202.753 65.7425C202.652 65.5028 202.504 65.3198 202.308 65.1937C202.119 65.0675 201.879 65.0044 201.589 65.0044C201.267 65.0044 200.993 65.0801 200.766 65.2315C200.545 65.3766 200.378 65.5816 200.264 65.8466C200.151 66.1052 200.094 66.408 200.094 66.7549V66.8117C200.094 67.3921 200.233 67.8336 200.51 68.1364C200.794 68.4392 201.195 68.5906 201.712 68.5906C201.926 68.5906 202.138 68.5622 202.346 68.5054C202.56 68.4487 202.768 68.354 202.97 68.2216C203.059 68.1648 203.137 68.1396 203.207 68.1459C203.283 68.1459 203.343 68.168 203.387 68.2121C203.431 68.25 203.459 68.3004 203.472 68.3635C203.491 68.4203 203.484 68.4834 203.453 68.5528C203.428 68.6221 203.374 68.6821 203.292 68.7325C203.084 68.8839 202.838 69.0006 202.554 69.0826C202.27 69.1646 201.989 69.2056 201.712 69.2056ZM202.819 63.6135C202.857 63.6892 202.863 63.7586 202.838 63.8217C202.819 63.8784 202.781 63.9194 202.724 63.9447C202.674 63.9699 202.617 63.9794 202.554 63.9731C202.497 63.9604 202.45 63.9226 202.412 63.8595L201.57 62.5064L200.728 63.8595C200.69 63.9226 200.639 63.9604 200.576 63.9731C200.52 63.9794 200.463 63.9699 200.406 63.9447C200.356 63.9194 200.318 63.8784 200.292 63.8217C200.274 63.7586 200.283 63.6892 200.321 63.6135L201.106 62.1752C201.163 62.0743 201.229 61.9986 201.305 61.9481C201.381 61.8977 201.469 61.8724 201.57 61.8724C201.671 61.8724 201.759 61.8977 201.835 61.9481C201.911 61.9986 201.977 62.0743 202.034 62.1752L202.819 63.6135ZM209.187 69.2056C208.702 69.2056 208.282 69.111 207.929 68.9218C207.582 68.7262 207.311 68.4518 207.115 68.0986C206.926 67.7453 206.831 67.3227 206.831 66.8306C206.831 66.3512 206.926 65.9349 207.115 65.5816C207.304 65.2221 207.563 64.9413 207.891 64.7395C208.225 64.5376 208.61 64.4367 209.045 64.4367C209.355 64.4367 209.632 64.4903 209.878 64.5976C210.124 64.6985 210.332 64.8467 210.503 65.0423C210.679 65.2378 210.812 65.4744 210.9 65.7519C210.995 66.0295 211.042 66.3418 211.042 66.6887C211.042 66.7896 211.014 66.8653 210.957 66.9158C210.9 66.9599 210.818 66.982 210.711 66.982H207.418V66.4805H210.531L210.38 66.6035C210.38 66.2629 210.329 65.9759 210.228 65.7425C210.127 65.5028 209.979 65.3198 209.784 65.1937C209.594 65.0675 209.355 65.0044 209.064 65.0044C208.743 65.0044 208.468 65.0801 208.241 65.2315C208.02 65.3766 207.853 65.5816 207.74 65.8466C207.626 66.1052 207.569 66.408 207.569 66.7549V66.8117C207.569 67.3921 207.708 67.8336 207.986 68.1364C208.27 68.4392 208.67 68.5906 209.187 68.5906C209.402 68.5906 209.613 68.5622 209.821 68.5054C210.036 68.4487 210.244 68.354 210.446 68.2216C210.534 68.1648 210.613 68.1396 210.682 68.1459C210.758 68.1459 210.818 68.168 210.862 68.2121C210.906 68.25 210.935 68.3004 210.947 68.3635C210.966 68.4203 210.96 68.4834 210.928 68.5528C210.903 68.6221 210.85 68.6821 210.768 68.7325C210.559 68.8839 210.313 69.0006 210.03 69.0826C209.746 69.1646 209.465 69.2056 209.187 69.2056ZM213.703 69.2056C213.419 69.2056 213.132 69.1709 212.842 69.1016C212.558 69.0322 212.293 68.9123 212.047 68.742C211.984 68.6978 211.94 68.6474 211.915 68.5906C211.889 68.5275 211.88 68.4676 211.886 68.4108C211.899 68.3477 211.924 68.2941 211.962 68.25C212.006 68.2058 212.057 68.1806 212.113 68.1743C212.176 68.1616 212.246 68.1743 212.322 68.2121C212.568 68.3635 212.804 68.4707 213.031 68.5338C213.265 68.5906 213.495 68.619 213.722 68.619C214.082 68.619 214.353 68.5528 214.536 68.4203C214.719 68.2878 214.81 68.108 214.81 67.8809C214.81 67.7043 214.75 67.5655 214.63 67.4646C214.511 67.3574 214.321 67.2754 214.063 67.2186L213.202 67.0293C212.804 66.9473 212.508 66.8054 212.312 66.6035C212.123 66.4017 212.028 66.1399 212.028 65.8182C212.028 65.5343 212.101 65.2915 212.246 65.0896C212.397 64.8814 212.609 64.7206 212.88 64.607C213.151 64.4935 213.467 64.4367 213.826 64.4367C214.104 64.4367 214.365 64.4745 214.611 64.5502C214.864 64.6196 215.091 64.7332 215.293 64.8909C215.356 64.935 215.397 64.9887 215.416 65.0517C215.441 65.1085 215.444 65.1684 215.425 65.2315C215.413 65.2883 215.384 65.3388 215.34 65.3829C215.296 65.4208 215.242 65.4428 215.179 65.4492C215.116 65.4555 215.05 65.4365 214.98 65.3924C214.791 65.2662 214.599 65.1747 214.403 65.118C214.208 65.0549 214.015 65.0234 213.826 65.0234C213.473 65.0234 213.205 65.0927 213.022 65.2315C212.839 65.3703 212.747 65.5532 212.747 65.7803C212.747 65.957 212.804 66.102 212.918 66.2156C213.031 66.3291 213.208 66.4111 213.448 66.4616L214.309 66.6414C214.719 66.7297 215.025 66.8716 215.226 67.0672C215.435 67.2564 215.539 67.5151 215.539 67.8431C215.539 68.2594 215.372 68.5906 215.037 68.8366C214.703 69.0826 214.258 69.2056 213.703 69.2056ZM218.506 69.2056C218.146 69.2056 217.843 69.1426 217.597 69.0164C217.358 68.8839 217.178 68.6947 217.058 68.4487C216.938 68.1963 216.878 67.8904 216.878 67.5308V65.118H216.244C216.137 65.118 216.055 65.0927 215.998 65.0423C215.941 64.9855 215.913 64.9098 215.913 64.8152C215.913 64.7206 215.941 64.648 215.998 64.5976C216.055 64.5471 216.137 64.5219 216.244 64.5219H216.878V63.4337C216.878 63.3075 216.913 63.2129 216.982 63.1498C217.052 63.0805 217.146 63.0458 217.266 63.0458C217.386 63.0458 217.478 63.0805 217.541 63.1498C217.61 63.2129 217.645 63.3075 217.645 63.4337V64.5219H218.837C218.944 64.5219 219.026 64.5471 219.083 64.5976C219.14 64.648 219.168 64.7206 219.168 64.8152C219.168 64.9098 219.14 64.9855 219.083 65.0423C219.026 65.0927 218.944 65.118 218.837 65.118H217.645V67.4551C217.645 67.8147 217.72 68.0891 217.872 68.2783C218.023 68.4613 218.269 68.5528 218.61 68.5528C218.73 68.5528 218.831 68.5401 218.913 68.5149C219.001 68.4897 219.074 68.4771 219.13 68.4771C219.187 68.4707 219.234 68.4897 219.272 68.5338C219.31 68.578 219.329 68.6537 219.329 68.7609C219.329 68.8366 219.313 68.906 219.282 68.9691C219.256 69.0322 219.209 69.0763 219.14 69.1016C219.064 69.1268 218.963 69.1489 218.837 69.1678C218.717 69.193 218.607 69.2056 218.506 69.2056ZM220.403 69.1678C220.277 69.1678 220.182 69.1331 220.119 69.0637C220.056 68.988 220.024 68.8839 220.024 68.7515V64.8814C220.024 64.749 220.056 64.648 220.119 64.5786C220.182 64.5092 220.277 64.4745 220.403 64.4745C220.523 64.4745 220.617 64.5092 220.687 64.5786C220.756 64.648 220.791 64.749 220.791 64.8814V68.7515C220.791 68.8839 220.756 68.988 220.687 69.0637C220.623 69.1331 220.529 69.1678 220.403 69.1678ZM220.403 63.4148C220.245 63.4148 220.122 63.3738 220.034 63.2918C219.945 63.2035 219.901 63.0868 219.901 62.9417C219.901 62.7903 219.945 62.6767 220.034 62.601C220.122 62.519 220.245 62.478 220.403 62.478C220.567 62.478 220.69 62.519 220.772 62.601C220.86 62.6767 220.904 62.7903 220.904 62.9417C220.904 63.0868 220.86 63.2035 220.772 63.2918C220.69 63.3738 220.567 63.4148 220.403 63.4148ZM223.936 69.1867C223.829 69.1867 223.734 69.1583 223.652 69.1016C223.57 69.0385 223.501 68.9439 223.444 68.8177L221.807 64.995C221.763 64.9003 221.747 64.812 221.76 64.73C221.772 64.648 221.81 64.5818 221.873 64.5313C221.936 64.4809 222.025 64.4556 222.138 64.4556C222.239 64.4556 222.318 64.4777 222.375 64.5219C222.432 64.566 222.482 64.6449 222.526 64.7584L224.078 68.5528H223.823L225.403 64.7584C225.447 64.6449 225.497 64.566 225.554 64.5219C225.611 64.4777 225.693 64.4556 225.8 64.4556C225.901 64.4556 225.977 64.4809 226.027 64.5313C226.084 64.5818 226.116 64.648 226.122 64.73C226.134 64.8057 226.122 64.8909 226.084 64.9855L224.428 68.8177C224.384 68.9439 224.318 69.0385 224.229 69.1016C224.147 69.1583 224.05 69.1867 223.936 69.1867ZM229.101 69.2056C228.615 69.2056 228.196 69.111 227.842 68.9218C227.495 68.7262 227.224 68.4518 227.028 68.0986C226.839 67.7453 226.745 67.3227 226.745 66.8306C226.745 66.3512 226.839 65.9349 227.028 65.5816C227.218 65.2221 227.476 64.9413 227.804 64.7395C228.139 64.5376 228.524 64.4367 228.959 64.4367C229.268 64.4367 229.545 64.4903 229.791 64.5976C230.037 64.6985 230.246 64.8467 230.416 65.0423C230.593 65.2378 230.725 65.4744 230.813 65.7519C230.908 66.0295 230.955 66.3418 230.955 66.6887C230.955 66.7896 230.927 66.8653 230.87 66.9158C230.813 66.9599 230.731 66.982 230.624 66.982H227.331V66.4805H230.444L230.293 66.6035C230.293 66.2629 230.243 65.9759 230.142 65.7425C230.041 65.5028 229.892 65.3198 229.697 65.1937C229.508 65.0675 229.268 65.0044 228.978 65.0044C228.656 65.0044 228.382 65.0801 228.154 65.2315C227.934 65.3766 227.767 65.5816 227.653 65.8466C227.539 66.1052 227.483 66.408 227.483 66.7549V66.8117C227.483 67.3921 227.621 67.8336 227.899 68.1364C228.183 68.4392 228.583 68.5906 229.101 68.5906C229.315 68.5906 229.527 68.5622 229.735 68.5054C229.949 68.4487 230.157 68.354 230.359 68.2216C230.448 68.1648 230.526 68.1396 230.596 68.1459C230.671 68.1459 230.731 68.168 230.776 68.2121C230.82 68.25 230.848 68.3004 230.861 68.3635C230.88 68.4203 230.873 68.4834 230.842 68.5528C230.817 68.6221 230.763 68.6821 230.681 68.7325C230.473 68.8839 230.227 69.0006 229.943 69.0826C229.659 69.1646 229.378 69.2056 229.101 69.2056ZM232.453 69.1867C232.326 69.1867 232.229 69.152 232.159 69.0826C232.096 69.0132 232.065 68.9155 232.065 68.7893V64.8436C232.065 64.7174 232.096 64.6228 232.159 64.5597C232.222 64.4903 232.314 64.4556 232.434 64.4556C232.553 64.4556 232.645 64.4903 232.708 64.5597C232.777 64.6228 232.812 64.7174 232.812 64.8436V65.61H232.717C232.818 65.2378 233.011 64.9508 233.295 64.749C233.579 64.5471 233.929 64.4399 234.345 64.4272C234.44 64.4209 234.515 64.443 234.572 64.4935C234.629 64.5376 234.66 64.6165 234.667 64.73C234.673 64.8373 234.648 64.9224 234.591 64.9855C234.534 65.0486 234.446 65.0864 234.326 65.0991L234.175 65.118C233.746 65.1558 233.415 65.2946 233.181 65.5343C232.954 65.7677 232.84 66.0894 232.84 66.4995V68.7893C232.84 68.9155 232.806 69.0132 232.736 69.0826C232.673 69.152 232.579 69.1867 232.453 69.1867ZM235.622 69.1583C235.464 69.1583 235.338 69.111 235.243 69.0164C235.148 68.9155 235.101 68.7893 235.101 68.6379C235.101 68.4865 235.148 68.3635 235.243 68.2689C235.338 68.168 235.464 68.1175 235.622 68.1175C235.779 68.1175 235.902 68.168 235.991 68.2689C236.085 68.3635 236.133 68.4865 236.133 68.6379C236.133 68.7893 236.085 68.9155 235.991 69.0164C235.902 69.111 235.779 69.1583 235.622 69.1583Z" fill="#DF9DC0"/>
</svg>
