<svg width="36" height="47" viewBox="0 0 36 47" fill="none" xmlns="http://www.w3.org/2000/svg">
<path d="M32.1574 14.8847C33.287 16.1043 34.2641 17.4874 35.0515 19.0116C35.0653 19.0382 35.075 19.0677 35.0799 19.099C35.1048 19.2568 34.9971 19.4054 34.8396 19.4303L31.4486 19.9756C31.332 19.9997 31.2083 19.9503 31.1425 19.843C30.5767 18.9149 29.9187 18.0632 29.1843 17.2979C28.4407 16.5227 27.6175 15.8352 26.731 15.2455C25.8086 14.6316 24.8172 14.1233 23.7757 13.7316C22.7442 13.3435 21.6618 13.0694 20.5478 12.9201L20.4657 12.9087V39.9326C20.4654 40.0784 20.3559 40.2038 20.208 40.2209L19.8778 40.255L19.5476 40.2824C19.3961 40.2927 19.2319 40.3012 19.0567 40.3073C18.8722 40.3133 18.7058 40.3165 18.5583 40.3165C18.4087 40.3165 18.2423 40.313 18.0593 40.3066C17.8823 40.3002 17.7163 40.2913 17.5638 40.2802L17.2346 40.2518L16.9222 40.2191C16.7704 40.2095 16.6503 40.0833 16.6503 39.9294V12.9091L16.5682 12.9205C15.4506 13.0701 14.365 13.346 13.3299 13.7362C12.2842 14.1308 11.29 14.6419 10.3662 15.2587C9.47822 15.8516 8.65323 16.5436 7.9082 17.3238C7.17454 18.0916 6.51871 18.9444 5.95638 19.871C5.89987 19.977 5.78078 20.0403 5.65602 20.0203L2.25822 19.4701C2.22907 19.4655 2.19955 19.4562 2.17182 19.4417C2.02999 19.3691 1.97348 19.1946 2.04564 19.0524C2.83475 17.5162 3.81333 16.1242 4.94368 14.9011C6.095 13.6545 7.40628 12.5792 8.83734 11.7009C10.2805 10.8144 11.847 10.1273 13.4963 9.66378C15.1179 9.20844 16.818 8.96887 18.5583 8.96887C20.299 8.96887 21.9988 9.20844 23.6204 9.66378C25.269 10.1273 26.8358 10.8144 28.2794 11.7009C29.7022 12.5746 31.0082 13.6438 32.1574 14.8851V14.8847ZM28.975 3.15148L27.2443 8.6845L27.2318 8.71757C27.1661 8.86366 26.994 8.92835 26.8483 8.86294C26.624 8.76093 26.4061 8.66637 26.1957 8.57964C25.9881 8.49433 25.7695 8.40867 25.5406 8.32407C25.3177 8.2416 25.0881 8.16128 24.8535 8.08379C24.6153 8.00523 24.3885 7.93485 24.176 7.87265L24.1539 7.86696C24.0015 7.81933 23.9158 7.65652 23.9634 7.50367L24.7497 4.97853L24.2062 4.85732C23.8937 4.7944 23.5888 4.7361 23.2745 4.67888L22.8117 4.60388C22.4986 4.55625 22.1918 4.51536 21.8911 4.48124C21.5879 4.44712 21.2779 4.41762 20.963 4.3938C20.6392 4.36963 20.3264 4.35149 20.0271 4.34012C19.7353 4.3291 19.426 4.32342 19.0997 4.32342C18.7151 4.32342 18.343 4.3316 17.9839 4.3476C17.605 4.3643 17.2304 4.38953 16.8614 4.42223C16.4992 4.45422 16.132 4.49582 15.7613 4.54558C15.3912 4.59534 15.0294 4.65257 14.6771 4.7169C14.5015 4.74854 14.3209 4.78408 14.1358 4.82212C13.9648 4.85695 13.7895 4.89534 13.6086 4.93693C13.4511 4.97283 13.2752 5.01584 13.0822 5.0649C12.8764 5.11715 12.6954 5.16514 12.5405 5.20779L12.4655 5.22841L13.2663 7.4788C13.309 7.63271 13.2194 7.79302 13.0655 7.83603C12.8323 7.90214 12.6023 7.97182 12.3784 8.04397C12.152 8.1172 11.9259 8.19469 11.7005 8.27644C11.4759 8.35784 11.2527 8.4435 11.0319 8.53272C10.8137 8.62088 10.6004 8.71152 10.3932 8.80359L10.3523 8.82171C10.2012 8.87574 10.0356 8.79683 9.98154 8.64611L8.14813 3.52792C8.09908 3.39 8.1609 3.2343 8.29562 3.16925C9.86069 2.40857 11.4969 1.83309 13.1707 1.43783C14.8801 1.03438 16.6321 0.81933 18.3902 0.786984C20.1707 0.754282 21.9547 0.909623 23.7043 1.24731C25.4439 1.58286 27.1526 2.09933 28.7933 2.79069C28.9401 2.84188 29.0212 3.00112 28.9746 3.15076L28.975 3.15148ZM11.4684 44.6758C9.1974 43.7339 7.15283 42.3536 5.44167 40.6425C3.7305 38.9313 2.35028 36.8864 1.40832 34.6153C0.501197 32.4289 0 30.0342 0 27.5261L0.00426963 27.3985L0.0174257 27.267C0.0423076 27.1092 0.190864 27.0015 0.348687 27.0267L3.57375 27.5485C3.70989 27.5702 3.81476 27.6864 3.81796 27.829C3.85706 29.7644 4.27186 31.6107 4.99165 33.297C5.7374 35.0444 6.81231 36.6198 8.13851 37.946C9.4992 39.3067 11.1233 40.4036 12.9265 41.1515C14.6608 41.8706 16.5632 42.2683 18.5576 42.2683C18.9433 42.2683 19.3261 42.2537 19.7043 42.2242C20.0928 42.1944 20.4735 42.1499 20.8457 42.0924C21.2161 42.0348 21.5897 41.9616 21.9661 41.8727C22.3386 41.7845 22.7051 41.6825 23.0634 41.5673L23.1139 41.5514V20.9342L23.1185 20.8887C23.1434 20.7309 23.2919 20.6232 23.4498 20.6484L26.6606 21.1681C26.8106 21.1791 26.9293 21.3046 26.9293 21.4578V43.95C26.9282 44.063 26.8618 44.17 26.7512 44.2166L25.7634 44.6332C25.1922 44.8742 24.6121 45.086 24.0263 45.2666C23.4412 45.4472 22.8459 45.5989 22.2419 45.7201C21.6409 45.8414 21.0323 45.9323 20.4188 45.9928C19.7985 46.0539 19.1772 46.0848 18.5576 46.0848C16.0495 46.0848 13.6545 45.584 11.4681 44.6769L11.4684 44.6758Z" fill="url(#paint0_linear_60_166)"/>
<defs>
<linearGradient id="paint0_linear_60_166" x1="26.4589" y1="3.76581" x2="13.9021" y2="43.8706" gradientUnits="userSpaceOnUse">
<stop offset="0.574892" stop-color="#DF9DC0"/>
<stop offset="1" stop-color="#DF9DC0" stop-opacity="0.19"/>
</linearGradient>
</defs>
</svg>
