<svg width="176" height="52" viewBox="0 0 176 52" fill="none" xmlns="http://www.w3.org/2000/svg">
<path d="M43.6769 24.608H41.9627L41.9365 23.5715L41.8588 22.5492L41.7308 21.542L41.5539 20.5512L41.3292 19.5779L41.0581 18.6232L40.7418 17.6885L40.3816 16.7749L39.9787 15.8837L39.5343 15.016L39.0497 14.1734L38.5263 13.3569L37.9653 12.5678L37.3677 11.8074L36.7351 11.0771L36.0685 10.3779L35.3694 9.7114L34.639 9.07872L33.8786 8.4812L33.0895 7.92016L32.2731 7.39671L31.4304 6.91217L30.5628 6.46775L29.6716 6.06488L28.758 5.70467L27.8233 5.38833L26.8685 5.11729L25.8952 4.89254L24.9044 4.71564L23.8972 4.58767L22.875 4.50996L21.8385 4.48373V2.76953L22.9614 2.79797L24.07 2.88229L25.163 3.02106L26.2387 3.21318L27.2955 3.45711L28.3321 3.75151L29.3472 4.09497L30.3391 4.48604L31.3068 4.92352L32.2485 5.40586L33.163 5.93162L34.0491 6.4996L34.9052 7.10848L35.73 7.7567L36.5223 8.44295L37.2805 9.16591L38.0035 9.92413L38.6898 10.7164L39.338 11.5412L39.9468 12.3973L40.5148 13.2834L41.0406 14.1979L41.5229 15.1397L41.9604 16.1073L42.3515 17.0992L42.6949 18.1144L42.9893 19.1509L43.2333 20.2078L43.4254 21.2834L43.5642 22.3764L43.6485 23.485L43.6769 24.608ZM21.8385 46.4466V44.7324L22.875 44.7061L23.8972 44.6284L24.9044 44.5005L25.8952 44.3235L26.8685 44.0988L27.8233 43.8278L28.758 43.5114L29.6716 43.1512L30.5628 42.7483L31.4304 42.3039L32.2731 41.8194L33.0895 41.2959L33.8786 40.7349L34.639 40.1374L35.3694 39.5047L36.0685 38.8382L36.7351 38.139L37.3677 37.4087L37.9653 36.6482L38.5263 35.8592L39.0497 35.0427L39.5343 34.2L39.9787 33.3324L40.3816 32.4412L40.7418 31.5275L41.0581 30.5928L41.3292 29.6383L41.5539 28.6648L41.7308 27.674L41.8588 26.6669L41.9365 25.6445L41.9627 24.608H43.6769L43.6485 25.7309L43.5642 26.8397L43.4254 27.9326L43.2333 29.0082L42.9893 30.065L42.6949 31.1018L42.3515 32.1167L41.9604 33.1088L41.5229 34.0764L41.0406 35.018L40.5148 35.9327L39.9468 36.8188L39.338 37.6749L38.6898 38.4997L38.0035 39.292L37.2805 40.0502L36.5223 40.7731L35.73 41.4594L34.9052 42.1076L34.0491 42.7165L33.163 43.2845L32.2485 43.8102L31.3068 44.2926L30.3391 44.7301L29.3472 45.1211L28.3321 45.4646L27.2955 45.759L26.2387 46.0029L25.163 46.195L24.07 46.3338L22.9614 46.4181L21.8385 46.4466ZM0 24.608H1.7142L1.74043 25.6445L1.81814 26.6669L1.9461 27.674L2.12301 28.6648L2.34776 29.6383L2.6188 30.5928L2.93514 31.5275L3.29535 32.4412L3.69822 33.3324L4.14264 34.2L4.62718 35.0427L5.15063 35.8592L5.71167 36.6482L6.30919 37.4087L6.94187 38.139L7.60839 38.8382L8.30754 39.5047L9.03788 40.1374L9.79831 40.7349L10.5874 41.2959L11.4038 41.8194L12.2465 42.3039L13.1142 42.7483L14.0053 43.1512L14.919 43.5114L15.8537 43.8278L16.8084 44.0988L17.7817 44.3235L18.7725 44.5005L19.7797 44.6284L20.8019 44.7061L21.8385 44.7324V46.4466L20.7155 46.4181L19.6069 46.3338L18.5139 46.195L17.4382 46.0029L16.3814 45.759L15.3449 45.4646L14.3297 45.1211L13.3378 44.7301L12.3702 44.2926L11.4284 43.8102L10.5139 43.2845L9.62779 42.7165L8.77169 42.1076L7.94689 41.4594L7.1546 40.7731L6.39637 40.0502L5.67342 39.292L4.98717 38.4997L4.33894 37.6749L3.73007 36.8188L3.16209 35.9327L2.63632 35.018L2.15399 34.0764L1.71651 33.1088L1.32544 32.1167L0.981979 31.1018L0.687573 30.065L0.443649 29.0082L0.251528 27.9326L0.112758 26.8397L0.0284358 25.7309L0 24.608ZM21.8385 2.76953V4.48373L20.8019 4.50996L19.7797 4.58767L18.7725 4.71564L17.7817 4.89254L16.8084 5.11729L15.8537 5.38833L14.919 5.70467L14.0053 6.06488L13.1142 6.46775L12.2465 6.91217L11.4038 7.39671L10.5874 7.92016L9.79831 8.4812L9.03788 9.07872L8.30754 9.7114L7.60839 10.3779L6.94187 11.0771L6.30919 11.8074L5.71167 12.5678L5.15063 13.3569L4.62718 14.1734L4.14264 15.016L3.69822 15.8837L3.29535 16.7749L2.93514 17.6885L2.6188 18.6232L2.34776 19.5779L2.12301 20.5512L1.9461 21.542L1.81814 22.5492L1.74043 23.5715L1.7142 24.608H0L0.0284358 23.485L0.112758 22.3764L0.251528 21.2834L0.443649 20.2078L0.687573 19.1509L0.981979 18.1144L1.32544 17.0992L1.71651 16.1073L2.15399 15.1397L2.63632 14.1979L3.16209 13.2834L3.73007 12.3973L4.33894 11.5412L4.98717 10.7164L5.67342 9.92413L6.39637 9.16591L7.1546 8.44295L7.94689 7.7567L8.77169 7.10848L9.62779 6.4996L10.5139 5.93162L11.4284 5.40586L12.3702 4.92352L13.3378 4.48604L14.3297 4.09497L15.3449 3.75151L16.3814 3.45711L17.4382 3.21318L18.5139 3.02106L19.6069 2.88229L20.7155 2.79797L21.8385 2.76953Z" fill="#DF9DC0"/>
<path d="M26.359 46.4025C27.1688 48.748 29.7655 47.3519 28.5929 45.8162C25.3539 41.6836 27.6434 31.6873 30.4357 23.6735C33.306 23.1607 40.8308 28.5898 40.9355 31.2141C40.9768 32.2524 43.2274 31.8305 42.3595 29.9018C41.0742 27.0457 37.5755 22.5473 30.8824 22.4169C32.1111 18.9546 33.3955 15.9669 34.317 14.0402C36.4111 9.51671 38.1423 6.529 38.0865 6.72442C40.0131 3.59716 36.8579 2.70358 35.6572 5.16079C34.2332 8.12062 32.865 11.22 31.5806 14.4869C30.7149 16.6928 29.7935 19.3734 28.9278 22.3612C26.0519 22.4449 23.2037 22.9754 21.1934 23.4501C18.8199 24.0086 16.4465 24.8741 14.2127 25.5722C17.8984 14.3194 22.6453 3.56916 22.757 3.12243C24.6837 -0.00494134 21.5284 -0.898412 20.3278 1.5588C17.0608 8.23228 14.2965 17.4746 12.2022 26.1866C9.43792 26.9404 7.03659 27.2476 5.13788 26.2423C3.4066 24.7346 1.08904 27.7223 4.30018 28.6158C8.54433 29.9561 9.35415 34.4796 9.35415 38.9471C8.3768 44.0849 8.1256 47.9662 9.01907 49.7253C10.3594 52.6293 13.1237 51.0098 11.2529 49.139C9.94054 46.9052 9.77299 43.5824 10.5269 39.3381C11.1971 35.5406 12.3697 31.3522 13.7101 27.08C15.9719 26.2703 18.3732 25.293 20.7186 24.7066C23.2596 24.0644 25.996 23.4501 28.5929 23.5338C26.2752 31.7989 24.6557 41.5719 26.359 46.4025ZM10.2197 34.8425C9.91265 32.497 9.13072 30.3191 7.31579 28.532C8.96319 28.4483 10.3594 28.2528 11.8392 27.7223C11.2529 30.1794 10.6945 32.5807 10.2197 34.8425Z" fill="#DF9DC0" stroke="#DF9DC0" stroke-width="0.291541" stroke-miterlimit="22.9256"/>
<path d="M53.9487 34.7942C53.3552 34.7942 52.8957 34.6315 52.5702 34.306C52.2639 33.9614 52.1107 33.4923 52.1107 32.8988V15.9839C52.1107 15.3712 52.2639 14.9022 52.5702 14.5767C52.8957 14.2512 53.3552 14.0885 53.9487 14.0885C54.5422 14.0885 54.9921 14.2512 55.2984 14.5767C55.6239 14.9022 55.7866 15.3712 55.7866 15.9839V22.7613H66.2113V15.9839C66.2113 15.3712 66.3644 14.9022 66.6708 14.5767C66.9962 14.2512 67.4557 14.0885 68.0492 14.0885C68.6427 14.0885 69.0926 14.2512 69.399 14.5767C69.7244 14.9022 69.8872 15.3712 69.8872 15.9839V32.8988C69.8872 33.4923 69.7244 33.9614 69.399 34.306C69.0926 34.6315 68.6427 34.7942 68.0492 34.7942C67.4557 34.7942 66.9962 34.6315 66.6708 34.306C66.3644 33.9614 66.2113 33.4923 66.2113 32.8988V25.8342H55.7866V32.8988C55.7866 33.4923 55.6335 33.9614 55.3271 34.306C55.0208 34.6315 54.5613 34.7942 53.9487 34.7942ZM78.6013 34.8516C77.5866 34.8516 76.6772 34.6602 75.8731 34.2773C75.0881 33.8752 74.4659 33.3391 74.0064 32.6691C73.5661 31.999 73.3459 31.2427 73.3459 30.4003C73.3459 29.3665 73.6139 28.5528 74.15 27.9593C74.6861 27.3466 75.5572 26.9063 76.7634 26.6383C77.9695 26.3702 79.5873 26.2362 81.6167 26.2362H83.0526V28.3039H81.6454C80.4584 28.3039 79.5107 28.3614 78.8023 28.4762C78.094 28.5911 77.5866 28.7921 77.2803 29.0793C76.9931 29.3473 76.8495 29.7302 76.8495 30.228C76.8495 30.8598 77.0697 31.3767 77.51 31.7788C77.9504 32.1809 78.563 32.3819 79.348 32.3819C79.9798 32.3819 80.535 32.2383 81.0136 31.9511C81.5114 31.6448 81.9039 31.2332 82.1911 30.7162C82.4783 30.1993 82.6218 29.6058 82.6218 28.9357V25.6331C82.6218 24.6759 82.4112 23.9866 81.99 23.5654C81.5688 23.1442 80.8605 22.9336 79.8649 22.9336C79.3097 22.9336 78.7066 23.0006 78.0557 23.1347C77.4239 23.2687 76.7538 23.4984 76.0454 23.8239C75.6816 23.9962 75.3562 24.0441 75.069 23.9675C74.801 23.8909 74.5904 23.7377 74.4372 23.508C74.284 23.2591 74.2075 22.9911 74.2075 22.7039C74.2075 22.4167 74.284 22.1391 74.4372 21.8711C74.5904 21.5839 74.8488 21.3733 75.2126 21.2393C76.0933 20.8755 76.9357 20.6171 77.7398 20.4639C78.563 20.3107 79.3097 20.2341 79.9798 20.2341C81.3582 20.2341 82.4878 20.4447 83.3685 20.8659C84.2683 21.2871 84.9384 21.9285 85.3788 22.79C85.8191 23.6324 86.0393 24.7237 86.0393 26.0639V32.9562C86.0393 33.5497 85.8957 34.0092 85.6085 34.3347C85.3213 34.641 84.9097 34.7942 84.3736 34.7942C83.8376 34.7942 83.4164 34.641 83.1101 34.3347C82.8229 34.0092 82.6793 33.5497 82.6793 32.9562V31.5778H82.909C82.775 32.2479 82.507 32.8318 82.1049 33.3296C81.722 33.8082 81.2338 34.1815 80.6403 34.4496C80.0468 34.7176 79.3671 34.8516 78.6013 34.8516ZM81.4731 18.4823C81.2817 18.7504 81.0519 18.9035 80.7839 18.9418C80.5159 18.9801 80.2574 18.9323 80.0085 18.7982C79.7596 18.6642 79.5777 18.4728 79.4629 18.2239C79.3671 17.975 79.3958 17.6974 79.549 17.3911L81.7316 13.1121C81.9039 12.7483 82.1336 12.5186 82.4208 12.4228C82.708 12.308 83.0048 12.2888 83.3111 12.3654C83.6174 12.442 83.8759 12.5856 84.0865 12.7962C84.3162 13.0068 84.4502 13.2652 84.4885 13.5716C84.546 13.8587 84.4694 14.1555 84.2588 14.4618L81.4731 18.4823ZM97.7814 34.8516C96.5944 34.8516 95.551 34.5549 94.6511 33.9614C93.7704 33.3679 93.1865 32.5733 92.8993 31.5778L93.2152 30.8598V32.9562C93.2152 33.5497 93.0621 34.0092 92.7557 34.3347C92.4494 34.641 92.0186 34.7942 91.4634 34.7942C90.8891 34.7942 90.4487 34.641 90.1424 34.3347C89.8361 34.0092 89.6829 33.5497 89.6829 32.9562V15.8977C89.6829 15.3042 89.8361 14.8543 90.1424 14.548C90.4487 14.2416 90.8891 14.0885 91.4634 14.0885C92.0378 14.0885 92.4781 14.2416 92.7844 14.548C93.1099 14.8543 93.2727 15.3042 93.2727 15.8977V23.3644H92.928C93.2344 22.4263 93.8279 21.67 94.7086 21.0957C95.5892 20.5213 96.6135 20.2341 97.7814 20.2341C99.0258 20.2341 100.108 20.5309 101.027 21.1244C101.946 21.7179 102.663 22.5603 103.18 23.6516C103.697 24.7237 103.956 26.016 103.956 27.5285C103.956 29.0219 103.697 30.3238 103.18 31.4342C102.663 32.5255 101.936 33.3679 100.998 33.9614C100.079 34.5549 99.0067 34.8516 97.7814 34.8516ZM96.7763 32.1234C97.4846 32.1234 98.1069 31.9511 98.6429 31.6065C99.179 31.2619 99.5906 30.7545 99.8778 30.0844C100.184 29.3952 100.337 28.5432 100.337 27.5285C100.337 25.9969 100.012 24.8577 99.3609 24.1111C98.7099 23.3453 97.8484 22.9624 96.7763 22.9624C96.0679 22.9624 95.4457 23.1347 94.9096 23.4793C94.3735 23.8048 93.9523 24.3121 93.646 25.0013C93.3588 25.6714 93.2152 26.5138 93.2152 27.5285C93.2152 29.041 93.5407 30.1897 94.1916 30.9747C94.8426 31.7405 95.7041 32.1234 96.7763 32.1234ZM108.683 34.7655C108.109 34.7655 107.668 34.5932 107.362 34.2486C107.056 33.9039 106.903 33.4253 106.903 32.8127V22.2731C106.903 21.6413 107.056 21.1627 107.362 20.8372C107.668 20.4926 108.109 20.3203 108.683 20.3203C109.257 20.3203 109.698 20.4926 110.004 20.8372C110.33 21.1627 110.492 21.6413 110.492 22.2731V32.8127C110.492 33.4253 110.339 33.9039 110.033 34.2486C109.726 34.5932 109.277 34.7655 108.683 34.7655ZM108.683 17.6495C108.013 17.6495 107.486 17.4868 107.104 17.1613C106.74 16.8167 106.558 16.3476 106.558 15.7541C106.558 15.1415 106.74 14.6724 107.104 14.3469C107.486 14.0215 108.013 13.8587 108.683 13.8587C109.372 13.8587 109.899 14.0215 110.263 14.3469C110.626 14.6724 110.808 15.1415 110.808 15.7541C110.808 16.3476 110.626 16.8167 110.263 17.1613C109.899 17.4868 109.372 17.6495 108.683 17.6495ZM120.655 34.8516C119.411 34.8516 118.367 34.641 117.525 34.2198C116.702 33.7986 116.089 33.186 115.687 32.3819C115.285 31.5586 115.084 30.5439 115.084 29.3378V23.2208H113.59C113.131 23.2208 112.777 23.1059 112.528 22.8762C112.279 22.6273 112.155 22.2923 112.155 21.8711C112.155 21.4307 112.279 21.0957 112.528 20.8659C112.777 20.6362 113.131 20.5213 113.59 20.5213H115.084V17.908C115.084 17.3145 115.237 16.8646 115.543 16.5582C115.869 16.2519 116.319 16.0987 116.893 16.0987C117.467 16.0987 117.908 16.2519 118.214 16.5582C118.52 16.8646 118.674 17.3145 118.674 17.908V20.5213H121.718C122.177 20.5213 122.531 20.6362 122.78 20.8659C123.029 21.0957 123.154 21.4307 123.154 21.8711C123.154 22.2923 123.029 22.6273 122.78 22.8762C122.531 23.1059 122.177 23.2208 121.718 23.2208H118.674V29.1367C118.674 30.0557 118.875 30.745 119.277 31.2044C119.679 31.6639 120.33 31.8937 121.229 31.8937C121.555 31.8937 121.842 31.865 122.091 31.8075C122.34 31.7501 122.56 31.7118 122.752 31.6926C122.981 31.6735 123.173 31.7501 123.326 31.9224C123.479 32.0756 123.556 32.401 123.556 32.8988C123.556 33.2817 123.489 33.6263 123.355 33.9327C123.24 34.2198 123.02 34.4209 122.694 34.5357C122.445 34.6123 122.12 34.6793 121.718 34.7368C121.316 34.8133 120.961 34.8516 120.655 34.8516ZM131.508 34.8516C130.053 34.8516 128.789 34.5549 127.717 33.9614C126.645 33.3679 125.812 32.5255 125.219 31.4342C124.625 30.3238 124.328 29.0219 124.328 27.5285C124.328 26.399 124.491 25.3938 124.817 24.5131C125.161 23.6133 125.649 22.8475 126.281 22.2157C126.913 21.5647 127.669 21.0765 128.55 20.7511C129.431 20.4065 130.417 20.2341 131.508 20.2341C132.963 20.2341 134.226 20.5309 135.299 21.1244C136.371 21.7179 137.204 22.5603 137.797 23.6516C138.391 24.7429 138.687 26.0352 138.687 27.5285C138.687 28.6581 138.515 29.6728 138.17 30.5726C137.845 31.4725 137.366 32.2479 136.735 32.8988C136.103 33.5306 135.346 34.0188 134.466 34.3634C133.585 34.6889 132.599 34.8516 131.508 34.8516ZM131.508 32.1234C132.216 32.1234 132.838 31.9511 133.375 31.6065C133.911 31.2619 134.322 30.7545 134.609 30.0844C134.916 29.3952 135.069 28.5432 135.069 27.5285C135.069 25.9969 134.743 24.8577 134.092 24.1111C133.442 23.3453 132.58 22.9624 131.508 22.9624C130.799 22.9624 130.177 23.1347 129.641 23.4793C129.105 23.8048 128.684 24.3121 128.378 25.0013C128.09 25.6714 127.947 26.5138 127.947 27.5285C127.947 29.041 128.272 30.1897 128.923 30.9747C129.574 31.7405 130.436 32.1234 131.508 32.1234ZM143.89 34.7942C143.297 34.7942 142.828 34.6315 142.483 34.306C142.158 33.9614 141.995 33.4732 141.995 32.8414V16.2711C141.995 15.6393 142.158 15.1606 142.483 14.8351C142.828 14.4905 143.316 14.3182 143.948 14.3182H153.97C154.468 14.3182 154.841 14.4427 155.09 14.6916C155.339 14.9404 155.464 15.2946 155.464 15.7541C155.464 16.2328 155.339 16.6061 155.09 16.8741C154.841 17.123 154.468 17.2475 153.97 17.2475H145.671V22.9624H153.367C153.846 22.9624 154.21 23.0868 154.458 23.3357C154.727 23.5846 154.861 23.9388 154.861 24.3983C154.861 24.8769 154.727 25.2502 154.458 25.5183C154.21 25.7672 153.846 25.8916 153.367 25.8916H145.671V32.8414C145.671 34.1433 145.077 34.7942 143.89 34.7942ZM160.706 34.7655C160.132 34.7655 159.692 34.5932 159.385 34.2486C159.079 33.9039 158.926 33.4253 158.926 32.8127V22.2731C158.926 21.6413 159.079 21.1627 159.385 20.8372C159.692 20.4926 160.132 20.3203 160.706 20.3203C161.281 20.3203 161.721 20.4926 162.027 20.8372C162.353 21.1627 162.516 21.6413 162.516 22.2731V32.8127C162.516 33.4253 162.363 33.9039 162.056 34.2486C161.75 34.5932 161.3 34.7655 160.706 34.7655ZM160.706 17.6495C160.036 17.6495 159.51 17.4868 159.127 17.1613C158.763 16.8167 158.581 16.3476 158.581 15.7541C158.581 15.1415 158.763 14.6724 159.127 14.3469C159.51 14.0215 160.036 13.8587 160.706 13.8587C161.396 13.8587 161.922 14.0215 162.286 14.3469C162.65 14.6724 162.832 15.1415 162.832 15.7541C162.832 16.3476 162.65 16.8167 162.286 17.1613C161.922 17.4868 161.396 17.6495 160.706 17.6495ZM172.679 34.8516C171.434 34.8516 170.391 34.641 169.548 34.2198C168.725 33.7986 168.112 33.186 167.71 32.3819C167.308 31.5586 167.107 30.5439 167.107 29.3378V23.2208H165.614C165.154 23.2208 164.8 23.1059 164.551 22.8762C164.302 22.6273 164.178 22.2923 164.178 21.8711C164.178 21.4307 164.302 21.0957 164.551 20.8659C164.8 20.6362 165.154 20.5213 165.614 20.5213H167.107V17.908C167.107 17.3145 167.26 16.8646 167.567 16.5582C167.892 16.2519 168.342 16.0987 168.916 16.0987C169.491 16.0987 169.931 16.2519 170.237 16.5582C170.544 16.8646 170.697 17.3145 170.697 17.908V20.5213H173.741C174.201 20.5213 174.555 20.6362 174.804 20.8659C175.053 21.0957 175.177 21.4307 175.177 21.8711C175.177 22.2923 175.053 22.6273 174.804 22.8762C174.555 23.1059 174.201 23.2208 173.741 23.2208H170.697V29.1367C170.697 30.0557 170.898 30.745 171.3 31.2044C171.702 31.6639 172.353 31.8937 173.253 31.8937C173.578 31.8937 173.866 31.865 174.114 31.8075C174.363 31.7501 174.583 31.7118 174.775 31.6926C175.005 31.6735 175.196 31.7501 175.349 31.9224C175.502 32.0756 175.579 32.401 175.579 32.8988C175.579 33.2817 175.512 33.6263 175.378 33.9327C175.263 34.2198 175.043 34.4209 174.718 34.5357C174.469 34.6123 174.143 34.6793 173.741 34.7368C173.339 34.8133 172.985 34.8516 172.679 34.8516Z" fill="white"/>
<path d="M75.3919 43.604C75.203 43.604 75.0182 43.588 74.8374 43.5558C74.6566 43.5237 74.4878 43.4775 74.3311 43.4172C74.1785 43.3569 74.0398 43.2806 73.9153 43.1882C73.8671 43.152 73.8329 43.1119 73.8128 43.0677C73.7968 43.0194 73.7927 42.9732 73.8008 42.929C73.8128 42.8808 73.8329 42.8407 73.861 42.8085C73.8932 42.7764 73.9314 42.7583 73.9756 42.7543C74.0198 42.7502 74.068 42.7643 74.1202 42.7965C74.301 42.925 74.4939 43.0194 74.6988 43.0797C74.9037 43.136 75.1347 43.1641 75.3919 43.1641C75.7535 43.1641 76.0207 43.0978 76.1934 42.9652C76.3702 42.8286 76.4586 42.6498 76.4586 42.4288C76.4586 42.248 76.3943 42.1074 76.2658 42.0069C76.1412 41.9025 75.9303 41.8201 75.6329 41.7598L75.0061 41.6333C74.6285 41.5529 74.3452 41.4223 74.1564 41.2415C73.9715 41.0567 73.8791 40.8116 73.8791 40.5063C73.8791 40.3174 73.9173 40.1467 73.9936 39.994C74.07 39.8373 74.1765 39.7047 74.3131 39.5962C74.4497 39.4837 74.6124 39.3973 74.8012 39.3371C74.9901 39.2768 75.199 39.2467 75.428 39.2467C75.6812 39.2467 75.9162 39.2828 76.1332 39.3552C76.3542 39.4235 76.553 39.5279 76.7298 39.6685C76.774 39.7047 76.8042 39.7469 76.8202 39.7951C76.8363 39.8393 76.8383 39.8835 76.8263 39.9277C76.8142 39.9679 76.7921 40.002 76.76 40.0302C76.7318 40.0583 76.6937 40.0744 76.6455 40.0784C76.6013 40.0824 76.551 40.0663 76.4948 40.0302C76.3341 39.9096 76.1673 39.8232 75.9946 39.771C75.8218 39.7148 75.6309 39.6866 75.422 39.6866C75.2091 39.6866 75.0242 39.7188 74.8675 39.7831C74.7149 39.8473 74.5943 39.9418 74.5059 40.0663C74.4215 40.1869 74.3794 40.3275 74.3794 40.4882C74.3794 40.681 74.4376 40.8337 74.5541 40.9462C74.6747 41.0587 74.8695 41.1411 75.1387 41.1933L75.7655 41.3259C76.1713 41.4103 76.4707 41.5389 76.6635 41.7116C76.8604 41.8804 76.9589 42.1114 76.9589 42.4047C76.9589 42.5815 76.9227 42.7442 76.8504 42.8929C76.778 43.0415 76.6736 43.1701 76.537 43.2786C76.4004 43.3831 76.2356 43.4634 76.0428 43.5197C75.8499 43.5759 75.6329 43.604 75.3919 43.604ZM78.9793 43.604C78.6699 43.604 78.4027 43.5438 78.1777 43.4232C77.9567 43.2987 77.7839 43.1239 77.6594 42.8989C77.5388 42.6739 77.4786 42.4047 77.4786 42.0913C77.4786 41.786 77.5388 41.5208 77.6594 41.2958C77.7799 41.0668 77.9447 40.888 78.1536 40.7594C78.3665 40.6308 78.6116 40.5665 78.8889 40.5665C79.0857 40.5665 79.2625 40.6007 79.4192 40.669C79.5759 40.7333 79.7085 40.8277 79.817 40.9523C79.9295 41.0768 80.0139 41.2275 80.0701 41.4043C80.1304 41.5811 80.1605 41.7799 80.1605 42.0009C80.1605 42.0652 80.1424 42.1134 80.1063 42.1456C80.0701 42.1737 80.0179 42.1877 79.9496 42.1877H77.8522V41.8683H79.8351L79.7386 41.9467C79.7386 41.7297 79.7065 41.5469 79.6422 41.3982C79.5779 41.2456 79.4835 41.129 79.359 41.0487C79.2384 40.9683 79.0857 40.9281 78.9009 40.9281C78.696 40.9281 78.5212 40.9764 78.3766 41.0728C78.2359 41.1652 78.1295 41.2958 78.0572 41.4645C77.9848 41.6293 77.9487 41.8221 77.9487 42.0431V42.0793C77.9487 42.4489 78.0371 42.7302 78.2139 42.923C78.3947 43.1159 78.6498 43.2123 78.9793 43.2123C79.1159 43.2123 79.2505 43.1942 79.3831 43.1581C79.5197 43.1219 79.6523 43.0616 79.7808 42.9773C79.8371 42.9411 79.8873 42.925 79.9315 42.929C79.9797 42.929 80.0179 42.9431 80.046 42.9712C80.0741 42.9953 80.0922 43.0275 80.1003 43.0677C80.1123 43.1038 80.1083 43.144 80.0882 43.1882C80.0721 43.2324 80.038 43.2706 79.9857 43.3027C79.8532 43.3991 79.6965 43.4735 79.5157 43.5257C79.3348 43.5779 79.156 43.604 78.9793 43.604ZM81.9037 43.604C81.6666 43.604 81.4697 43.5619 81.313 43.4775C81.1603 43.3891 81.0438 43.2585 80.9635 43.0857C80.8871 42.913 80.849 42.698 80.849 42.4409V40.8257C80.849 40.7413 80.869 40.679 80.9092 40.6389C80.9534 40.5987 81.0137 40.5786 81.09 40.5786C81.1704 40.5786 81.2307 40.5987 81.2708 40.6389C81.315 40.679 81.3371 40.7413 81.3371 40.8257V42.4348C81.3371 42.692 81.3894 42.8848 81.4938 43.0134C81.6023 43.138 81.7711 43.2003 82.0001 43.2003C82.2492 43.2003 82.4521 43.1159 82.6088 42.9471C82.7655 42.7784 82.8438 42.5574 82.8438 42.2842V40.8257C82.8438 40.7413 82.8639 40.679 82.9041 40.6389C82.9483 40.5987 83.0106 40.5786 83.0909 40.5786C83.1673 40.5786 83.2255 40.5987 83.2657 40.6389C83.3099 40.679 83.332 40.7413 83.332 40.8257V43.3389C83.332 43.5076 83.2537 43.592 83.097 43.592C83.0206 43.592 82.9604 43.5699 82.9162 43.5257C82.876 43.4815 82.8559 43.4192 82.8559 43.3389V42.7904L82.9342 42.8748C82.8539 43.1119 82.7213 43.2927 82.5365 43.4172C82.3557 43.5418 82.1447 43.604 81.9037 43.604ZM86.9744 43.604C86.7454 43.604 86.5525 43.5639 86.3958 43.4835C86.2431 43.3991 86.1286 43.2786 86.0523 43.1219C85.976 42.9612 85.9378 42.7663 85.9378 42.5373V41.0005H85.534C85.4657 41.0005 85.4135 40.9844 85.3773 40.9523C85.3411 40.9161 85.323 40.8679 85.323 40.8076C85.323 40.7473 85.3411 40.7011 85.3773 40.669C85.4135 40.6369 85.4657 40.6208 85.534 40.6208H85.9378V39.9277C85.9378 39.8473 85.9599 39.7871 86.0041 39.7469C86.0483 39.7027 86.1085 39.6806 86.1849 39.6806C86.2612 39.6806 86.3195 39.7027 86.3597 39.7469C86.4039 39.7871 86.426 39.8473 86.426 39.9277V40.6208H87.1853C87.2537 40.6208 87.3059 40.6369 87.342 40.669C87.3782 40.7011 87.3963 40.7473 87.3963 40.8076C87.3963 40.8679 87.3782 40.9161 87.342 40.9523C87.3059 40.9844 87.2537 41.0005 87.1853 41.0005H86.426V42.4891C86.426 42.7181 86.4742 42.8929 86.5706 43.0134C86.667 43.1299 86.8237 43.1882 87.0407 43.1882C87.117 43.1882 87.1813 43.1802 87.2336 43.1641C87.2898 43.148 87.336 43.14 87.3722 43.14C87.4083 43.136 87.4385 43.148 87.4626 43.1761C87.4867 43.2043 87.4987 43.2525 87.4987 43.3208C87.4987 43.369 87.4887 43.4132 87.4686 43.4534C87.4525 43.4936 87.4224 43.5217 87.3782 43.5378C87.33 43.5538 87.2657 43.5679 87.1853 43.5799C87.109 43.596 87.0387 43.604 86.9744 43.604ZM88.1533 43.592C88.073 43.592 88.0107 43.5699 87.9665 43.5257C87.9263 43.4815 87.9062 43.4192 87.9062 43.3389V40.8257C87.9062 40.7453 87.9263 40.6851 87.9665 40.6449C88.0067 40.6007 88.0649 40.5786 88.1413 40.5786C88.2176 40.5786 88.2759 40.6007 88.316 40.6449C88.3602 40.6851 88.3823 40.7453 88.3823 40.8257V41.3139H88.3221C88.3864 41.0768 88.5089 40.894 88.6897 40.7654C88.8705 40.6369 89.0935 40.5685 89.3587 40.5605C89.419 40.5565 89.4672 40.5706 89.5033 40.6027C89.5395 40.6308 89.5596 40.681 89.5636 40.7534C89.5676 40.8217 89.5515 40.8759 89.5154 40.9161C89.4792 40.9563 89.423 40.9804 89.3466 40.9884L89.2502 41.0005C88.977 41.0246 88.766 41.113 88.6174 41.2656C88.4727 41.4143 88.4004 41.6192 88.4004 41.8804V43.3389C88.4004 43.4192 88.3783 43.4815 88.3341 43.5257C88.2939 43.5699 88.2337 43.592 88.1533 43.592ZM91.3508 43.604C91.0414 43.604 90.7742 43.5438 90.5492 43.4232C90.3282 43.2987 90.1555 43.1239 90.0309 42.8989C89.9104 42.6739 89.8501 42.4047 89.8501 42.0913C89.8501 41.786 89.9104 41.5208 90.0309 41.2958C90.1515 41.0668 90.3162 40.888 90.5251 40.7594C90.7381 40.6308 90.9832 40.5665 91.2604 40.5665C91.4573 40.5665 91.6341 40.6007 91.7908 40.669C91.9475 40.7333 92.08 40.8277 92.1885 40.9523C92.301 41.0768 92.3854 41.2275 92.4417 41.4043C92.5019 41.5811 92.5321 41.7799 92.5321 42.0009C92.5321 42.0652 92.514 42.1134 92.4778 42.1456C92.4417 42.1737 92.3894 42.1877 92.3211 42.1877H90.2238V41.8683H92.2066L92.1102 41.9467C92.1102 41.7297 92.078 41.5469 92.0138 41.3982C91.9495 41.2456 91.855 41.129 91.7305 41.0487C91.61 40.9683 91.4573 40.9281 91.2725 40.9281C91.0675 40.9281 90.8928 40.9764 90.7481 41.0728C90.6075 41.1652 90.501 41.2958 90.4287 41.4645C90.3564 41.6293 90.3202 41.8221 90.3202 42.0431V42.0793C90.3202 42.4489 90.4086 42.7302 90.5854 42.923C90.7662 43.1159 91.0213 43.2123 91.3508 43.2123C91.4874 43.2123 91.622 43.1942 91.7546 43.1581C91.8912 43.1219 92.0238 43.0616 92.1524 42.9773C92.2086 42.9411 92.2588 42.925 92.303 42.929C92.3513 42.929 92.3894 42.9431 92.4176 42.9712C92.4457 42.9953 92.4638 43.0275 92.4718 43.0677C92.4838 43.1038 92.4798 43.144 92.4597 43.1882C92.4437 43.2324 92.4095 43.2706 92.3573 43.3027C92.2247 43.3991 92.068 43.4735 91.8872 43.5257C91.7064 43.5779 91.5276 43.604 91.3508 43.604ZM93.4796 43.5799C93.3993 43.5799 93.339 43.5578 93.2988 43.5136C93.2587 43.4654 93.2386 43.3991 93.2386 43.3148V40.8498C93.2386 40.7654 93.2587 40.7011 93.2988 40.6569C93.339 40.6127 93.3993 40.5906 93.4796 40.5906C93.556 40.5906 93.6163 40.6127 93.6605 40.6569C93.7046 40.7011 93.7267 40.7654 93.7267 40.8498V43.3148C93.7267 43.3991 93.7046 43.4654 93.6605 43.5136C93.6203 43.5578 93.56 43.5799 93.4796 43.5799ZM93.4796 39.9156C93.3792 39.9156 93.3009 39.8895 93.2446 39.8373C93.1883 39.781 93.1602 39.7067 93.1602 39.6143C93.1602 39.5179 93.1883 39.4456 93.2446 39.3973C93.3009 39.3451 93.3792 39.319 93.4796 39.319C93.5841 39.319 93.6625 39.3451 93.7147 39.3973C93.7709 39.4456 93.7991 39.5179 93.7991 39.6143C93.7991 39.7067 93.7709 39.781 93.7147 39.8373C93.6625 39.8895 93.5841 39.9156 93.4796 39.9156ZM94.8804 43.592C94.8001 43.592 94.7398 43.5699 94.6996 43.5257C94.6594 43.4815 94.6393 43.4192 94.6393 43.3389V40.8257C94.6393 40.7453 94.6594 40.6851 94.6996 40.6449C94.7398 40.6007 94.7981 40.5786 94.8744 40.5786C94.9507 40.5786 95.009 40.6007 95.0492 40.6449C95.0934 40.6851 95.1155 40.7453 95.1155 40.8257V41.344L95.0492 41.2717C95.1335 41.0386 95.2702 40.8639 95.459 40.7473C95.6519 40.6268 95.8728 40.5665 96.122 40.5665C96.355 40.5665 96.5479 40.6087 96.7005 40.6931C96.8572 40.7775 96.9737 40.906 97.0501 41.0788C97.1264 41.2476 97.1646 41.4625 97.1646 41.7237V43.3389C97.1646 43.4192 97.1425 43.4815 97.0983 43.5257C97.0581 43.5699 96.9999 43.592 96.9235 43.592C96.8432 43.592 96.7809 43.5699 96.7367 43.5257C96.6965 43.4815 96.6764 43.4192 96.6764 43.3389V41.7538C96.6764 41.4806 96.6222 41.2817 96.5137 41.1572C96.4092 41.0286 96.2405 40.9643 96.0074 40.9643C95.7382 40.9643 95.5233 41.0487 95.3626 41.2174C95.2059 41.3822 95.1275 41.6031 95.1275 41.8804V43.3389C95.1275 43.5076 95.0452 43.592 94.8804 43.592ZM99.2822 43.604C98.9969 43.604 98.7498 43.5418 98.5409 43.4172C98.332 43.2927 98.1692 43.1179 98.0527 42.8929C97.9402 42.6639 97.884 42.3947 97.884 42.0853C97.884 41.8523 97.9161 41.6433 97.9804 41.4585C98.0447 41.2697 98.1391 41.109 98.2637 40.9764C98.3882 40.8438 98.5349 40.7433 98.7036 40.675C98.8764 40.6027 99.0692 40.5665 99.2822 40.5665C99.5675 40.5665 99.8146 40.6288 100.023 40.7534C100.232 40.8779 100.393 41.0547 100.506 41.2837C100.622 41.5087 100.68 41.7759 100.68 42.0853C100.68 42.3183 100.648 42.5273 100.584 42.7121C100.52 42.8969 100.425 43.0576 100.301 43.1942C100.176 43.3268 100.028 43.4293 99.8547 43.5016C99.686 43.5699 99.4951 43.604 99.2822 43.604ZM99.2822 43.2123C99.463 43.2123 99.6217 43.1681 99.7583 43.0797C99.8949 42.9913 99.9994 42.8627 100.072 42.694C100.148 42.5252 100.186 42.3223 100.186 42.0853C100.186 41.7197 100.104 41.4404 99.9391 41.2476C99.7784 41.0547 99.5594 40.9583 99.2822 40.9583C99.0974 40.9583 98.9367 41.0025 98.8 41.0909C98.6675 41.1752 98.563 41.3018 98.4866 41.4706C98.4143 41.6353 98.3782 41.8402 98.3782 42.0853C98.3782 42.4469 98.4605 42.7261 98.6253 42.923C98.79 43.1159 99.009 43.2123 99.2822 43.2123ZM104.185 43.604C103.9 43.604 103.653 43.5418 103.444 43.4172C103.235 43.2927 103.072 43.1179 102.955 42.8929C102.843 42.6639 102.787 42.3947 102.787 42.0853C102.787 41.8523 102.819 41.6433 102.883 41.4585C102.947 41.2697 103.042 41.109 103.166 40.9764C103.291 40.8438 103.438 40.7433 103.606 40.675C103.779 40.6027 103.972 40.5665 104.185 40.5665C104.47 40.5665 104.717 40.6288 104.926 40.7534C105.135 40.8779 105.296 41.0547 105.408 41.2837C105.525 41.5087 105.583 41.7759 105.583 42.0853C105.583 42.3183 105.551 42.5273 105.487 42.7121C105.422 42.8969 105.328 43.0576 105.203 43.1942C105.079 43.3268 104.93 43.4293 104.757 43.5016C104.589 43.5699 104.398 43.604 104.185 43.604ZM104.185 43.2123C104.366 43.2123 104.524 43.1681 104.661 43.0797C104.798 42.9913 104.902 42.8627 104.974 42.694C105.051 42.5252 105.089 42.3223 105.089 42.0853C105.089 41.7197 105.007 41.4404 104.842 41.2476C104.681 41.0547 104.462 40.9583 104.185 40.9583C104 40.9583 103.839 41.0025 103.703 41.0909C103.57 41.1752 103.466 41.3018 103.389 41.4706C103.317 41.6353 103.281 41.8402 103.281 42.0853C103.281 42.4469 103.363 42.7261 103.528 42.923C103.693 43.1159 103.912 43.2123 104.185 43.2123ZM106.557 43.592C106.477 43.592 106.417 43.5699 106.377 43.5257C106.336 43.4815 106.316 43.4192 106.316 43.3389V40.8257C106.316 40.7453 106.336 40.6851 106.377 40.6449C106.417 40.6007 106.475 40.5786 106.551 40.5786C106.628 40.5786 106.686 40.6007 106.726 40.6449C106.77 40.6851 106.793 40.7453 106.793 40.8257V41.344L106.726 41.2717C106.811 41.0386 106.947 40.8639 107.136 40.7473C107.329 40.6268 107.55 40.5665 107.799 40.5665C108.032 40.5665 108.225 40.6087 108.378 40.6931C108.534 40.7775 108.651 40.906 108.727 41.0788C108.803 41.2476 108.842 41.4625 108.842 41.7237V43.3389C108.842 43.4192 108.82 43.4815 108.775 43.5257C108.735 43.5699 108.677 43.592 108.601 43.592C108.52 43.592 108.458 43.5699 108.414 43.5257C108.374 43.4815 108.353 43.4192 108.353 43.3389V41.7538C108.353 41.4806 108.299 41.2817 108.191 41.1572C108.086 41.0286 107.918 40.9643 107.684 40.9643C107.415 40.9643 107.2 41.0487 107.04 41.2174C106.883 41.3822 106.805 41.6031 106.805 41.8804V43.3389C106.805 43.5076 106.722 43.592 106.557 43.592ZM110.857 43.604C110.596 43.604 110.367 43.5418 110.17 43.4172C109.977 43.2927 109.826 43.1179 109.718 42.8929C109.613 42.6639 109.561 42.3947 109.561 42.0853C109.561 41.7719 109.613 41.5027 109.718 41.2777C109.826 41.0487 109.977 40.8739 110.17 40.7534C110.367 40.6288 110.596 40.5665 110.857 40.5665C111.122 40.5665 111.349 40.6328 111.538 40.7654C111.727 40.898 111.853 41.0768 111.918 41.3018H111.851V39.5058C111.851 39.4255 111.871 39.3652 111.911 39.325C111.956 39.2808 112.018 39.2587 112.098 39.2587C112.175 39.2587 112.233 39.2808 112.273 39.325C112.317 39.3652 112.339 39.4255 112.339 39.5058V43.3389C112.339 43.4192 112.319 43.4815 112.279 43.5257C112.239 43.5699 112.179 43.592 112.098 43.592C112.022 43.592 111.962 43.5699 111.918 43.5257C111.877 43.4815 111.857 43.4192 111.857 43.3389V42.7663L111.924 42.8507C111.859 43.0797 111.731 43.2625 111.538 43.3991C111.349 43.5357 111.122 43.604 110.857 43.604ZM110.959 43.2123C111.14 43.2123 111.299 43.1681 111.435 43.0797C111.572 42.9913 111.676 42.8627 111.749 42.694C111.825 42.5252 111.863 42.3223 111.863 42.0853C111.863 41.7197 111.781 41.4404 111.616 41.2476C111.455 41.0547 111.236 40.9583 110.959 40.9583C110.774 40.9583 110.614 41.0025 110.477 41.0909C110.344 41.1752 110.24 41.3018 110.164 41.4706C110.091 41.6353 110.055 41.8402 110.055 42.0853C110.055 42.4469 110.138 42.7261 110.302 42.923C110.467 43.1159 110.686 43.2123 110.959 43.2123ZM114.575 43.604C114.266 43.604 113.999 43.5438 113.774 43.4232C113.553 43.2987 113.38 43.1239 113.256 42.8989C113.135 42.6739 113.075 42.4047 113.075 42.0913C113.075 41.786 113.135 41.5208 113.256 41.2958C113.376 41.0668 113.541 40.888 113.75 40.7594C113.963 40.6308 114.208 40.5665 114.485 40.5665C114.682 40.5665 114.859 40.6007 115.015 40.669C115.172 40.7333 115.305 40.8277 115.413 40.9523C115.526 41.0768 115.61 41.2275 115.666 41.4043C115.727 41.5811 115.757 41.7799 115.757 42.0009C115.757 42.0652 115.739 42.1134 115.702 42.1456C115.666 42.1737 115.614 42.1877 115.546 42.1877H113.448V41.8683H115.431L115.335 41.9467C115.335 41.7297 115.303 41.5469 115.238 41.3982C115.174 41.2456 115.08 41.129 114.955 41.0487C114.835 40.9683 114.682 40.9281 114.497 40.9281C114.292 40.9281 114.117 40.9764 113.973 41.0728C113.832 41.1652 113.726 41.2958 113.653 41.4645C113.581 41.6293 113.545 41.8221 113.545 42.0431V42.0793C113.545 42.4489 113.633 42.7302 113.81 42.923C113.991 43.1159 114.246 43.2123 114.575 43.2123C114.712 43.2123 114.847 43.1942 114.979 43.1581C115.116 43.1219 115.248 43.0616 115.377 42.9773C115.433 42.9411 115.483 42.925 115.528 42.929C115.576 42.929 115.614 42.9431 115.642 42.9712C115.67 42.9953 115.688 43.0275 115.696 43.0677C115.708 43.1038 115.704 43.144 115.684 43.1882C115.668 43.2324 115.634 43.2706 115.582 43.3027C115.449 43.3991 115.293 43.4735 115.112 43.5257C114.931 43.5779 114.752 43.604 114.575 43.604ZM119.108 43.592C119.04 43.592 118.979 43.5739 118.927 43.5378C118.875 43.4976 118.831 43.4373 118.794 43.3569L117.752 40.9221C117.724 40.8619 117.714 40.8056 117.722 40.7534C117.73 40.7011 117.754 40.659 117.794 40.6268C117.834 40.5947 117.89 40.5786 117.963 40.5786C118.027 40.5786 118.077 40.5927 118.113 40.6208C118.15 40.6489 118.182 40.6991 118.21 40.7715L119.198 43.1882H119.036L120.042 40.7715C120.07 40.6991 120.102 40.6489 120.138 40.6208C120.175 40.5927 120.227 40.5786 120.295 40.5786C120.359 40.5786 120.408 40.5947 120.44 40.6268C120.476 40.659 120.496 40.7011 120.5 40.7534C120.508 40.8016 120.5 40.8558 120.476 40.9161L119.421 43.3569C119.393 43.4373 119.351 43.4976 119.295 43.5378C119.242 43.5739 119.18 43.592 119.108 43.592ZM122.295 43.604C122.01 43.604 121.763 43.5418 121.554 43.4172C121.345 43.2927 121.182 43.1179 121.065 42.8929C120.953 42.6639 120.897 42.3947 120.897 42.0853C120.897 41.8523 120.929 41.6433 120.993 41.4585C121.057 41.2697 121.152 41.109 121.276 40.9764C121.401 40.8438 121.548 40.7433 121.716 40.675C121.889 40.6027 122.082 40.5665 122.295 40.5665C122.58 40.5665 122.827 40.6288 123.036 40.7534C123.245 40.8779 123.406 41.0547 123.518 41.2837C123.635 41.5087 123.693 41.7759 123.693 42.0853C123.693 42.3183 123.661 42.5273 123.597 42.7121C123.532 42.8969 123.438 43.0576 123.313 43.1942C123.189 43.3268 123.04 43.4293 122.867 43.5016C122.699 43.5699 122.508 43.604 122.295 43.604ZM122.295 43.2123C122.476 43.2123 122.634 43.1681 122.771 43.0797C122.908 42.9913 123.012 42.8627 123.084 42.694C123.161 42.5252 123.199 42.3223 123.199 42.0853C123.199 41.7197 123.117 41.4404 122.952 41.2476C122.791 41.0547 122.572 40.9583 122.295 40.9583C122.11 40.9583 121.949 41.0025 121.813 41.0909C121.68 41.1752 121.576 41.3018 121.499 41.4706C121.427 41.6353 121.391 41.8402 121.391 42.0853C121.391 42.4469 121.473 42.7261 121.638 42.923C121.803 43.1159 122.022 43.2123 122.295 43.2123ZM125.668 43.604C125.375 43.604 125.121 43.5398 124.909 43.4112C124.696 43.2826 124.531 43.1038 124.414 42.8748C124.302 42.6418 124.246 42.3726 124.246 42.0672C124.246 41.8342 124.278 41.6252 124.342 41.4404C124.406 41.2556 124.501 41.0989 124.625 40.9703C124.75 40.8377 124.898 40.7373 125.071 40.669C125.248 40.6007 125.447 40.5665 125.668 40.5665C125.813 40.5665 125.963 40.5886 126.12 40.6328C126.277 40.677 126.419 40.7534 126.548 40.8619C126.588 40.89 126.614 40.9241 126.626 40.9643C126.638 41.0045 126.638 41.0447 126.626 41.0848C126.614 41.121 126.594 41.1531 126.566 41.1813C126.538 41.2054 126.502 41.2194 126.457 41.2235C126.417 41.2275 126.375 41.2134 126.331 41.1813C126.226 41.1009 126.12 41.0447 126.011 41.0125C125.903 40.9804 125.798 40.9643 125.698 40.9643C125.541 40.9643 125.405 40.9904 125.288 41.0427C125.172 41.0909 125.073 41.1612 124.993 41.2536C124.913 41.346 124.85 41.4605 124.806 41.5971C124.766 41.7337 124.746 41.8924 124.746 42.0732C124.746 42.4228 124.828 42.7 124.993 42.9049C125.158 43.1058 125.393 43.2063 125.698 43.2063C125.798 43.2063 125.901 43.1902 126.005 43.1581C126.114 43.1259 126.222 43.0697 126.331 42.9893C126.375 42.9572 126.417 42.9431 126.457 42.9471C126.498 42.9511 126.532 42.9672 126.56 42.9953C126.588 43.0194 126.606 43.0516 126.614 43.0918C126.626 43.1319 126.626 43.1721 126.614 43.2123C126.602 43.2485 126.576 43.2806 126.536 43.3087C126.407 43.4132 126.267 43.4895 126.114 43.5378C125.961 43.5819 125.813 43.604 125.668 43.604ZM128.477 43.604C128.168 43.604 127.901 43.5438 127.676 43.4232C127.455 43.2987 127.282 43.1239 127.157 42.8989C127.037 42.6739 126.976 42.4047 126.976 42.0913C126.976 41.786 127.037 41.5208 127.157 41.2958C127.278 41.0668 127.443 40.888 127.652 40.7594C127.864 40.6308 128.11 40.5665 128.387 40.5665C128.584 40.5665 128.76 40.6007 128.917 40.669C129.074 40.7333 129.206 40.8277 129.315 40.9523C129.427 41.0768 129.512 41.2275 129.568 41.4043C129.628 41.5811 129.658 41.7799 129.658 42.0009C129.658 42.0652 129.64 42.1134 129.604 42.1456C129.568 42.1737 129.516 42.1877 129.448 42.1877H127.35V41.8683H129.333L129.237 41.9467C129.237 41.7297 129.204 41.5469 129.14 41.3982C129.076 41.2456 128.981 41.129 128.857 41.0487C128.736 40.9683 128.584 40.9281 128.399 40.9281C128.194 40.9281 128.019 40.9764 127.875 41.0728C127.734 41.1652 127.627 41.2958 127.555 41.4645C127.483 41.6293 127.447 41.8221 127.447 42.0431V42.0793C127.447 42.4489 127.535 42.7302 127.712 42.923C127.893 43.1159 128.148 43.2123 128.477 43.2123C128.614 43.2123 128.748 43.1942 128.881 43.1581C129.018 43.1219 129.15 43.0616 129.279 42.9773C129.335 42.9411 129.385 42.925 129.429 42.929C129.478 42.929 129.516 42.9431 129.544 42.9712C129.572 42.9953 129.59 43.0275 129.598 43.0677C129.61 43.1038 129.606 43.144 129.586 43.1882C129.57 43.2324 129.536 43.2706 129.484 43.3027C129.351 43.3991 129.194 43.4735 129.014 43.5257C128.833 43.5779 128.654 43.604 128.477 43.604ZM129.182 40.0422C129.206 40.0904 129.21 40.1346 129.194 40.1748C129.182 40.211 129.158 40.2371 129.122 40.2531C129.09 40.2692 129.054 40.2752 129.014 40.2712C128.977 40.2632 128.947 40.2391 128.923 40.1989L128.387 39.3371L127.85 40.1989C127.826 40.2391 127.794 40.2632 127.754 40.2712C127.718 40.2752 127.682 40.2692 127.645 40.2531C127.613 40.2371 127.589 40.211 127.573 40.1748C127.561 40.1346 127.567 40.0904 127.591 40.0422L128.091 39.1261C128.128 39.0618 128.17 39.0136 128.218 38.9815C128.266 38.9493 128.322 38.9333 128.387 38.9333C128.451 38.9333 128.507 38.9493 128.556 38.9815C128.604 39.0136 128.646 39.0618 128.682 39.1261L129.182 40.0422ZM133.239 43.604C132.929 43.604 132.662 43.5438 132.437 43.4232C132.216 43.2987 132.043 43.1239 131.919 42.8989C131.798 42.6739 131.738 42.4047 131.738 42.0913C131.738 41.786 131.798 41.5208 131.919 41.2958C132.039 41.0668 132.204 40.888 132.413 40.7594C132.626 40.6308 132.871 40.5665 133.148 40.5665C133.345 40.5665 133.522 40.6007 133.679 40.669C133.835 40.7333 133.968 40.8277 134.076 40.9523C134.189 41.0768 134.273 41.2275 134.33 41.4043C134.39 41.5811 134.42 41.7799 134.42 42.0009C134.42 42.0652 134.402 42.1134 134.366 42.1456C134.33 42.1737 134.277 42.1877 134.209 42.1877H132.112V41.8683H134.094L133.998 41.9467C133.998 41.7297 133.966 41.5469 133.902 41.3982C133.837 41.2456 133.743 41.129 133.618 41.0487C133.498 40.9683 133.345 40.9281 133.16 40.9281C132.955 40.9281 132.781 40.9764 132.636 41.0728C132.495 41.1652 132.389 41.2958 132.317 41.4645C132.244 41.6293 132.208 41.8221 132.208 42.0431V42.0793C132.208 42.4489 132.296 42.7302 132.473 42.923C132.654 43.1159 132.909 43.2123 133.239 43.2123C133.375 43.2123 133.51 43.1942 133.642 43.1581C133.779 43.1219 133.912 43.0616 134.04 42.9773C134.096 42.9411 134.147 42.925 134.191 42.929C134.239 42.929 134.277 42.9431 134.305 42.9712C134.334 42.9953 134.352 43.0275 134.36 43.0677C134.372 43.1038 134.368 43.144 134.348 43.1882C134.332 43.2324 134.297 43.2706 134.245 43.3027C134.113 43.3991 133.956 43.4735 133.775 43.5257C133.594 43.5779 133.415 43.604 133.239 43.604ZM136.115 43.604C135.934 43.604 135.751 43.5819 135.566 43.5378C135.386 43.4936 135.217 43.4172 135.06 43.3087C135.02 43.2806 134.992 43.2485 134.976 43.2123C134.96 43.1721 134.954 43.134 134.958 43.0978C134.966 43.0576 134.982 43.0235 135.006 42.9953C135.034 42.9672 135.066 42.9511 135.102 42.9471C135.142 42.9391 135.187 42.9471 135.235 42.9712C135.392 43.0677 135.542 43.136 135.687 43.1761C135.836 43.2123 135.982 43.2304 136.127 43.2304C136.356 43.2304 136.529 43.1882 136.645 43.1038C136.762 43.0194 136.82 42.9049 136.82 42.7603C136.82 42.6478 136.782 42.5594 136.705 42.4951C136.629 42.4268 136.509 42.3746 136.344 42.3384L135.795 42.2179C135.542 42.1657 135.353 42.0752 135.229 41.9467C135.108 41.8181 135.048 41.6514 135.048 41.4465C135.048 41.2656 135.094 41.111 135.187 40.9824C135.283 40.8498 135.418 40.7473 135.59 40.675C135.763 40.6027 135.964 40.5665 136.193 40.5665C136.37 40.5665 136.537 40.5906 136.693 40.6389C136.854 40.6831 136.999 40.7554 137.127 40.8558C137.168 40.884 137.194 40.9181 137.206 40.9583C137.222 40.9944 137.224 41.0326 137.212 41.0728C137.204 41.109 137.186 41.1411 137.157 41.1692C137.129 41.1933 137.095 41.2074 137.055 41.2114C137.015 41.2154 136.973 41.2034 136.928 41.1752C136.808 41.0949 136.685 41.0366 136.561 41.0005C136.436 40.9603 136.314 40.9402 136.193 40.9402C135.968 40.9402 135.797 40.9844 135.681 41.0728C135.564 41.1612 135.506 41.2777 135.506 41.4223C135.506 41.5348 135.542 41.6273 135.615 41.6996C135.687 41.7719 135.799 41.8241 135.952 41.8563L136.501 41.9708C136.762 42.027 136.957 42.1174 137.085 42.242C137.218 42.3625 137.284 42.5273 137.284 42.7362C137.284 43.0014 137.178 43.2123 136.965 43.369C136.752 43.5257 136.468 43.604 136.115 43.604ZM139.174 43.604C138.945 43.604 138.752 43.5639 138.595 43.4835C138.443 43.3991 138.328 43.2786 138.252 43.1219C138.175 42.9612 138.137 42.7663 138.137 42.5373V41.0005H137.733C137.665 41.0005 137.613 40.9844 137.577 40.9523C137.541 40.9161 137.522 40.8679 137.522 40.8076C137.522 40.7473 137.541 40.7011 137.577 40.669C137.613 40.6369 137.665 40.6208 137.733 40.6208H138.137V39.9277C138.137 39.8473 138.159 39.7871 138.203 39.7469C138.248 39.7027 138.308 39.6806 138.384 39.6806C138.461 39.6806 138.519 39.7027 138.559 39.7469C138.603 39.7871 138.625 39.8473 138.625 39.9277V40.6208H139.385C139.453 40.6208 139.505 40.6369 139.541 40.669C139.578 40.7011 139.596 40.7473 139.596 40.8076C139.596 40.8679 139.578 40.9161 139.541 40.9523C139.505 40.9844 139.453 41.0005 139.385 41.0005H138.625V42.4891C138.625 42.7181 138.674 42.8929 138.77 43.0134C138.866 43.1299 139.023 43.1882 139.24 43.1882C139.316 43.1882 139.381 43.1802 139.433 43.1641C139.489 43.148 139.535 43.14 139.572 43.14C139.608 43.136 139.638 43.148 139.662 43.1761C139.686 43.2043 139.698 43.2525 139.698 43.3208C139.698 43.369 139.688 43.4132 139.668 43.4534C139.652 43.4936 139.622 43.5217 139.578 43.5378C139.529 43.5538 139.465 43.5679 139.385 43.5799C139.308 43.596 139.238 43.604 139.174 43.604ZM140.382 43.5799C140.302 43.5799 140.241 43.5578 140.201 43.5136C140.161 43.4654 140.141 43.3991 140.141 43.3148V40.8498C140.141 40.7654 140.161 40.7011 140.201 40.6569C140.241 40.6127 140.302 40.5906 140.382 40.5906C140.458 40.5906 140.519 40.6127 140.563 40.6569C140.607 40.7011 140.629 40.7654 140.629 40.8498V43.3148C140.629 43.3991 140.607 43.4654 140.563 43.5136C140.523 43.5578 140.462 43.5799 140.382 43.5799ZM140.382 39.9156C140.282 39.9156 140.203 39.8895 140.147 39.8373C140.091 39.781 140.063 39.7067 140.063 39.6143C140.063 39.5179 140.091 39.4456 140.147 39.3973C140.203 39.3451 140.282 39.319 140.382 39.319C140.486 39.319 140.565 39.3451 140.617 39.3973C140.673 39.4456 140.701 39.5179 140.701 39.6143C140.701 39.7067 140.673 39.781 140.617 39.8373C140.565 39.8895 140.486 39.9156 140.382 39.9156ZM142.633 43.592C142.564 43.592 142.504 43.5739 142.452 43.5378C142.4 43.4976 142.355 43.4373 142.319 43.3569L141.277 40.9221C141.248 40.8619 141.238 40.8056 141.246 40.7534C141.254 40.7011 141.279 40.659 141.319 40.6268C141.359 40.5947 141.415 40.5786 141.487 40.5786C141.552 40.5786 141.602 40.5927 141.638 40.6208C141.674 40.6489 141.706 40.6991 141.735 40.7715L142.723 43.1882H142.56L143.567 40.7715C143.595 40.6991 143.627 40.6489 143.663 40.6208C143.699 40.5927 143.752 40.5786 143.82 40.5786C143.884 40.5786 143.932 40.5947 143.965 40.6268C144.001 40.659 144.021 40.7011 144.025 40.7534C144.033 40.8016 144.025 40.8558 144.001 40.9161L142.946 43.3569C142.918 43.4373 142.876 43.4976 142.819 43.5378C142.767 43.5739 142.705 43.592 142.633 43.592ZM145.922 43.604C145.613 43.604 145.346 43.5438 145.121 43.4232C144.9 43.2987 144.727 43.1239 144.602 42.8989C144.482 42.6739 144.421 42.4047 144.421 42.0913C144.421 41.786 144.482 41.5208 144.602 41.2958C144.723 41.0668 144.888 40.888 145.096 40.7594C145.309 40.6308 145.554 40.5665 145.832 40.5665C146.029 40.5665 146.205 40.6007 146.362 40.669C146.519 40.7333 146.651 40.8277 146.76 40.9523C146.872 41.0768 146.957 41.2275 147.013 41.4043C147.073 41.5811 147.103 41.7799 147.103 42.0009C147.103 42.0652 147.085 42.1134 147.049 42.1456C147.013 42.1737 146.961 42.1877 146.892 42.1877H144.795V41.8683H146.778L146.682 41.9467C146.682 41.7297 146.649 41.5469 146.585 41.3982C146.521 41.2456 146.426 41.129 146.302 41.0487C146.181 40.9683 146.029 40.9281 145.844 40.9281C145.639 40.9281 145.464 40.9764 145.319 41.0728C145.179 41.1652 145.072 41.2958 145 41.4645C144.928 41.6293 144.892 41.8221 144.892 42.0431V42.0793C144.892 42.4489 144.98 42.7302 145.157 42.923C145.338 43.1159 145.593 43.2123 145.922 43.2123C146.059 43.2123 146.193 43.1942 146.326 43.1581C146.463 43.1219 146.595 43.0616 146.724 42.9773C146.78 42.9411 146.83 42.925 146.874 42.929C146.923 42.929 146.961 42.9431 146.989 42.9712C147.017 42.9953 147.035 43.0275 147.043 43.0677C147.055 43.1038 147.051 43.144 147.031 43.1882C147.015 43.2324 146.981 43.2706 146.929 43.3027C146.796 43.3991 146.639 43.4735 146.459 43.5257C146.278 43.5779 146.099 43.604 145.922 43.604ZM148.057 43.592C147.977 43.592 147.914 43.5699 147.87 43.5257C147.83 43.4815 147.81 43.4192 147.81 43.3389V40.8257C147.81 40.7453 147.83 40.6851 147.87 40.6449C147.91 40.6007 147.969 40.5786 148.045 40.5786C148.121 40.5786 148.18 40.6007 148.22 40.6449C148.264 40.6851 148.286 40.7453 148.286 40.8257V41.3139H148.226C148.29 41.0768 148.413 40.894 148.593 40.7654C148.774 40.6369 148.997 40.5685 149.262 40.5605C149.323 40.5565 149.371 40.5706 149.407 40.6027C149.443 40.6308 149.463 40.681 149.467 40.7534C149.471 40.8217 149.455 40.8759 149.419 40.9161C149.383 40.9563 149.327 40.9804 149.25 40.9884L149.154 41.0005C148.881 41.0246 148.67 41.113 148.521 41.2656C148.376 41.4143 148.304 41.6192 148.304 41.8804V43.3389C148.304 43.4192 148.282 43.4815 148.238 43.5257C148.198 43.5699 148.137 43.592 148.057 43.592ZM150.075 43.5739C149.975 43.5739 149.895 43.5438 149.834 43.4835C149.774 43.4192 149.744 43.3389 149.744 43.2424C149.744 43.146 149.774 43.0677 149.834 43.0074C149.895 42.9431 149.975 42.911 150.075 42.911C150.176 42.911 150.254 42.9431 150.311 43.0074C150.371 43.0677 150.401 43.146 150.401 43.2424C150.401 43.3389 150.371 43.4192 150.311 43.4835C150.254 43.5438 150.176 43.5739 150.075 43.5739Z" fill="#DF9DC0"/>
</svg>
