<svg width="214" height="64" viewBox="0 0 214 64" fill="none" xmlns="http://www.w3.org/2000/svg">
<path d="M52.994 30.679H50.9141L50.8823 29.4213L50.788 28.1811L50.6327 26.959L50.4181 25.7568L50.1454 24.576L49.8166 23.4175L49.4327 22.2835L48.9957 21.1749L48.5069 20.0937L47.9677 19.0409L47.3797 18.0185L46.7446 17.0279L46.0639 16.0705L45.3389 15.1478L44.5713 14.2617L43.7626 13.4134L42.9143 12.6047L42.0282 11.8371L41.1055 11.1121L40.1481 10.4314L39.1575 9.79625L38.1351 9.20834L37.0823 8.66912L36.0011 8.18031L34.8925 7.74326L33.7585 7.35944L32.6 7.03059L31.4192 6.7579L30.217 6.54325L28.9949 6.38798L27.7546 6.2937L26.497 6.26187V4.18201L27.8595 4.21651L29.2046 4.31882L30.5307 4.48719L31.8359 4.72029L33.1181 5.01625L34.3758 5.37346L35.6075 5.79018L36.811 6.26468L37.9851 6.79548L39.1277 7.38071L40.2373 8.01863L41.3124 8.70777L42.3511 9.44653L43.3519 10.233L44.3132 11.0657L45.2331 11.9428L46.1103 12.8628L46.943 13.8241L47.7295 14.8249L48.4682 15.8636L49.1574 16.9387L49.7953 18.0483L50.3805 19.1909L50.9113 20.365L51.3858 21.5685L51.8025 22.8002L52.1597 24.0579L52.4557 25.3401L52.6888 26.6453L52.8572 27.9714L52.9595 29.3165L52.994 30.679ZM26.497 57.1761V55.0963L27.7546 55.0644L28.9949 54.9701L30.217 54.8149L31.4192 54.6002L32.6 54.3275L33.7585 53.9987L34.8925 53.6149L36.0011 53.1778L37.0823 52.689L38.1351 52.1498L39.1575 51.5619L40.1481 50.9268L41.1055 50.2461L42.0282 49.5211L42.9143 48.7534L43.7626 47.9447L44.5713 47.0964L45.3389 46.2103L46.0639 45.2877L46.7446 44.3302L47.3797 43.3397L47.9677 42.3171L48.5069 41.2645L48.9957 40.1832L49.4327 39.0746L49.8166 37.9405L50.1454 36.7823L50.4181 35.6012L50.6327 34.399L50.788 33.1771L50.8823 31.9367L50.9141 30.679H52.994L52.9595 32.0415L52.8572 33.3868L52.6888 34.7127L52.4557 36.0179L52.1597 37.3001L51.8025 38.5581L51.3858 39.7895L50.9113 40.9931L50.3805 42.1672L49.7953 43.3097L49.1574 44.4194L48.4682 45.4946L47.7295 46.5333L46.943 47.534L46.1103 48.4953L45.2331 49.4153L44.3132 50.2925L43.3519 51.1251L42.3511 51.9116L41.3124 52.6504L40.2373 53.3395L39.1277 53.9774L37.9851 54.5627L36.811 55.0935L35.6075 55.568L34.3758 55.9847L33.1181 56.3419L31.8359 56.6378L30.5307 56.8709L29.2046 57.0393L27.8595 57.1416L26.497 57.1761ZM0 30.679H2.07986L2.11169 31.9367L2.20598 33.1771L2.36124 34.399L2.57589 35.6012L2.84858 36.7823L3.17743 37.9405L3.56126 39.0746L3.99831 40.1832L4.48711 41.2645L5.02633 42.3171L5.61424 43.3397L6.24935 44.3302L6.93007 45.2877L7.65505 46.2103L8.4227 47.0964L9.2314 47.9447L10.0797 48.7534L10.9658 49.5211L11.8885 50.2461L12.8459 50.9268L13.8365 51.5619L14.8589 52.1498L15.9117 52.689L16.9929 53.1778L18.1014 53.6149L19.2355 53.9987L20.3939 54.3275L21.5748 54.6002L22.777 54.8149L23.9991 54.9701L25.2393 55.0644L26.497 55.0963V57.1761L25.1345 57.1416L23.7894 57.0393L22.4632 56.8709L21.1581 56.6378L19.8759 56.3419L18.6182 55.9847L17.3865 55.568L16.183 55.0935L15.0089 54.5627L13.8663 53.9774L12.7567 53.3395L11.6816 52.6504L10.6428 51.9116L9.6421 51.1251L8.68081 50.2925L7.76084 49.4153L6.88366 48.4953L6.05102 47.534L5.26452 46.5333L4.52576 45.4946L3.83662 44.4194L3.1987 43.3097L2.61347 42.1672L2.08267 40.9931L1.60818 39.7895L1.19145 38.5581L0.834244 37.3001L0.538288 36.0179L0.305183 34.7127L0.136812 33.3868L0.0345017 32.0415L0 30.679ZM26.497 4.18201V6.26187L25.2393 6.2937L23.9991 6.38798L22.777 6.54325L21.5748 6.7579L20.3939 7.03059L19.2355 7.35944L18.1014 7.74326L16.9929 8.18031L15.9117 8.66912L14.8589 9.20834L13.8365 9.79625L12.8459 10.4314L11.8885 11.1121L10.9658 11.8371L10.0797 12.6047L9.2314 13.4134L8.4227 14.2617L7.65505 15.1478L6.93007 16.0705L6.24935 17.0279L5.61424 18.0185L5.02633 19.0409L4.48711 20.0937L3.99831 21.1749L3.56126 22.2835L3.17743 23.4175L2.84858 24.576L2.57589 25.7568L2.36124 26.959L2.20598 28.1811L2.11169 29.4213L2.07986 30.679H0L0.0345017 29.3165L0.136812 27.9714L0.305183 26.6453L0.538288 25.3401L0.834244 24.0579L1.19145 22.8002L1.60818 21.5685L2.08267 20.365L2.61347 19.1909L3.1987 18.0483L3.83662 16.9387L4.52576 15.8636L5.26452 14.8249L6.05102 13.8241L6.88366 12.8628L7.76084 11.9428L8.68081 11.0657L9.6421 10.233L10.6428 9.44653L11.6816 8.70777L12.7567 8.01863L13.8663 7.38071L15.0089 6.79548L16.183 6.26468L17.3865 5.79018L18.6182 5.37346L19.8759 5.01625L21.1581 4.72029L22.4632 4.48719L23.7894 4.31882L25.1345 4.21651L26.497 4.18201Z" fill="#DF9DC0"/>
<path d="M31.9819 57.1234C32.9644 59.9691 36.1151 58.2752 34.6923 56.4119C30.7623 51.3977 33.5403 39.2691 36.9282 29.5458C40.4108 28.9236 49.5407 35.5108 49.6678 38.6949C49.7179 39.9547 52.4485 39.4428 51.3955 37.1027C49.8361 33.6373 45.5911 28.1794 37.4702 28.0212C38.961 23.8203 40.5194 20.1952 41.6375 17.8575C44.1783 12.3691 46.2788 8.74408 46.2111 8.98119C48.5487 5.18683 44.7203 4.10263 43.2636 7.08401C41.5358 10.6752 39.8758 14.4357 38.3173 18.3996C37.267 21.076 36.1491 24.3285 35.0987 27.9535C31.6093 28.0552 28.1535 28.6988 25.7143 29.2747C22.8346 29.9523 19.9548 31.0026 17.2445 31.8495C21.7165 18.1963 27.476 5.15286 27.6115 4.61083C29.9492 0.816334 26.1209 -0.267731 24.6641 2.71365C20.7001 10.8107 17.3462 22.0246 14.8052 32.595C11.4512 33.5096 8.53765 33.8823 6.23391 32.6626C4.13332 30.8333 1.32138 34.4583 5.21752 35.5424C10.367 37.1686 11.3496 42.657 11.3496 48.0776C10.1637 54.3113 9.85896 59.0205 10.943 61.155C12.5693 64.6784 15.9232 62.7134 13.6533 60.4435C12.0611 57.7332 11.8578 53.7016 12.7725 48.552C13.5856 43.9443 15.0085 38.8625 16.6347 33.679C19.379 32.6966 22.2925 31.5108 25.1383 30.7993C28.2213 30.0201 31.5415 29.2747 34.6923 29.3763C31.8802 39.4045 29.9152 51.2622 31.9819 57.1234ZM12.3998 43.0974C12.0272 40.2515 11.0785 37.609 8.8764 35.4407C10.8752 35.3391 12.5693 35.102 14.3648 34.4583C13.6533 37.4396 12.9758 40.3531 12.3998 43.0974Z" fill="#DF9DC0" stroke="#DF9DC0" stroke-width="0.353732" stroke-miterlimit="22.9256"/>
<path d="M65.457 42.8522C64.7369 42.8522 64.1793 42.6548 63.7844 42.2599C63.4128 41.8418 63.2269 41.2726 63.2269 40.5525V20.0293C63.2269 19.286 63.4128 18.7169 63.7844 18.322C64.1793 17.9271 64.7369 17.7296 65.457 17.7296C66.1771 17.7296 66.723 17.9271 67.0946 18.322C67.4895 18.7169 67.687 19.286 67.687 20.0293V28.2525H80.3354V20.0293C80.3354 19.286 80.5212 18.7169 80.8929 18.322C81.2878 17.9271 81.8453 17.7296 82.5654 17.7296C83.2855 17.7296 83.8314 17.9271 84.2031 18.322C84.598 18.7169 84.7955 19.286 84.7955 20.0293V40.5525C84.7955 41.2726 84.598 41.8418 84.2031 42.2599C83.8314 42.6548 83.2855 42.8522 82.5654 42.8522C81.8453 42.8522 81.2878 42.6548 80.8929 42.2599C80.5212 41.8418 80.3354 41.2726 80.3354 40.5525V31.9809H67.687V40.5525C67.687 41.2726 67.5012 41.8418 67.1295 42.2599C66.7578 42.6548 66.2003 42.8522 65.457 42.8522ZM95.3685 42.9219C94.1373 42.9219 93.0339 42.6896 92.0583 42.225C91.1059 41.7372 90.3509 41.0868 89.7934 40.2738C89.2591 39.4607 88.992 38.5432 88.992 37.5211C88.992 36.2667 89.3172 35.2794 89.9676 34.5593C90.6181 33.816 91.675 33.2817 93.1385 32.9565C94.6019 32.6313 96.5648 32.4687 99.0271 32.4687H100.769V34.9775H99.062C97.6217 34.9775 96.4719 35.0472 95.6124 35.1865C94.7529 35.3259 94.1373 35.5698 93.7656 35.9183C93.4172 36.2435 93.243 36.7081 93.243 37.312C93.243 38.0786 93.5101 38.7058 94.0444 39.1936C94.5787 39.6814 95.322 39.9253 96.2744 39.9253C97.041 39.9253 97.7146 39.7511 98.2954 39.4027C98.8994 39.031 99.3756 38.5316 99.724 37.9044C100.072 37.2772 100.247 36.5571 100.247 35.744V31.737C100.247 30.5755 99.9911 29.7392 99.4801 29.2282C98.969 28.7171 98.1095 28.4616 96.9016 28.4616C96.228 28.4616 95.4962 28.5429 94.7064 28.7055C93.9399 28.8681 93.1268 29.1469 92.2674 29.5418C91.826 29.7508 91.4311 29.8089 91.0826 29.716C90.7574 29.6231 90.5019 29.4372 90.3161 29.1585C90.1302 28.8565 90.0373 28.5313 90.0373 28.1829C90.0373 27.8344 90.1302 27.4976 90.3161 27.1724C90.5019 26.8239 90.8155 26.5684 91.2569 26.4058C92.3254 25.9644 93.3475 25.6509 94.3232 25.465C95.322 25.2792 96.228 25.1863 97.041 25.1863C98.7135 25.1863 100.084 25.4418 101.153 25.9528C102.244 26.4639 103.057 27.2421 103.592 28.2874C104.126 29.3095 104.393 30.6336 104.393 32.2596V40.6222C104.393 41.3423 104.219 41.8998 103.87 42.2947C103.522 42.6664 103.023 42.8522 102.372 42.8522C101.722 42.8522 101.211 42.6664 100.839 42.2947C100.491 41.8998 100.316 41.3423 100.316 40.6222V38.9497H100.595C100.432 39.7627 100.107 40.4712 99.6195 41.0752C99.1549 41.6559 98.5625 42.1089 97.8424 42.4341C97.1223 42.7593 96.2977 42.9219 95.3685 42.9219ZM98.8529 23.0608C98.6206 23.386 98.3418 23.5718 98.0166 23.6183C97.6914 23.6647 97.3778 23.6067 97.0758 23.4441C96.7739 23.2815 96.5532 23.0492 96.4138 22.7472C96.2977 22.4452 96.3325 22.1084 96.5183 21.7367L99.1665 16.5449C99.3756 16.1036 99.6543 15.8248 100.003 15.7087C100.351 15.5693 100.711 15.5461 101.083 15.639C101.455 15.7319 101.768 15.9061 102.024 16.1616C102.302 16.4172 102.465 16.7308 102.512 17.1024C102.581 17.4509 102.488 17.8109 102.233 18.1826L98.8529 23.0608ZM118.64 42.9219C117.2 42.9219 115.934 42.5619 114.842 41.8418C113.773 41.1216 113.065 40.1576 112.716 38.9497L113.1 38.0786V40.6222C113.1 41.3423 112.914 41.8998 112.542 42.2947C112.171 42.6664 111.648 42.8522 110.974 42.8522C110.277 42.8522 109.743 42.6664 109.371 42.2947C109 41.8998 108.814 41.3423 108.814 40.6222V19.9248C108.814 19.2047 109 18.6588 109.371 18.2871C109.743 17.9155 110.277 17.7296 110.974 17.7296C111.671 17.7296 112.205 17.9155 112.577 18.2871C112.972 18.6588 113.169 19.2047 113.169 19.9248V28.9843H112.751C113.123 27.846 113.843 26.9285 114.912 26.2316C115.98 25.5347 117.223 25.1863 118.64 25.1863C120.15 25.1863 121.462 25.5463 122.577 26.2664C123.692 26.9865 124.564 28.0086 125.191 29.3327C125.818 30.6336 126.131 32.2015 126.131 34.0367C126.131 35.8486 125.818 37.4282 125.191 38.7755C124.564 40.0996 123.681 41.1216 122.543 41.8418C121.428 42.5619 120.127 42.9219 118.64 42.9219ZM117.42 39.6117C118.28 39.6117 119.035 39.4027 119.685 38.9845C120.336 38.5664 120.835 37.9508 121.184 37.1378C121.555 36.3015 121.741 35.2678 121.741 34.0367C121.741 32.1783 121.346 30.7962 120.556 29.8902C119.767 28.961 118.721 28.4965 117.42 28.4965C116.561 28.4965 115.806 28.7055 115.156 29.1237C114.505 29.5186 113.994 30.1341 113.622 30.9704C113.274 31.7834 113.1 32.8055 113.1 34.0367C113.1 35.8718 113.495 37.2656 114.284 38.218C115.074 39.1471 116.12 39.6117 117.42 39.6117ZM131.867 42.8174C131.17 42.8174 130.636 42.6083 130.264 42.1902C129.893 41.7721 129.707 41.1913 129.707 40.448V27.6602C129.707 26.8936 129.893 26.3129 130.264 25.918C130.636 25.4999 131.17 25.2908 131.867 25.2908C132.564 25.2908 133.098 25.4999 133.47 25.918C133.865 26.3129 134.062 26.8936 134.062 27.6602V40.448C134.062 41.1913 133.877 41.7721 133.505 42.1902C133.133 42.6083 132.587 42.8174 131.867 42.8174ZM131.867 22.0503C131.054 22.0503 130.415 21.8528 129.951 21.4579C129.509 21.0398 129.289 20.4707 129.289 19.7506C129.289 19.0072 129.509 18.4381 129.951 18.0432C130.415 17.6483 131.054 17.4509 131.867 17.4509C132.703 17.4509 133.342 17.6483 133.784 18.0432C134.225 18.4381 134.446 19.0072 134.446 19.7506C134.446 20.4707 134.225 21.0398 133.784 21.4579C133.342 21.8528 132.703 22.0503 131.867 22.0503ZM146.393 42.9219C144.883 42.9219 143.617 42.6664 142.595 42.1554C141.596 41.6443 140.853 40.901 140.365 39.9253C139.877 38.9265 139.633 37.6953 139.633 36.2319V28.8101H137.821C137.264 28.8101 136.834 28.6707 136.532 28.3919C136.23 28.0899 136.079 27.6834 136.079 27.1724C136.079 26.6381 136.23 26.2316 136.532 25.9528C136.834 25.6741 137.264 25.5347 137.821 25.5347H139.633V22.3639C139.633 21.6438 139.819 21.0979 140.191 20.7262C140.586 20.3545 141.132 20.1687 141.829 20.1687C142.525 20.1687 143.06 20.3545 143.431 20.7262C143.803 21.0979 143.989 21.6438 143.989 22.3639V25.5347H147.682C148.24 25.5347 148.67 25.6741 148.972 25.9528C149.274 26.2316 149.425 26.6381 149.425 27.1724C149.425 27.6834 149.274 28.0899 148.972 28.3919C148.67 28.6707 148.24 28.8101 147.682 28.8101H143.989V35.9879C143.989 37.103 144.233 37.9392 144.721 38.4967C145.208 39.0542 145.998 39.333 147.09 39.333C147.485 39.333 147.833 39.2981 148.135 39.2284C148.437 39.1588 148.704 39.1123 148.937 39.0891C149.215 39.0658 149.448 39.1588 149.634 39.3678C149.819 39.5537 149.912 39.9486 149.912 40.5525C149.912 41.0171 149.831 41.4352 149.668 41.8069C149.529 42.1554 149.262 42.3993 148.867 42.5386C148.565 42.6316 148.17 42.7129 147.682 42.7826C147.194 42.8755 146.765 42.9219 146.393 42.9219ZM159.561 42.9219C157.795 42.9219 156.262 42.5619 154.961 41.8418C153.661 41.1216 152.65 40.0996 151.93 38.7755C151.21 37.4282 150.85 35.8486 150.85 34.0367C150.85 32.6661 151.047 31.4466 151.442 30.378C151.86 29.2863 152.453 28.3571 153.219 27.5905C153.986 26.8007 154.903 26.2084 155.972 25.8135C157.041 25.3953 158.237 25.1863 159.561 25.1863C161.326 25.1863 162.859 25.5463 164.16 26.2664C165.461 26.9865 166.472 28.0086 167.192 29.3327C167.912 30.6568 168.272 32.2248 168.272 34.0367C168.272 35.4072 168.063 36.6384 167.645 37.7302C167.25 38.8219 166.669 39.7627 165.903 40.5525C165.136 41.3191 164.218 41.9114 163.15 42.3296C162.081 42.7245 160.885 42.9219 159.561 42.9219ZM159.561 39.6117C160.42 39.6117 161.175 39.4027 161.826 38.9845C162.476 38.5664 162.976 37.9508 163.324 37.1378C163.696 36.3015 163.882 35.2678 163.882 34.0367C163.882 32.1783 163.487 30.7962 162.697 29.8902C161.907 28.961 160.862 28.4965 159.561 28.4965C158.701 28.4965 157.946 28.7055 157.296 29.1237C156.646 29.5186 156.135 30.1341 155.763 30.9704C155.414 31.7834 155.24 32.8055 155.24 34.0367C155.24 35.8718 155.635 37.2656 156.425 38.218C157.215 39.1471 158.26 39.6117 159.561 39.6117ZM174.585 42.8522C173.865 42.8522 173.295 42.6548 172.877 42.2599C172.482 41.8418 172.285 41.2494 172.285 40.4828V20.3778C172.285 19.6112 172.482 19.0305 172.877 18.6356C173.295 18.2174 173.888 18.0084 174.654 18.0084H186.815C187.419 18.0084 187.872 18.1594 188.174 18.4613C188.476 18.7633 188.627 19.1931 188.627 19.7506C188.627 20.3313 188.476 20.7843 188.174 21.1095C187.872 21.4115 187.419 21.5625 186.815 21.5625H176.745V28.4965H186.083C186.664 28.4965 187.105 28.6474 187.407 28.9494C187.733 29.2514 187.895 29.6812 187.895 30.2387C187.895 30.8194 187.733 31.2724 187.407 31.5976C187.105 31.8996 186.664 32.0506 186.083 32.0506H176.745V40.4828C176.745 42.0624 176.025 42.8522 174.585 42.8522ZM194.988 42.8174C194.291 42.8174 193.757 42.6083 193.385 42.1902C193.014 41.7721 192.828 41.1913 192.828 40.448V27.6602C192.828 26.8936 193.014 26.3129 193.385 25.918C193.757 25.4999 194.291 25.2908 194.988 25.2908C195.685 25.2908 196.219 25.4999 196.591 25.918C196.986 26.3129 197.183 26.8936 197.183 27.6602V40.448C197.183 41.1913 196.997 41.7721 196.626 42.1902C196.254 42.6083 195.708 42.8174 194.988 42.8174ZM194.988 22.0503C194.175 22.0503 193.536 21.8528 193.072 21.4579C192.63 21.0398 192.41 20.4707 192.41 19.7506C192.41 19.0072 192.63 18.4381 193.072 18.0432C193.536 17.6483 194.175 17.4509 194.988 17.4509C195.824 17.4509 196.463 17.6483 196.905 18.0432C197.346 18.4381 197.567 19.0072 197.567 19.7506C197.567 20.4707 197.346 21.0398 196.905 21.4579C196.463 21.8528 195.824 22.0503 194.988 22.0503ZM209.514 42.9219C208.004 42.9219 206.738 42.6664 205.716 42.1554C204.717 41.6443 203.974 40.901 203.486 39.9253C202.998 38.9265 202.754 37.6953 202.754 36.2319V28.8101H200.942C200.385 28.8101 199.955 28.6707 199.653 28.3919C199.351 28.0899 199.2 27.6834 199.2 27.1724C199.2 26.6381 199.351 26.2316 199.653 25.9528C199.955 25.6741 200.385 25.5347 200.942 25.5347H202.754V22.3639C202.754 21.6438 202.94 21.0979 203.312 20.7262C203.707 20.3545 204.253 20.1687 204.949 20.1687C205.646 20.1687 206.181 20.3545 206.552 20.7262C206.924 21.0979 207.11 21.6438 207.11 22.3639V25.5347H210.803C211.361 25.5347 211.791 25.6741 212.093 25.9528C212.394 26.2316 212.545 26.6381 212.545 27.1724C212.545 27.6834 212.394 28.0899 212.093 28.3919C211.791 28.6707 211.361 28.8101 210.803 28.8101H207.11V35.9879C207.11 37.103 207.354 37.9392 207.842 38.4967C208.329 39.0542 209.119 39.333 210.211 39.333C210.606 39.333 210.954 39.2981 211.256 39.2284C211.558 39.1588 211.825 39.1123 212.058 39.0891C212.336 39.0658 212.569 39.1588 212.755 39.3678C212.94 39.5537 213.033 39.9486 213.033 40.5525C213.033 41.0171 212.952 41.4352 212.789 41.8069C212.65 42.1554 212.383 42.3993 211.988 42.5386C211.686 42.6316 211.291 42.7129 210.803 42.7826C210.315 42.8755 209.886 42.9219 209.514 42.9219Z" fill="white"/>
<path d="M91.4746 53.4475C91.2455 53.4475 91.0212 53.428 90.8018 53.389C90.5825 53.35 90.3777 53.2939 90.1876 53.2208C90.0023 53.1477 89.8341 53.055 89.683 52.9429C89.6245 52.899 89.5831 52.8503 89.5587 52.7967C89.5392 52.7382 89.5343 52.6821 89.5441 52.6285C89.5587 52.57 89.5831 52.5212 89.6172 52.4822C89.6562 52.4432 89.7025 52.4213 89.7561 52.4164C89.8098 52.4115 89.8683 52.4286 89.9316 52.4676C90.151 52.6236 90.385 52.7382 90.6336 52.8113C90.8823 52.8795 91.1626 52.9137 91.4746 52.9137C91.9133 52.9137 92.2375 52.8332 92.4471 52.6723C92.6616 52.5066 92.7689 52.2897 92.7689 52.0215C92.7689 51.8022 92.6909 51.6315 92.5349 51.5097C92.3838 51.3829 92.1278 51.283 91.7671 51.2099L91.0066 51.0563C90.5483 50.9588 90.2046 50.8004 89.9755 50.581C89.7513 50.3567 89.6391 50.0594 89.6391 49.6889C89.6391 49.4598 89.6855 49.2526 89.7781 49.0673C89.8707 48.8772 89.9999 48.7163 90.1656 48.5847C90.3314 48.4482 90.5288 48.3434 90.758 48.2703C90.9871 48.1971 91.2406 48.1606 91.5185 48.1606C91.8256 48.1606 92.1108 48.2045 92.374 48.2922C92.6421 48.3751 92.8835 48.5018 93.098 48.6725C93.1516 48.7163 93.1881 48.7675 93.2076 48.826C93.2271 48.8796 93.2296 48.9333 93.215 48.9869C93.2003 49.0356 93.1735 49.0771 93.1345 49.1112C93.1004 49.1453 93.0541 49.1648 92.9956 49.1697C92.942 49.1746 92.881 49.1551 92.8128 49.1112C92.6178 48.965 92.4155 48.8601 92.2058 48.7968C91.9962 48.7285 91.7646 48.6944 91.5111 48.6944C91.2528 48.6944 91.0285 48.7334 90.8384 48.8114C90.6531 48.8894 90.5069 49.0039 90.3996 49.1551C90.2973 49.3013 90.2461 49.4719 90.2461 49.6669C90.2461 49.9009 90.3168 50.0862 90.4581 50.2227C90.6044 50.3592 90.8408 50.4591 91.1675 50.5225L91.928 50.6834C92.4203 50.7857 92.7835 50.9417 93.0175 51.1514C93.2564 51.3561 93.3758 51.6364 93.3758 51.9923C93.3758 52.2068 93.332 52.4042 93.2442 52.5846C93.1565 52.765 93.0297 52.921 92.864 53.0526C92.6982 53.1793 92.4983 53.2768 92.2643 53.3451C92.0303 53.4133 91.7671 53.4475 91.4746 53.4475ZM95.8272 53.4475C95.4519 53.4475 95.1277 53.3743 94.8547 53.2281C94.5865 53.077 94.3769 52.8649 94.2258 52.5919C94.0795 52.3189 94.0064 51.9923 94.0064 51.612C94.0064 51.2416 94.0795 50.9198 94.2258 50.6468C94.372 50.3689 94.5719 50.152 94.8254 49.996C95.0838 49.84 95.3812 49.762 95.7175 49.762C95.9564 49.762 96.1709 49.8034 96.361 49.8863C96.5512 49.9643 96.712 50.0789 96.8437 50.23C96.9802 50.3811 97.0825 50.5639 97.1508 50.7784C97.2239 50.9929 97.2605 51.2342 97.2605 51.5024C97.2605 51.5804 97.2385 51.6389 97.1947 51.6779C97.1508 51.712 97.0874 51.729 97.0045 51.729H94.4598V51.3415H96.8656L96.7486 51.4365C96.7486 51.1733 96.7096 50.9515 96.6316 50.7711C96.5536 50.5859 96.439 50.4445 96.2879 50.347C96.1417 50.2495 95.9564 50.2007 95.7322 50.2007C95.4835 50.2007 95.2715 50.2592 95.096 50.3762C94.9254 50.4884 94.7962 50.6468 94.7084 50.8516C94.6207 51.0514 94.5768 51.2854 94.5768 51.5535V51.5974C94.5768 52.0459 94.684 52.3872 94.8985 52.6212C95.1179 52.8552 95.4275 52.9722 95.8272 52.9722C95.993 52.9722 96.1563 52.9502 96.3172 52.9063C96.4829 52.8625 96.6438 52.7893 96.7998 52.687C96.868 52.6431 96.929 52.6236 96.9826 52.6285C97.0411 52.6285 97.0874 52.6455 97.1215 52.6797C97.1557 52.7089 97.1776 52.7479 97.1874 52.7967C97.202 52.8405 97.1971 52.8893 97.1727 52.9429C97.1532 52.9965 97.1118 53.0428 97.0484 53.0818C96.8875 53.1988 96.6974 53.289 96.478 53.3524C96.2587 53.4158 96.0417 53.4475 95.8272 53.4475ZM99.3754 53.4475C99.0878 53.4475 98.8489 53.3963 98.6588 53.2939C98.4736 53.1867 98.3322 53.0282 98.2347 52.8186C98.1421 52.609 98.0958 52.3482 98.0958 52.0362V50.0764C98.0958 49.9741 98.1201 49.8985 98.1689 49.8498C98.2225 49.801 98.2956 49.7766 98.3883 49.7766C98.4858 49.7766 98.5589 49.801 98.6076 49.8498C98.6613 49.8985 98.6881 49.9741 98.6881 50.0764V52.0289C98.6881 52.3409 98.7514 52.5748 98.8782 52.7308C99.0098 52.882 99.2146 52.9575 99.4924 52.9575C99.7947 52.9575 100.041 52.8552 100.231 52.6504C100.421 52.4457 100.516 52.1775 100.516 51.846V50.0764C100.516 49.9741 100.541 49.8985 100.589 49.8498C100.643 49.801 100.719 49.7766 100.816 49.7766C100.909 49.7766 100.979 49.801 101.028 49.8498C101.082 49.8985 101.109 49.9741 101.109 50.0764V53.1257C101.109 53.3305 101.013 53.4328 100.823 53.4328C100.731 53.4328 100.658 53.406 100.604 53.3524C100.555 53.2988 100.531 53.2232 100.531 53.1257V52.4603L100.626 52.5627C100.528 52.8503 100.368 53.0697 100.143 53.2208C99.9239 53.3719 99.6679 53.4475 99.3754 53.4475ZM105.528 53.4475C105.25 53.4475 105.016 53.3987 104.826 53.3012C104.641 53.1988 104.502 53.0526 104.409 52.8625C104.316 52.6675 104.27 52.431 104.27 52.1532V50.2885H103.78C103.697 50.2885 103.634 50.269 103.59 50.23C103.546 50.1861 103.524 50.1276 103.524 50.0545C103.524 49.9814 103.546 49.9253 103.59 49.8863C103.634 49.8473 103.697 49.8278 103.78 49.8278H104.27V48.9869C104.27 48.8894 104.297 48.8163 104.351 48.7675C104.404 48.7139 104.477 48.6871 104.57 48.6871C104.663 48.6871 104.733 48.7139 104.782 48.7675C104.836 48.8163 104.862 48.8894 104.862 48.9869V49.8278H105.784C105.867 49.8278 105.93 49.8473 105.974 49.8863C106.018 49.9253 106.04 49.9814 106.04 50.0545C106.04 50.1276 106.018 50.1861 105.974 50.23C105.93 50.269 105.867 50.2885 105.784 50.2885H104.862V52.0947C104.862 52.3725 104.921 52.5846 105.038 52.7308C105.155 52.8722 105.345 52.9429 105.608 52.9429C105.701 52.9429 105.779 52.9332 105.842 52.9137C105.911 52.8942 105.967 52.8844 106.011 52.8844C106.054 52.8795 106.091 52.8942 106.12 52.9283C106.149 52.9624 106.164 53.0209 106.164 53.1038C106.164 53.1623 106.152 53.2159 106.128 53.2647C106.108 53.3134 106.071 53.3475 106.018 53.367C105.959 53.3865 105.881 53.4036 105.784 53.4182C105.691 53.4377 105.606 53.4475 105.528 53.4475ZM106.958 53.4328C106.861 53.4328 106.785 53.406 106.732 53.3524C106.683 53.2988 106.658 53.2232 106.658 53.1257V50.0764C106.658 49.9789 106.683 49.9058 106.732 49.8571C106.78 49.8034 106.851 49.7766 106.944 49.7766C107.036 49.7766 107.107 49.8034 107.156 49.8571C107.209 49.9058 107.236 49.9789 107.236 50.0764V50.6687H107.163C107.241 50.3811 107.39 50.1593 107.609 50.0033C107.828 49.8473 108.099 49.7644 108.421 49.7547C108.494 49.7498 108.552 49.7669 108.596 49.8059C108.64 49.84 108.665 49.9009 108.669 49.9887C108.674 50.0716 108.655 50.1374 108.611 50.1861C108.567 50.2349 108.499 50.2641 108.406 50.2739L108.289 50.2885C107.958 50.3177 107.702 50.425 107.521 50.6102C107.346 50.7906 107.258 51.0392 107.258 51.3561V53.1257C107.258 53.2232 107.231 53.2988 107.178 53.3524C107.129 53.406 107.056 53.4328 106.958 53.4328ZM110.838 53.4475C110.462 53.4475 110.138 53.3743 109.865 53.2281C109.597 53.077 109.388 52.8649 109.236 52.5919C109.09 52.3189 109.017 51.9923 109.017 51.612C109.017 51.2416 109.09 50.9198 109.236 50.6468C109.383 50.3689 109.583 50.152 109.836 49.996C110.094 49.84 110.392 49.762 110.728 49.762C110.967 49.762 111.182 49.8034 111.372 49.8863C111.562 49.9643 111.723 50.0789 111.854 50.23C111.991 50.3811 112.093 50.5639 112.161 50.7784C112.235 50.9929 112.271 51.2342 112.271 51.5024C112.271 51.5804 112.249 51.6389 112.205 51.6779C112.161 51.712 112.098 51.729 112.015 51.729H109.47V51.3415H111.876L111.759 51.4365C111.759 51.1733 111.72 50.9515 111.642 50.7711C111.564 50.5859 111.45 50.4445 111.299 50.347C111.152 50.2495 110.967 50.2007 110.743 50.2007C110.494 50.2007 110.282 50.2592 110.107 50.3762C109.936 50.4884 109.807 50.6468 109.719 50.8516C109.631 51.0514 109.587 51.2854 109.587 51.5535V51.5974C109.587 52.0459 109.695 52.3872 109.909 52.6212C110.129 52.8552 110.438 52.9722 110.838 52.9722C111.004 52.9722 111.167 52.9502 111.328 52.9063C111.494 52.8625 111.654 52.7893 111.81 52.687C111.879 52.6431 111.94 52.6236 111.993 52.6285C112.052 52.6285 112.098 52.6455 112.132 52.6797C112.166 52.7089 112.188 52.7479 112.198 52.7967C112.213 52.8405 112.208 52.8893 112.183 52.9429C112.164 52.9965 112.122 53.0428 112.059 53.0818C111.898 53.1988 111.708 53.289 111.489 53.3524C111.269 53.4158 111.052 53.4475 110.838 53.4475ZM113.421 53.4182C113.323 53.4182 113.25 53.3914 113.201 53.3378C113.153 53.2793 113.128 53.1988 113.128 53.0965V50.1057C113.128 50.0033 113.153 49.9253 113.201 49.8717C113.25 49.8181 113.323 49.7913 113.421 49.7913C113.513 49.7913 113.587 49.8181 113.64 49.8717C113.694 49.9253 113.721 50.0033 113.721 50.1057V53.0965C113.721 53.1988 113.694 53.2793 113.64 53.3378C113.591 53.3914 113.518 53.4182 113.421 53.4182ZM113.421 48.9723C113.299 48.9723 113.204 48.9406 113.136 48.8772C113.067 48.809 113.033 48.7188 113.033 48.6066C113.033 48.4896 113.067 48.4019 113.136 48.3434C113.204 48.28 113.299 48.2483 113.421 48.2483C113.548 48.2483 113.643 48.28 113.706 48.3434C113.774 48.4019 113.808 48.4896 113.808 48.6066C113.808 48.7188 113.774 48.809 113.706 48.8772C113.643 48.9406 113.548 48.9723 113.421 48.9723ZM115.12 53.4328C115.023 53.4328 114.95 53.406 114.901 53.3524C114.852 53.2988 114.828 53.2232 114.828 53.1257V50.0764C114.828 49.9789 114.852 49.9058 114.901 49.8571C114.95 49.8034 115.02 49.7766 115.113 49.7766C115.206 49.7766 115.276 49.8034 115.325 49.8571C115.379 49.9058 115.406 49.9789 115.406 50.0764V50.7053L115.325 50.6176C115.428 50.3348 115.593 50.1228 115.822 49.9814C116.056 49.8351 116.325 49.762 116.627 49.762C116.91 49.762 117.144 49.8132 117.329 49.9156C117.519 50.0179 117.66 50.1739 117.753 50.3836C117.846 50.5883 117.892 50.8491 117.892 51.166V53.1257C117.892 53.2232 117.865 53.2988 117.811 53.3524C117.763 53.406 117.692 53.4328 117.599 53.4328C117.502 53.4328 117.426 53.406 117.373 53.3524C117.324 53.2988 117.3 53.2232 117.3 53.1257V51.2026C117.3 50.8711 117.234 50.6297 117.102 50.4786C116.975 50.3226 116.771 50.2446 116.488 50.2446C116.161 50.2446 115.9 50.347 115.705 50.5517C115.515 50.7516 115.42 51.0197 115.42 51.3561V53.1257C115.42 53.3305 115.32 53.4328 115.12 53.4328ZM120.461 53.4475C120.115 53.4475 119.815 53.3719 119.562 53.2208C119.308 53.0697 119.111 52.8576 118.969 52.5846C118.833 52.3067 118.765 51.9801 118.765 51.6047C118.765 51.322 118.804 51.0685 118.882 50.8442C118.96 50.6151 119.074 50.4201 119.225 50.2592C119.376 50.0984 119.554 49.9765 119.759 49.8936C119.969 49.8059 120.203 49.762 120.461 49.762C120.807 49.762 121.107 49.8376 121.361 49.9887C121.614 50.1398 121.809 50.3543 121.946 50.6322C122.087 50.9052 122.158 51.2294 122.158 51.6047C122.158 51.8875 122.119 52.141 122.041 52.3652C121.963 52.5895 121.848 52.7845 121.697 52.9502C121.546 53.1111 121.365 53.2354 121.156 53.3232C120.951 53.406 120.72 53.4475 120.461 53.4475ZM120.461 52.9722C120.681 52.9722 120.873 52.9185 121.039 52.8113C121.205 52.704 121.331 52.548 121.419 52.3433C121.512 52.1385 121.558 51.8924 121.558 51.6047C121.558 51.1611 121.458 50.8223 121.258 50.5883C121.063 50.3543 120.798 50.2373 120.461 50.2373C120.237 50.2373 120.042 50.2909 119.876 50.3982C119.715 50.5006 119.589 50.6541 119.496 50.8589C119.408 51.0587 119.364 51.3074 119.364 51.6047C119.364 52.0435 119.464 52.3823 119.664 52.6212C119.864 52.8552 120.13 52.9722 120.461 52.9722ZM126.41 53.4475C126.064 53.4475 125.764 53.3719 125.51 53.2208C125.257 53.0697 125.059 52.8576 124.918 52.5846C124.781 52.3067 124.713 51.9801 124.713 51.6047C124.713 51.322 124.752 51.0685 124.83 50.8442C124.908 50.6151 125.023 50.4201 125.174 50.2592C125.325 50.0984 125.503 49.9765 125.708 49.8936C125.917 49.8059 126.151 49.762 126.41 49.762C126.756 49.762 127.056 49.8376 127.309 49.9887C127.563 50.1398 127.758 50.3543 127.894 50.6322C128.035 50.9052 128.106 51.2294 128.106 51.6047C128.106 51.8875 128.067 52.141 127.989 52.3652C127.911 52.5895 127.797 52.7845 127.645 52.9502C127.494 53.1111 127.314 53.2354 127.104 53.3232C126.9 53.406 126.668 53.4475 126.41 53.4475ZM126.41 52.9722C126.629 52.9722 126.822 52.9185 126.987 52.8113C127.153 52.704 127.28 52.548 127.368 52.3433C127.46 52.1385 127.507 51.8924 127.507 51.6047C127.507 51.1611 127.407 50.8223 127.207 50.5883C127.012 50.3543 126.746 50.2373 126.41 50.2373C126.185 50.2373 125.99 50.2909 125.825 50.3982C125.664 50.5006 125.537 50.6541 125.444 50.8589C125.357 51.0587 125.313 51.3074 125.313 51.6047C125.313 52.0435 125.413 52.3823 125.613 52.6212C125.812 52.8552 126.078 52.9722 126.41 52.9722ZM129.288 53.4328C129.191 53.4328 129.118 53.406 129.069 53.3524C129.02 53.2988 128.996 53.2232 128.996 53.1257V50.0764C128.996 49.9789 129.02 49.9058 129.069 49.8571C129.118 49.8034 129.188 49.7766 129.281 49.7766C129.374 49.7766 129.444 49.8034 129.493 49.8571C129.547 49.9058 129.574 49.9789 129.574 50.0764V50.7053L129.493 50.6176C129.595 50.3348 129.761 50.1228 129.99 49.9814C130.224 49.8351 130.492 49.762 130.795 49.762C131.077 49.762 131.311 49.8132 131.497 49.9156C131.687 50.0179 131.828 50.1739 131.921 50.3836C132.013 50.5883 132.06 50.8491 132.06 51.166V53.1257C132.06 53.2232 132.033 53.2988 131.979 53.3524C131.931 53.406 131.86 53.4328 131.767 53.4328C131.67 53.4328 131.594 53.406 131.541 53.3524C131.492 53.2988 131.467 53.2232 131.467 53.1257V51.2026C131.467 50.8711 131.402 50.6297 131.27 50.4786C131.143 50.3226 130.939 50.2446 130.656 50.2446C130.329 50.2446 130.068 50.347 129.873 50.5517C129.683 50.7516 129.588 51.0197 129.588 51.3561V53.1257C129.588 53.3305 129.488 53.4328 129.288 53.4328ZM134.505 53.4475C134.188 53.4475 133.91 53.3719 133.671 53.2208C133.437 53.0697 133.254 52.8576 133.123 52.5846C132.996 52.3067 132.933 51.9801 132.933 51.6047C132.933 51.2245 132.996 50.8979 133.123 50.6249C133.254 50.347 133.437 50.1349 133.671 49.9887C133.91 49.8376 134.188 49.762 134.505 49.762C134.827 49.762 135.102 49.8424 135.331 50.0033C135.56 50.1642 135.714 50.3811 135.792 50.6541H135.711V48.475C135.711 48.3775 135.736 48.3044 135.784 48.2556C135.838 48.202 135.914 48.1752 136.011 48.1752C136.104 48.1752 136.174 48.202 136.223 48.2556C136.277 48.3044 136.304 48.3775 136.304 48.475V53.1257C136.304 53.2232 136.279 53.2988 136.231 53.3524C136.182 53.406 136.109 53.4328 136.011 53.4328C135.919 53.4328 135.845 53.406 135.792 53.3524C135.743 53.2988 135.719 53.2232 135.719 53.1257V52.431L135.799 52.5334C135.721 52.8113 135.565 53.0331 135.331 53.1988C135.102 53.3646 134.827 53.4475 134.505 53.4475ZM134.629 52.9722C134.848 52.9722 135.041 52.9185 135.207 52.8113C135.373 52.704 135.499 52.548 135.587 52.3433C135.68 52.1385 135.726 51.8924 135.726 51.6047C135.726 51.1611 135.626 50.8223 135.426 50.5883C135.231 50.3543 134.965 50.2373 134.629 50.2373C134.405 50.2373 134.21 50.2909 134.044 50.3982C133.883 50.5006 133.756 50.6541 133.664 50.8589C133.576 51.0587 133.532 51.3074 133.532 51.6047C133.532 52.0435 133.632 52.3823 133.832 52.6212C134.032 52.8552 134.298 52.9722 134.629 52.9722ZM139.017 53.4475C138.641 53.4475 138.317 53.3743 138.044 53.2281C137.776 53.077 137.566 52.8649 137.415 52.5919C137.269 52.3189 137.196 51.9923 137.196 51.612C137.196 51.2416 137.269 50.9198 137.415 50.6468C137.561 50.3689 137.761 50.152 138.015 49.996C138.273 49.84 138.571 49.762 138.907 49.762C139.146 49.762 139.36 49.8034 139.55 49.8863C139.741 49.9643 139.901 50.0789 140.033 50.23C140.17 50.3811 140.272 50.5639 140.34 50.7784C140.413 50.9929 140.45 51.2342 140.45 51.5024C140.45 51.5804 140.428 51.6389 140.384 51.6779C140.34 51.712 140.277 51.729 140.194 51.729H137.649V51.3415H140.055L139.938 51.4365C139.938 51.1733 139.899 50.9515 139.821 50.7711C139.743 50.5859 139.628 50.4445 139.477 50.347C139.331 50.2495 139.146 50.2007 138.922 50.2007C138.673 50.2007 138.461 50.2592 138.285 50.3762C138.115 50.4884 137.986 50.6468 137.898 50.8516C137.81 51.0514 137.766 51.2854 137.766 51.5535V51.5974C137.766 52.0459 137.873 52.3872 138.088 52.6212C138.307 52.8552 138.617 52.9722 139.017 52.9722C139.182 52.9722 139.346 52.9502 139.507 52.9063C139.672 52.8625 139.833 52.7893 139.989 52.687C140.057 52.6431 140.118 52.6236 140.172 52.6285C140.231 52.6285 140.277 52.6455 140.311 52.6797C140.345 52.7089 140.367 52.7479 140.377 52.7967C140.391 52.8405 140.387 52.8893 140.362 52.9429C140.343 52.9965 140.301 53.0428 140.238 53.0818C140.077 53.1988 139.887 53.289 139.667 53.3524C139.448 53.4158 139.231 53.4475 139.017 53.4475ZM144.516 53.4328C144.433 53.4328 144.36 53.4109 144.297 53.367C144.233 53.3183 144.18 53.2452 144.136 53.1477L142.871 50.1934C142.836 50.1203 142.824 50.0521 142.834 49.9887C142.844 49.9253 142.873 49.8741 142.922 49.8351C142.971 49.7961 143.039 49.7766 143.127 49.7766C143.205 49.7766 143.265 49.7937 143.309 49.8278C143.353 49.8619 143.392 49.9229 143.426 50.0106L144.626 52.9429H144.428L145.649 50.0106C145.683 49.9229 145.722 49.8619 145.766 49.8278C145.81 49.7937 145.874 49.7766 145.956 49.7766C146.034 49.7766 146.093 49.7961 146.132 49.8351C146.176 49.8741 146.2 49.9253 146.205 49.9887C146.215 50.0472 146.205 50.113 146.176 50.1861L144.896 53.1477C144.862 53.2452 144.811 53.3183 144.743 53.367C144.679 53.4109 144.604 53.4328 144.516 53.4328ZM148.383 53.4475C148.037 53.4475 147.737 53.3719 147.483 53.2208C147.23 53.0697 147.032 52.8576 146.891 52.5846C146.755 52.3067 146.686 51.9801 146.686 51.6047C146.686 51.322 146.725 51.0685 146.803 50.8442C146.881 50.6151 146.996 50.4201 147.147 50.2592C147.298 50.0984 147.476 49.9765 147.681 49.8936C147.89 49.8059 148.124 49.762 148.383 49.762C148.729 49.762 149.029 49.8376 149.282 49.9887C149.536 50.1398 149.731 50.3543 149.867 50.6322C150.009 50.9052 150.079 51.2294 150.079 51.6047C150.079 51.8875 150.04 52.141 149.962 52.3652C149.884 52.5895 149.77 52.7845 149.619 52.9502C149.468 53.1111 149.287 53.2354 149.078 53.3232C148.873 53.406 148.641 53.4475 148.383 53.4475ZM148.383 52.9722C148.602 52.9722 148.795 52.9185 148.961 52.8113C149.126 52.704 149.253 52.548 149.341 52.3433C149.433 52.1385 149.48 51.8924 149.48 51.6047C149.48 51.1611 149.38 50.8223 149.18 50.5883C148.985 50.3543 148.719 50.2373 148.383 50.2373C148.159 50.2373 147.964 50.2909 147.798 50.3982C147.637 50.5006 147.51 50.6541 147.418 50.8589C147.33 51.0587 147.286 51.3074 147.286 51.6047C147.286 52.0435 147.386 52.3823 147.586 52.6212C147.786 52.8552 148.051 52.9722 148.383 52.9722ZM152.475 53.4475C152.12 53.4475 151.812 53.3695 151.554 53.2135C151.296 53.0575 151.096 52.8405 150.954 52.5627C150.818 52.2799 150.75 51.9533 150.75 51.5828C150.75 51.3001 150.789 51.0466 150.867 50.8223C150.945 50.5981 151.059 50.4079 151.21 50.2519C151.361 50.0911 151.542 49.9692 151.751 49.8863C151.966 49.8034 152.207 49.762 152.475 49.762C152.651 49.762 152.834 49.7888 153.024 49.8424C153.214 49.8961 153.387 49.9887 153.543 50.1203C153.592 50.1544 153.623 50.1959 153.638 50.2446C153.653 50.2934 153.653 50.3421 153.638 50.3909C153.623 50.4347 153.599 50.4737 153.565 50.5079C153.531 50.5371 153.487 50.5542 153.433 50.5591C153.385 50.5639 153.333 50.5469 153.28 50.5079C153.153 50.4104 153.024 50.3421 152.892 50.3031C152.761 50.2641 152.634 50.2446 152.512 50.2446C152.322 50.2446 152.156 50.2763 152.015 50.3397C151.873 50.3982 151.754 50.4835 151.656 50.5956C151.559 50.7077 151.483 50.8467 151.43 51.0124C151.381 51.1782 151.357 51.3707 151.357 51.5901C151.357 52.0142 151.457 52.3506 151.656 52.5992C151.856 52.843 152.141 52.9648 152.512 52.9648C152.634 52.9648 152.758 52.9453 152.885 52.9063C153.017 52.8673 153.148 52.7991 153.28 52.7016C153.333 52.6626 153.385 52.6455 153.433 52.6504C153.482 52.6553 153.524 52.6748 153.558 52.7089C153.592 52.7382 153.614 52.7772 153.623 52.8259C153.638 52.8747 153.638 52.9234 153.623 52.9722C153.609 53.016 153.577 53.055 153.528 53.0892C153.372 53.2159 153.202 53.3085 153.017 53.367C152.831 53.4207 152.651 53.4475 152.475 53.4475ZM155.884 53.4475C155.509 53.4475 155.184 53.3743 154.911 53.2281C154.643 53.077 154.434 52.8649 154.283 52.5919C154.136 52.3189 154.063 51.9923 154.063 51.612C154.063 51.2416 154.136 50.9198 154.283 50.6468C154.429 50.3689 154.629 50.152 154.882 49.996C155.141 49.84 155.438 49.762 155.774 49.762C156.013 49.762 156.228 49.8034 156.418 49.8863C156.608 49.9643 156.769 50.0789 156.9 50.23C157.037 50.3811 157.139 50.5639 157.208 50.7784C157.281 50.9929 157.317 51.2342 157.317 51.5024C157.317 51.5804 157.295 51.6389 157.251 51.6779C157.208 51.712 157.144 51.729 157.061 51.729H154.517V51.3415H156.922L156.805 51.4365C156.805 51.1733 156.766 50.9515 156.688 50.7711C156.61 50.5859 156.496 50.4445 156.345 50.347C156.198 50.2495 156.013 50.2007 155.789 50.2007C155.54 50.2007 155.328 50.2592 155.153 50.3762C154.982 50.4884 154.853 50.6468 154.765 50.8516C154.677 51.0514 154.634 51.2854 154.634 51.5535V51.5974C154.634 52.0459 154.741 52.3872 154.955 52.6212C155.175 52.8552 155.484 52.9722 155.884 52.9722C156.05 52.9722 156.213 52.9502 156.374 52.9063C156.54 52.8625 156.701 52.7893 156.857 52.687C156.925 52.6431 156.986 52.6236 157.039 52.6285C157.098 52.6285 157.144 52.6455 157.178 52.6797C157.212 52.7089 157.234 52.7479 157.244 52.7967C157.259 52.8405 157.254 52.8893 157.229 52.9429C157.21 52.9965 157.169 53.0428 157.105 53.0818C156.944 53.1988 156.754 53.289 156.535 53.3524C156.315 53.4158 156.098 53.4475 155.884 53.4475ZM156.74 49.1258C156.769 49.1843 156.774 49.2379 156.754 49.2867C156.74 49.3306 156.71 49.3623 156.666 49.3818C156.627 49.4013 156.584 49.4086 156.535 49.4037C156.491 49.3939 156.454 49.3647 156.425 49.3159L155.774 48.2703L155.123 49.3159C155.094 49.3647 155.055 49.3939 155.006 49.4037C154.963 49.4086 154.919 49.4013 154.875 49.3818C154.836 49.3623 154.807 49.3306 154.787 49.2867C154.772 49.2379 154.78 49.1843 154.809 49.1258L155.416 48.0143C155.46 47.9363 155.511 47.8778 155.57 47.8388C155.628 47.7998 155.696 47.7803 155.774 47.7803C155.852 47.7803 155.921 47.7998 155.979 47.8388C156.038 47.8778 156.089 47.9363 156.133 48.0143L156.74 49.1258ZM161.661 53.4475C161.286 53.4475 160.962 53.3743 160.689 53.2281C160.42 53.077 160.211 52.8649 160.06 52.5919C159.913 52.3189 159.84 51.9923 159.84 51.612C159.84 51.2416 159.913 50.9198 160.06 50.6468C160.206 50.3689 160.406 50.152 160.659 49.996C160.918 49.84 161.215 49.762 161.551 49.762C161.79 49.762 162.005 49.8034 162.195 49.8863C162.385 49.9643 162.546 50.0789 162.678 50.23C162.814 50.3811 162.916 50.5639 162.985 50.7784C163.058 50.9929 163.094 51.2342 163.094 51.5024C163.094 51.5804 163.072 51.6389 163.029 51.6779C162.985 51.712 162.921 51.729 162.838 51.729H160.294V51.3415H162.699L162.582 51.4365C162.582 51.1733 162.543 50.9515 162.465 50.7711C162.387 50.5859 162.273 50.4445 162.122 50.347C161.976 50.2495 161.79 50.2007 161.566 50.2007C161.317 50.2007 161.105 50.2592 160.93 50.3762C160.759 50.4884 160.63 50.6468 160.542 50.8516C160.455 51.0514 160.411 51.2854 160.411 51.5535V51.5974C160.411 52.0459 160.518 52.3872 160.732 52.6212C160.952 52.8552 161.261 52.9722 161.661 52.9722C161.827 52.9722 161.99 52.9502 162.151 52.9063C162.317 52.8625 162.478 52.7893 162.634 52.687C162.702 52.6431 162.763 52.6236 162.816 52.6285C162.875 52.6285 162.921 52.6455 162.955 52.6797C162.99 52.7089 163.011 52.7479 163.021 52.7967C163.036 52.8405 163.031 52.8893 163.007 52.9429C162.987 52.9965 162.946 53.0428 162.882 53.0818C162.721 53.1988 162.531 53.289 162.312 53.3524C162.093 53.4158 161.876 53.4475 161.661 53.4475ZM165.151 53.4475C164.931 53.4475 164.71 53.4207 164.485 53.367C164.266 53.3134 164.061 53.2208 163.871 53.0892C163.822 53.055 163.788 53.016 163.769 52.9722C163.749 52.9234 163.742 52.8771 163.747 52.8332C163.757 52.7845 163.776 52.743 163.805 52.7089C163.839 52.6748 163.878 52.6553 163.922 52.6504C163.971 52.6407 164.025 52.6504 164.083 52.6797C164.273 52.7967 164.456 52.8795 164.632 52.9283C164.812 52.9722 164.99 52.9941 165.165 52.9941C165.443 52.9941 165.653 52.9429 165.794 52.8405C165.936 52.7382 166.006 52.5992 166.006 52.4237C166.006 52.2872 165.96 52.18 165.867 52.102C165.775 52.0191 165.629 51.9557 165.429 51.9119L164.763 51.7656C164.456 51.7022 164.227 51.5925 164.076 51.4365C163.93 51.2806 163.857 51.0782 163.857 50.8296C163.857 50.6102 163.913 50.4226 164.025 50.2666C164.142 50.1057 164.305 49.9814 164.515 49.8936C164.724 49.8059 164.968 49.762 165.246 49.762C165.46 49.762 165.663 49.7913 165.853 49.8498C166.048 49.9034 166.223 49.9911 166.379 50.113C166.428 50.1471 166.46 50.1886 166.474 50.2373C166.494 50.2812 166.496 50.3275 166.482 50.3762C166.472 50.4201 166.45 50.4591 166.416 50.4932C166.382 50.5225 166.34 50.5396 166.292 50.5444C166.243 50.5493 166.192 50.5347 166.138 50.5006C165.992 50.4031 165.843 50.3324 165.692 50.2885C165.541 50.2397 165.392 50.2154 165.246 50.2154C164.973 50.2154 164.766 50.269 164.624 50.3762C164.483 50.4835 164.412 50.6249 164.412 50.8004C164.412 50.9369 164.456 51.049 164.544 51.1367C164.632 51.2245 164.768 51.2879 164.953 51.3269L165.619 51.4658C165.936 51.534 166.172 51.6437 166.328 51.7949C166.489 51.9411 166.569 52.141 166.569 52.3945C166.569 52.7162 166.44 52.9722 166.182 53.1623C165.924 53.3524 165.58 53.4475 165.151 53.4475ZM168.862 53.4475C168.584 53.4475 168.35 53.3987 168.16 53.3012C167.975 53.1988 167.836 53.0526 167.744 52.8625C167.651 52.6675 167.605 52.431 167.605 52.1532V50.2885H167.115C167.032 50.2885 166.968 50.269 166.925 50.23C166.881 50.1861 166.859 50.1276 166.859 50.0545C166.859 49.9814 166.881 49.9253 166.925 49.8863C166.968 49.8473 167.032 49.8278 167.115 49.8278H167.605V48.9869C167.605 48.8894 167.631 48.8163 167.685 48.7675C167.739 48.7139 167.812 48.6871 167.904 48.6871C167.997 48.6871 168.068 48.7139 168.116 48.7675C168.17 48.8163 168.197 48.8894 168.197 48.9869V49.8278H169.118C169.201 49.8278 169.265 49.8473 169.308 49.8863C169.352 49.9253 169.374 49.9814 169.374 50.0545C169.374 50.1276 169.352 50.1861 169.308 50.23C169.265 50.269 169.201 50.2885 169.118 50.2885H168.197V52.0947C168.197 52.3725 168.255 52.5846 168.372 52.7308C168.489 52.8722 168.68 52.9429 168.943 52.9429C169.035 52.9429 169.113 52.9332 169.177 52.9137C169.245 52.8942 169.301 52.8844 169.345 52.8844C169.389 52.8795 169.425 52.8942 169.455 52.9283C169.484 52.9624 169.499 53.0209 169.499 53.1038C169.499 53.1623 169.486 53.2159 169.462 53.2647C169.442 53.3134 169.406 53.3475 169.352 53.367C169.294 53.3865 169.216 53.4036 169.118 53.4182C169.026 53.4377 168.94 53.4475 168.862 53.4475ZM170.328 53.4182C170.231 53.4182 170.158 53.3914 170.109 53.3378C170.06 53.2793 170.036 53.1988 170.036 53.0965V50.1057C170.036 50.0033 170.06 49.9253 170.109 49.8717C170.158 49.8181 170.231 49.7913 170.328 49.7913C170.421 49.7913 170.494 49.8181 170.548 49.8717C170.601 49.9253 170.628 50.0033 170.628 50.1057V53.0965C170.628 53.1988 170.601 53.2793 170.548 53.3378C170.499 53.3914 170.426 53.4182 170.328 53.4182ZM170.328 48.9723C170.206 48.9723 170.111 48.9406 170.043 48.8772C169.975 48.809 169.941 48.7188 169.941 48.6066C169.941 48.4896 169.975 48.4019 170.043 48.3434C170.111 48.28 170.206 48.2483 170.328 48.2483C170.455 48.2483 170.55 48.28 170.613 48.3434C170.682 48.4019 170.716 48.4896 170.716 48.6066C170.716 48.7188 170.682 48.809 170.613 48.8772C170.55 48.9406 170.455 48.9723 170.328 48.9723ZM173.059 53.4328C172.976 53.4328 172.903 53.4109 172.84 53.367C172.776 53.3183 172.723 53.2452 172.679 53.1477L171.414 50.1934C171.379 50.1203 171.367 50.0521 171.377 49.9887C171.387 49.9253 171.416 49.8741 171.465 49.8351C171.514 49.7961 171.582 49.7766 171.67 49.7766C171.748 49.7766 171.808 49.7937 171.852 49.8278C171.896 49.8619 171.935 49.9229 171.969 50.0106L173.169 52.9429H172.971L174.192 50.0106C174.226 49.9229 174.265 49.8619 174.309 49.8278C174.353 49.7937 174.417 49.7766 174.499 49.7766C174.577 49.7766 174.636 49.7961 174.675 49.8351C174.719 49.8741 174.743 49.9253 174.748 49.9887C174.758 50.0472 174.748 50.113 174.719 50.1861L173.439 53.1477C173.405 53.2452 173.354 53.3183 173.286 53.367C173.222 53.4109 173.147 53.4328 173.059 53.4328ZM177.05 53.4475C176.675 53.4475 176.351 53.3743 176.078 53.2281C175.81 53.077 175.6 52.8649 175.449 52.5919C175.303 52.3189 175.229 51.9923 175.229 51.612C175.229 51.2416 175.303 50.9198 175.449 50.6468C175.595 50.3689 175.795 50.152 176.048 49.996C176.307 49.84 176.604 49.762 176.941 49.762C177.179 49.762 177.394 49.8034 177.584 49.8863C177.774 49.9643 177.935 50.0789 178.067 50.23C178.203 50.3811 178.305 50.5639 178.374 50.7784C178.447 50.9929 178.483 51.2342 178.483 51.5024C178.483 51.5804 178.461 51.6389 178.418 51.6779C178.374 51.712 178.31 51.729 178.227 51.729H175.683V51.3415H178.089L177.972 51.4365C177.972 51.1733 177.933 50.9515 177.855 50.7711C177.777 50.5859 177.662 50.4445 177.511 50.347C177.365 50.2495 177.179 50.2007 176.955 50.2007C176.707 50.2007 176.494 50.2592 176.319 50.3762C176.148 50.4884 176.019 50.6468 175.931 50.8516C175.844 51.0514 175.8 51.2854 175.8 51.5535V51.5974C175.8 52.0459 175.907 52.3872 176.122 52.6212C176.341 52.8552 176.65 52.9722 177.05 52.9722C177.216 52.9722 177.379 52.9502 177.54 52.9063C177.706 52.8625 177.867 52.7893 178.023 52.687C178.091 52.6431 178.152 52.6236 178.206 52.6285C178.264 52.6285 178.31 52.6455 178.344 52.6797C178.379 52.7089 178.401 52.7479 178.41 52.7967C178.425 52.8405 178.42 52.8893 178.396 52.9429C178.376 52.9965 178.335 53.0428 178.271 53.0818C178.11 53.1988 177.92 53.289 177.701 53.3524C177.482 53.4158 177.265 53.4475 177.05 53.4475ZM179.64 53.4328C179.543 53.4328 179.467 53.406 179.414 53.3524C179.365 53.2988 179.341 53.2232 179.341 53.1257V50.0764C179.341 49.9789 179.365 49.9058 179.414 49.8571C179.463 49.8034 179.533 49.7766 179.626 49.7766C179.718 49.7766 179.789 49.8034 179.838 49.8571C179.892 49.9058 179.918 49.9789 179.918 50.0764V50.6687H179.845C179.923 50.3811 180.072 50.1593 180.291 50.0033C180.511 49.8473 180.781 49.7644 181.103 49.7547C181.176 49.7498 181.235 49.7669 181.278 49.8059C181.322 49.84 181.347 49.9009 181.352 49.9887C181.356 50.0716 181.337 50.1374 181.293 50.1861C181.249 50.2349 181.181 50.2641 181.088 50.2739L180.971 50.2885C180.64 50.3177 180.384 50.425 180.204 50.6102C180.028 50.7906 179.94 51.0392 179.94 51.3561V53.1257C179.94 53.2232 179.913 53.2988 179.86 53.3524C179.811 53.406 179.738 53.4328 179.64 53.4328ZM182.09 53.4109C181.968 53.4109 181.87 53.3743 181.797 53.3012C181.724 53.2232 181.687 53.1257 181.687 53.0087C181.687 52.8917 181.724 52.7967 181.797 52.7235C181.87 52.6455 181.968 52.6065 182.09 52.6065C182.211 52.6065 182.306 52.6455 182.375 52.7235C182.448 52.7967 182.484 52.8917 182.484 53.0087C182.484 53.1257 182.448 53.2232 182.375 53.3012C182.306 53.3743 182.211 53.4109 182.09 53.4109Z" fill="#DF9DC0"/>
</svg>
