<svg width="29" height="30" viewBox="0 0 29 30" fill="none" xmlns="http://www.w3.org/2000/svg">
<path fill-rule="evenodd" clip-rule="evenodd" d="M3.20217 0.9104C1.43366 0.9104 0 2.34406 0 4.11257V25.8873C0 27.6558 1.43366 29.0895 3.20217 29.0895H24.9769C26.7454 29.0895 28.1791 27.6558 28.1791 25.8873V4.11257C28.1791 2.34406 26.7454 0.9104 24.9769 0.9104H3.20217ZM14.0091 11.9618C14.5522 11.9618 15.044 11.8696 15.4949 11.6851C15.9355 11.5007 16.3249 11.2445 16.6528 10.9064C16.9807 10.5682 17.2369 10.1788 17.4213 9.71772C17.5955 9.26685 17.6877 8.775 17.6877 8.23191C17.6877 7.68882 17.5955 7.19697 17.4213 6.73586C17.2369 6.28499 16.9807 5.89561 16.6528 5.55746C16.3249 5.21931 15.9355 4.96314 15.4949 4.77869C15.044 4.59425 14.5522 4.50202 14.0091 4.50202C13.4762 4.50202 12.9844 4.59425 12.5438 4.77869C12.0929 4.96314 11.7035 5.21931 11.3859 5.55746C11.058 5.89561 10.8018 6.28499 10.6276 6.73586C10.4432 7.19697 10.3509 7.68882 10.3509 8.23191C10.3509 8.775 10.4432 9.26685 10.6276 9.71772C10.8018 10.1788 11.058 10.5682 11.3859 10.9064C11.7035 11.2445 12.0929 11.5007 12.5438 11.6851C12.9844 11.8696 13.4762 11.9618 14.0091 11.9618ZM14.0091 10.4862C13.63 10.4862 13.2918 10.394 12.9946 10.1993C12.6975 10.0149 12.4618 9.74846 12.2978 9.41031C12.1237 9.07216 12.0417 8.68278 12.0417 8.23191C12.0417 7.78105 12.1237 7.38142 12.2978 7.04327C12.4618 6.70512 12.6975 6.44894 12.9946 6.25425C13.2918 6.06981 13.63 5.97758 14.0091 5.97758C14.3985 5.97758 14.7469 6.06981 15.044 6.25425C15.3412 6.44894 15.5666 6.70512 15.7408 7.04327C15.915 7.38142 15.997 7.78105 15.997 8.23191C15.997 8.68278 15.915 9.07216 15.7408 9.41031C15.5666 9.74846 15.3412 10.0149 15.044 10.1993C14.7469 10.394 14.3985 10.4862 14.0091 10.4862ZM7.60099 11.7978V6.11079H9.86556V4.66597H3.66616V6.11079H5.93073V11.7978H7.60099ZM20.4653 11.7978H18.7951V4.66597H21.7462C22.3303 4.66597 22.8426 4.76844 23.2627 4.97338C23.6828 5.17832 24.0108 5.46524 24.2362 5.83413C24.4616 6.20302 24.5743 6.63339 24.5743 7.12524C24.5743 7.61709 24.4616 8.04747 24.2362 8.41636C24.0108 8.79549 23.6828 9.08241 23.2627 9.28735C22.8426 9.49229 22.3303 9.59476 21.7462 9.59476H20.4653V11.7978ZM20.4653 6.08005V8.18068H21.5002C21.9819 8.18068 22.3303 8.08845 22.5557 7.90401C22.7709 7.72981 22.8836 7.46339 22.8836 7.12524C22.8836 6.78709 22.7709 6.53092 22.5557 6.34647C22.3303 6.17228 21.9819 6.08005 21.5002 6.08005H20.4653ZM7.21187 26.5278H10.2475V12.9058L4.157 14.5005V17.1327L7.21187 16.2873V26.5278ZM22.5497 25.9514C21.7236 26.5278 20.7437 26.816 19.6486 26.816C18.5534 26.816 17.5928 26.5278 16.7666 25.9514C15.9404 25.3943 15.2872 24.5873 14.8453 23.5306C14.4034 22.4931 14.1728 21.2635 14.1728 19.8417C14.1728 18.4391 14.4034 17.2095 14.8453 16.1528C15.2872 15.0961 15.9404 14.2891 16.7666 13.7127C17.5928 13.1556 18.5534 12.8674 19.6486 12.8674C20.7437 12.8674 21.7236 13.1556 22.5497 13.7127C23.3759 14.2891 24.0099 15.0961 24.4518 16.1528C24.8937 17.2095 25.1243 18.4391 25.1243 19.8417C25.1243 21.2635 24.8937 22.4931 24.4518 23.5306C24.0099 24.5873 23.3759 25.3943 22.5497 25.9514ZM17.9002 22.9926C18.3229 23.7419 18.8992 24.1262 19.6486 24.1262C20.3979 24.1262 20.9743 23.7419 21.3969 22.9926C21.8196 22.2433 22.031 21.2058 22.031 19.8417C22.031 18.4776 21.8196 17.4209 21.3969 16.6716C20.9743 15.9222 20.3979 15.5572 19.6486 15.5572C18.8992 15.5572 18.3229 15.9222 17.9002 16.6716C17.4775 17.4209 17.2661 18.4776 17.2661 19.8417C17.2661 21.2058 17.4775 22.2433 17.9002 22.9926Z" fill="#DF9DC0"/>
</svg>
